SeanSans-CompressedRegular.ufo
<glyph name="exclam" format="1">
  <advance width="243"/>
  <unicode hex="0021"/>
  <outline>
    <contour>
      <point x="160" y="229" type="line"/>
      <point x="165" y="722" type="line"/>
      <point x="78" y="722" type="line"/>
      <point x="83" y="229" type="line"/>
    </contour>
    <contour>
      <point x="161" y="33" type="curve"/>
      <point x="161" y="59"/>
      <point x="145" y="73"/>
      <point x="121" y="73" type="curve"/>
      <point x="97" y="73"/>
      <point x="82" y="58"/>
      <point x="82" y="33" type="curve"/>
      <point x="164" y="33"/>
      <point x="80" y="33"/>
      <point x="161" y="33" type="curve"/>
      <point x="161" y="6"/>
      <point x="145" y="-7"/>
      <point x="121" y="-7" type="curve"/>
      <point x="96" y="-7"/>
      <point x="82" y="7"/>
      <point x="82" y="33" type="curve"/>
      <point x="164" y="33"/>
      <point x="80" y="33"/>
    </contour>
  </outline>
</glyph>
<glyph name="quotedbl" format="1">
  <advance width="340"/>
  <unicode hex="0022"/>
  <outline>
    <contour>
      <point x="130" y="619" type="line"/>
      <point x="136" y="819" type="line"/>
      <point x="61" y="819" type="line"/>
      <point x="67" y="619" type="line"/>
    </contour>
    <contour>
      <point x="273" y="619" type="line"/>
      <point x="279" y="819" type="line"/>
      <point x="204" y="819" type="line"/>
      <point x="210" y="619" type="line"/>
    </contour>
  </outline>
</glyph>
<glyph name="numbersign" format="1">
  <advance width="479"/>
  <unicode hex="0023"/>
  <outline>
    <contour>
      <point x="41" y="235" type="curve"/>
      <point x="382" y="235" type="curve"/>
      <point x="395" y="294" type="curve"/>
      <point x="54" y="294" type="curve"/>
    </contour>
    <contour>
      <point x="85" y="466" type="curve"/>
      <point x="425" y="466" type="curve"/>
      <point x="439" y="524" type="curve"/>
      <point x="97" y="524" type="curve"/>
    </contour>
    <contour>
      <point x="291" y="39" type="curve"/>
      <point x="427" y="722" type="curve"/>
      <point x="355" y="722" type="curve"/>
      <point x="218" y="39" type="curve"/>
    </contour>
    <contour>
      <point x="125" y="46" type="curve"/>
      <point x="260" y="722" type="curve"/>
      <point x="187" y="722" type="curve"/>
      <point x="55" y="46" type="curve"/>
    </contour>
  </outline>
</glyph>
<glyph name="dollar" format="1">
  <advance width="406"/>
  <unicode hex="0024"/>
  <outline>
    <contour>
      <point x="226" y="-43" type="curve"/>
      <point x="226" y="-10"/>
      <point x="226" y="42"/>
      <point x="226" y="75" type="curve"/>
      <point x="153" y="75"/>
      <point x="226" y="75"/>
      <point x="153" y="75" type="curve"/>
      <point x="153" y="42"/>
      <point x="153" y="-10"/>
      <point x="153" y="-43" type="curve"/>
      <point x="226" y="-43"/>
      <point x="153" y="-43"/>
    </contour>
    <contour>
      <point x="233" y="655" type="curve"/>
      <point x="233" y="687"/>
      <point x="233" y="741"/>
      <point x="233" y="773" type="curve"/>
      <point x="160" y="773"/>
      <point x="233" y="773"/>
      <point x="160" y="773" type="curve"/>
      <point x="160" y="741"/>
      <point x="160" y="687"/>
      <point x="160" y="655" type="curve"/>
      <point x="233" y="655"/>
      <point x="160" y="655"/>
    </contour>
    <contour>
      <point x="50" y="96" type="curve"/>
      <point x="85" y="69"/>
      <point x="131" y="46"/>
      <point x="186" y="46" type="curve"/>
      <point x="291" y="46"/>
      <point x="361" y="116"/>
      <point x="361" y="208" type="curve"/>
      <point x="361" y="290"/>
      <point x="299" y="351"/>
      <point x="219" y="401" type="curve"/>
      <point x="163" y="438"/>
      <point x="125" y="472"/>
      <point x="125" y="533" type="curve"/>
      <point x="125" y="582"/>
      <point x="149" y="627"/>
      <point x="199" y="627" type="curve"/>
      <point x="240" y="627"/>
      <point x="267" y="610"/>
      <point x="299" y="584" type="curve"/>
      <point x="336" y="633"/>
      <point x="299" y="584"/>
      <point x="336" y="633" type="curve"/>
      <point x="294" y="666"/>
      <point x="256" y="685"/>
      <point x="201" y="685" type="curve"/>
      <point x="108" y="685"/>
      <point x="52" y="618"/>
      <point x="52" y="533" type="curve"/>
      <point x="52" y="451"/>
      <point x="99" y="396"/>
      <point x="177" y="347" type="curve"/>
      <point x="237" y="311"/>
      <point x="288" y="270"/>
      <point x="288" y="205" type="curve"/>
      <point x="288" y="149"/>
      <point x="252" y="103"/>
      <point x="192" y="103" type="curve"/>
      <point x="150" y="103"/>
      <point x="117" y="128"/>
      <point x="91" y="148" type="curve"/>
      <point x="50" y="96"/>
      <point x="91" y="148"/>
    </contour>
  </outline>
</glyph>
<glyph name="percent" format="1">
  <advance width="742"/>
  <unicode hex="0025"/>
  <outline>
    <contour>
      <point x="273" y="-69" type="line"/>
      <point x="542" y="736" type="line"/>
      <point x="472" y="736" type="line"/>
      <point x="204" y="-69" type="line"/>
    </contour>
    <contour>
      <point x="97" y="531" type="curve"/>
      <point x="97" y="615"/>
      <point x="103" y="689"/>
      <point x="174" y="689" type="curve"/>
      <point x="244" y="690"/>
      <point x="252" y="616"/>
      <point x="252" y="531" type="curve"/>
      <point x="252" y="447"/>
      <point x="248" y="371"/>
      <point x="178" y="371" type="curve"/>
      <point x="105" y="371"/>
      <point x="97" y="445"/>
      <point x="97" y="531" type="curve"/>
      <point x="74" y="531"/>
      <point x="58" y="531"/>
      <point x="35" y="531" type="curve"/>
      <point x="35" y="413"/>
      <point x="70" y="318"/>
      <point x="175" y="318" type="curve"/>
      <point x="281" y="318"/>
      <point x="316" y="414"/>
      <point x="316" y="534" type="curve"/>
      <point x="316" y="650"/>
      <point x="281" y="743"/>
      <point x="177" y="742" type="curve"/>
      <point x="71" y="742"/>
      <point x="35" y="649"/>
      <point x="35" y="531" type="curve"/>
      <point x="58" y="531"/>
      <point x="74" y="531"/>
    </contour>
    <contour>
      <point x="488" y="142" type="curve"/>
      <point x="488" y="225"/>
      <point x="495" y="299"/>
      <point x="565" y="299" type="curve"/>
      <point x="636" y="300"/>
      <point x="643" y="226"/>
      <point x="643" y="141" type="curve"/>
      <point x="643" y="57"/>
      <point x="640" y="-19"/>
      <point x="569" y="-19" type="curve"/>
      <point x="497" y="-19"/>
      <point x="488" y="55"/>
      <point x="488" y="142" type="curve"/>
      <point x="465" y="142"/>
      <point x="450" y="142"/>
      <point x="427" y="142" type="curve"/>
      <point x="427" y="23"/>
      <point x="461" y="-72"/>
      <point x="566" y="-72" type="curve"/>
      <point x="673" y="-72"/>
      <point x="707" y="24"/>
      <point x="707" y="144" type="curve"/>
      <point x="707" y="261"/>
      <point x="672" y="353"/>
      <point x="568" y="352" type="curve"/>
      <point x="463" y="352"/>
      <point x="427" y="259"/>
      <point x="427" y="142" type="curve"/>
      <point x="450" y="142"/>
      <point x="465" y="142"/>
    </contour>
  </outline>
</glyph>
<glyph name="ampersand" format="1">
  <advance width="492"/>
  <unicode hex="0026"/>
  <outline>
    <contour>
      <point x="471" y="19" type="line"/>
      <point x="403" y="127"/>
      <point x="331" y="251"/>
      <point x="259" y="361" type="curve"/>
      <point x="220" y="427"/>
      <point x="171" y="487"/>
      <point x="171" y="565" type="curve"/>
      <point x="171" y="617"/>
      <point x="180" y="668"/>
      <point x="221" y="668" type="curve"/>
      <point x="262" y="668"/>
      <point x="272" y="620"/>
      <point x="272" y="567" type="curve"/>
      <point x="272" y="498"/>
      <point x="240" y="447"/>
      <point x="186" y="402" type="curve"/>
      <point x="113" y="340"/>
      <point x="59" y="281"/>
      <point x="59" y="187" type="curve"/>
      <point x="59" y="80"/>
      <point x="115" y="-5"/>
      <point x="215" y="-5" type="curve"/>
      <point x="371" y="-5"/>
      <point x="416" y="149"/>
      <point x="449" y="316" type="curve"/>
      <point x="386" y="330"/>
      <point x="449" y="316"/>
      <point x="386" y="330" type="curve"/>
      <point x="360" y="193"/>
      <point x="337" y="55"/>
      <point x="218" y="55" type="curve"/>
      <point x="158" y="55"/>
      <point x="133" y="117"/>
      <point x="133" y="187" type="curve"/>
      <point x="133" y="257"/>
      <point x="167" y="307"/>
      <point x="220" y="354" type="curve"/>
      <point x="291" y="415"/>
      <point x="346" y="475"/>
      <point x="346" y="568" type="curve"/>
      <point x="346" y="657"/>
      <point x="304" y="727"/>
      <point x="223" y="727" type="curve"/>
      <point x="141" y="727"/>
      <point x="102" y="655"/>
      <point x="102" y="565" type="curve"/>
      <point x="102" y="472"/>
      <point x="155" y="404"/>
      <point x="206" y="326" type="curve"/>
      <point x="274" y="218"/>
      <point x="348" y="90"/>
      <point x="414" y="-14" type="curve"/>
    </contour>
  </outline>
</glyph>
<glyph name="parenleft" format="1">
  <advance width="264"/>
  <unicode hex="0028"/>
  <outline>
    <contour>
      <point x="262" y="-223" type="curve"/>
      <point x="143" y="-43"/>
      <point x="121" y="113"/>
      <point x="121" y="326" type="curve"/>
      <point x="121" y="539"/>
      <point x="144" y="695"/>
      <point x="261" y="878" type="curve"/>
      <point x="216" y="915"/>
      <point x="261" y="878"/>
      <point x="216" y="915" type="curve"/>
      <point x="88" y="721"/>
      <point x="49" y="557"/>
      <point x="49" y="326" type="curve"/>
      <point x="49" y="94"/>
      <point x="89" y="-69"/>
      <point x="217" y="-264" type="curve"/>
      <point x="262" y="-223"/>
      <point x="217" y="-264"/>
    </contour>
  </outline>
</glyph>
<glyph name="parenright" format="1">
  <advance width="272"/>
  <unicode hex="0029"/>
  <outline>
    <contour>
      <point x="45" y="-279" type="curve"/>
      <point x="174" y="-76"/>
      <point x="223" y="89"/>
      <point x="223" y="328" type="curve"/>
      <point x="223" y="560"/>
      <point x="181" y="723"/>
      <point x="48" y="916" type="curve"/>
      <point x="3" y="876"/>
      <point x="48" y="916"/>
      <point x="3" y="876" type="curve"/>
      <point x="124" y="694"/>
      <point x="150" y="539"/>
      <point x="150" y="325" type="curve"/>
      <point x="150" y="106"/>
      <point x="116" y="-51"/>
      <point x="0" y="-240" type="curve"/>
      <point x="45" y="-279"/>
      <point x="0" y="-240"/>
    </contour>
  </outline>
</glyph>
<glyph name="asterisk" format="1">
  <advance width="604"/>
  <unicode hex="002A"/>
  <outline>
    <contour>
      <point x="327" y="574" type="line"/>
      <point x="331" y="773" type="line"/>
      <point x="274" y="773" type="line"/>
      <point x="278" y="574" type="line"/>
    </contour>
    <contour>
      <point x="352" y="519" type="line"/>
      <point x="542" y="580" type="line"/>
      <point x="523" y="634" type="line"/>
      <point x="336" y="565" type="line"/>
    </contour>
    <contour>
      <point x="309" y="477" type="line"/>
      <point x="427" y="317" type="line"/>
      <point x="472" y="353" type="line"/>
      <point x="346" y="508" type="line"/>
    </contour>
    <contour>
      <point x="256" y="509" type="line"/>
      <point x="130" y="354" type="line"/>
      <point x="175" y="318" type="line"/>
      <point x="294" y="479" type="line"/>
    </contour>
    <contour>
      <point x="268" y="566" type="line"/>
      <point x="80" y="635" type="line"/>
      <point x="61" y="581" type="line"/>
      <point x="251" y="520" type="line"/>
    </contour>
  </outline>
</glyph>
<glyph name="plus" format="1">
  <advance width="563"/>
  <unicode hex="002B"/>
  <outline>
    <contour>
      <point x="41" y="280" type="curve"/>
      <point x="522" y="280" type="line"/>
      <point x="522" y="344"/>
      <point x="522" y="280"/>
      <point x="522" y="344" type="curve"/>
      <point x="41" y="344" type="line"/>
      <point x="41" y="280"/>
      <point x="41" y="344"/>
    </contour>
    <contour>
      <point x="316" y="37" type="curve"/>
      <point x="316" y="583" type="line"/>
      <point x="243" y="583"/>
      <point x="320" y="583"/>
      <point x="247" y="583" type="curve"/>
      <point x="247" y="37" type="line"/>
      <point x="320" y="37"/>
      <point x="243" y="37"/>
    </contour>
  </outline>
</glyph>
<glyph name="comma" format="1">
  <advance width="157"/>
  <unicode hex="002C"/>
  <outline>
    <contour>
      <point x="24" y="-107" type="line"/>
      <point x="76" y="-93"/>
      <point x="112" y="-49"/>
      <point x="112" y="22" type="curve"/>
      <point x="112" y="71"/>
      <point x="96" y="99"/>
      <point x="68" y="99" type="curve"/>
      <point x="42" y="99"/>
      <point x="27" y="85"/>
      <point x="27" y="59" type="curve"/>
      <point x="27" y="38"/>
      <point x="37" y="22"/>
      <point x="58" y="19" type="curve"/>
      <point x="58" y="-3"/>
      <point x="53" y="-47"/>
      <point x="14" y="-65" type="curve"/>
    </contour>
  </outline>
</glyph>
<glyph name="hyphen" format="1">
  <advance width="330"/>
  <unicode hex="002D"/>
  <outline>
    <contour>
      <point x="73" y="245" type="curve"/>
      <point x="134" y="245"/>
      <point x="196" y="245"/>
      <point x="256" y="245" type="curve"/>
      <point x="256" y="309"/>
      <point x="256" y="245"/>
      <point x="256" y="309" type="curve"/>
      <point x="196" y="309"/>
      <point x="134" y="309"/>
      <point x="73" y="309" type="curve"/>
      <point x="73" y="245"/>
      <point x="73" y="309"/>
    </contour>
  </outline>
</glyph>
<glyph name="period" format="1">
  <advance width="203"/>
  <unicode hex="002E"/>
  <outline>
    <contour>
      <point x="141" y="33" type="curve"/>
      <point x="141" y="59"/>
      <point x="125" y="73"/>
      <point x="101" y="73" type="curve"/>
      <point x="77" y="73"/>
      <point x="62" y="58"/>
      <point x="62" y="33" type="curve"/>
      <point x="144" y="33"/>
      <point x="60" y="33"/>
      <point x="141" y="33" type="curve"/>
      <point x="141" y="6"/>
      <point x="125" y="-7"/>
      <point x="101" y="-7" type="curve"/>
      <point x="76" y="-7"/>
      <point x="62" y="7"/>
      <point x="62" y="33" type="curve"/>
      <point x="144" y="33"/>
      <point x="60" y="33"/>
    </contour>
  </outline>
</glyph>
<glyph name="slash" format="1">
  <advance width="391"/>
  <unicode hex="002F"/>
  <outline>
    <contour>
      <point x="99" y="-45" type="curve"/>
      <point x="187" y="243"/>
      <point x="277" y="530"/>
      <point x="366" y="818" type="curve"/>
      <point x="294" y="818"/>
      <point x="366" y="818"/>
      <point x="294" y="818" type="curve"/>
      <point x="204" y="530"/>
      <point x="115" y="243"/>
      <point x="25" y="-45" type="curve"/>
      <point x="99" y="-45"/>
      <point x="25" y="-45"/>
    </contour>
  </outline>
</glyph>
<glyph name="zero" format="1">
  <advance width="512"/>
  <unicode hex="0030"/>
  <outline>
    <contour>
      <point x="132" y="360" type="curve"/>
      <point x="132" y="522"/>
      <point x="135" y="666"/>
      <point x="254" y="666" type="curve"/>
      <point x="377" y="666"/>
      <point x="381" y="524"/>
      <point x="381" y="363" type="curve"/>
      <point x="381" y="202"/>
      <point x="376" y="56"/>
      <point x="260" y="56" type="curve"/>
      <point x="142" y="56"/>
      <point x="132" y="199"/>
      <point x="132" y="360" type="curve"/>
      <point x="61" y="360"/>
      <point x="131" y="360"/>
      <point x="60" y="360" type="curve"/>
      <point x="60" y="160"/>
      <point x="91" y="-5"/>
      <point x="257" y="-5" type="curve"/>
      <point x="424" y="-5"/>
      <point x="453" y="161"/>
      <point x="453" y="363" type="curve"/>
      <point x="453" y="562"/>
      <point x="425" y="727"/>
      <point x="261" y="727" type="curve"/>
      <point x="93" y="727"/>
      <point x="60" y="561"/>
      <point x="60" y="360" type="curve"/>
      <point x="131" y="360"/>
      <point x="61" y="360"/>
    </contour>
  </outline>
</glyph>
<glyph name="one" format="1">
  <advance width="303"/>
  <unicode hex="0031"/>
  <outline>
    <contour>
      <point x="65" y="516" type="curve"/>
      <point x="205" y="687"/>
      <point x="65" y="516"/>
      <point x="205" y="687" type="curve"/>
      <point x="149" y="722"/>
      <point x="205" y="687"/>
      <point x="149" y="722" type="curve"/>
      <point x="18" y="560"/>
      <point x="149" y="722"/>
      <point x="18" y="560" type="curve"/>
      <point x="65" y="516"/>
      <point x="18" y="560"/>
    </contour>
    <contour>
      <point x="220" y="0" type="curve"/>
      <point x="220" y="241"/>
      <point x="220" y="481"/>
      <point x="220" y="722" type="curve"/>
      <point x="149" y="722"/>
      <point x="220" y="722"/>
      <point x="149" y="722" type="curve"/>
      <point x="149" y="481"/>
      <point x="149" y="241"/>
      <point x="149" y="0" type="curve"/>
      <point x="220" y="0"/>
      <point x="149" y="0"/>
    </contour>
  </outline>
</glyph>
<glyph name="two" format="1">
  <advance width="401"/>
  <unicode hex="0032"/>
  <outline>
    <contour>
      <point x="42" y="0" type="curve"/>
      <point x="164" y="0"/>
      <point x="263" y="0"/>
      <point x="350" y="0" type="curve"/>
      <point x="350" y="59"/>
      <point x="350" y="0"/>
      <point x="350" y="59" type="curve"/>
      <point x="252" y="59"/>
      <point x="141" y="59"/>
      <point x="42" y="59" type="curve"/>
      <point x="42" y="0"/>
      <point x="42" y="59"/>
    </contour>
    <contour>
      <point x="99" y="545" type="curve"/>
      <point x="122" y="607"/>
      <point x="138" y="666"/>
      <point x="199" y="666" type="curve"/>
      <point x="265" y="666"/>
      <point x="278" y="598"/>
      <point x="278" y="516" type="curve"/>
      <point x="278" y="410"/>
      <point x="221" y="313"/>
      <point x="182" y="255" type="curve"/>
      <point x="135" y="189"/>
      <point x="91" y="125"/>
      <point x="42" y="59" type="curve"/>
      <point x="48" y="0"/>
      <point x="42" y="59"/>
      <point x="48" y="0" type="curve"/>
      <point x="127" y="65"/>
      <point x="179" y="140"/>
      <point x="229" y="212" type="curve"/>
      <point x="283" y="285"/>
      <point x="349" y="393"/>
      <point x="349" y="519" type="curve"/>
      <point x="349" y="639"/>
      <point x="309" y="727"/>
      <point x="202" y="727" type="curve"/>
      <point x="116" y="727"/>
      <point x="72" y="659"/>
      <point x="45" y="574" type="curve"/>
      <point x="99" y="545"/>
      <point x="45" y="574"/>
    </contour>
  </outline>
</glyph>
<glyph name="three" format="1">
  <advance width="406"/>
  <unicode hex="0033"/>
  <outline>
    <contour>
      <point x="47" y="58" type="curve"/>
      <point x="89" y="20"/>
      <point x="121" y="-5"/>
      <point x="175" y="-5" type="curve"/>
      <point x="292" y="-5"/>
      <point x="348" y="76"/>
      <point x="348" y="200" type="curve"/>
      <point x="348" y="319"/>
      <point x="259" y="397"/>
      <point x="121" y="397" type="curve"/>
      <point x="121" y="355"/>
      <point x="121" y="389"/>
      <point x="121" y="347" type="curve"/>
      <point x="219" y="347"/>
      <point x="277" y="285"/>
      <point x="277" y="197" type="curve"/>
      <point x="277" y="118"/>
      <point x="243" y="56"/>
      <point x="178" y="56" type="curve"/>
      <point x="139" y="56"/>
      <point x="116" y="74"/>
      <point x="88" y="101" type="curve"/>
      <point x="47" y="58"/>
      <point x="88" y="101"/>
    </contour>
    <contour>
      <point x="98" y="601" type="curve"/>
      <point x="110" y="628"/>
      <point x="135" y="666"/>
      <point x="174" y="666" type="curve"/>
      <point x="235" y="666"/>
      <point x="257" y="611"/>
      <point x="257" y="539" type="curve"/>
      <point x="257" y="462"/>
      <point x="205" y="408"/>
      <point x="121" y="408" type="curve"/>
      <point x="121" y="366"/>
      <point x="121" y="400"/>
      <point x="121" y="358" type="curve"/>
      <point x="244" y="358"/>
      <point x="327" y="429"/>
      <point x="327" y="541" type="curve"/>
      <point x="327" y="650"/>
      <point x="280" y="727"/>
      <point x="181" y="727" type="curve"/>
      <point x="119" y="727"/>
      <point x="71" y="681"/>
      <point x="49" y="636" type="curve"/>
      <point x="98" y="601"/>
      <point x="49" y="636"/>
    </contour>
  </outline>
</glyph>
<glyph name="four" format="1">
  <advance width="418"/>
  <unicode hex="0034"/>
  <outline>
    <contour>
      <point x="56" y="267" type="line"/>
      <point x="286" y="715" type="line"/>
      <point x="222" y="711" type="line"/>
      <point x="20" y="312" type="line"/>
    </contour>
    <contour>
      <point x="380" y="312" type="line"/>
      <point x="20" y="312" type="line"/>
      <point x="21" y="249" type="line"/>
      <point x="380" y="249" type="line"/>
    </contour>
    <contour>
      <point x="295" y="0" type="line"/>
      <point x="295" y="711" type="line"/>
      <point x="223" y="711" type="line"/>
      <point x="223" y="0" type="line"/>
    </contour>
  </outline>
</glyph>
<glyph name="five" format="1">
  <advance width="395"/>
  <unicode hex="0035"/>
  <outline>
    <contour>
      <point x="70" y="722" type="curve"/>
      <point x="70" y="621"/>
      <point x="70" y="518"/>
      <point x="70" y="395" type="curve"/>
      <point x="140" y="370"/>
      <point x="70" y="395"/>
      <point x="139" y="370" type="curve"/>
      <point x="139" y="467"/>
      <point x="139" y="567"/>
      <point x="139" y="663" type="curve"/>
      <point x="70" y="722"/>
      <point x="139" y="663"/>
    </contour>
    <contour>
      <point x="139" y="370" type="curve"/>
      <point x="148" y="380"/>
      <point x="167" y="393"/>
      <point x="189" y="393" type="curve"/>
      <point x="259" y="393"/>
      <point x="273" y="314"/>
      <point x="273" y="231" type="curve"/>
      <point x="273" y="143"/>
      <point x="250" y="56"/>
      <point x="178" y="56" type="curve"/>
      <point x="140" y="56"/>
      <point x="118" y="70"/>
      <point x="88" y="95" type="curve"/>
      <point x="49" y="44"/>
      <point x="88" y="95"/>
      <point x="49" y="44" type="curve"/>
      <point x="83" y="13"/>
      <point x="130" y="-5"/>
      <point x="182" y="-5" type="curve"/>
      <point x="291" y="-5"/>
      <point x="344" y="105"/>
      <point x="344" y="231" type="curve"/>
      <point x="344" y="351"/>
      <point x="304" y="455"/>
      <point x="200" y="455" type="curve"/>
      <point x="160" y="455"/>
      <point x="123" y="439"/>
      <point x="88" y="394" type="curve"/>
      <point x="141" y="375"/>
      <point x="86" y="389"/>
    </contour>
    <contour>
      <point x="323" y="722" type="curve"/>
      <point x="244" y="722"/>
      <point x="151" y="722"/>
      <point x="70" y="722" type="curve"/>
      <point x="139" y="663"/>
      <point x="70" y="722"/>
      <point x="139" y="663" type="curve"/>
      <point x="197" y="663"/>
      <point x="267" y="663"/>
      <point x="323" y="663" type="curve"/>
      <point x="323" y="722"/>
      <point x="323" y="663"/>
    </contour>
  </outline>
</glyph>
<glyph name="six" format="1">
  <advance width="438"/>
  <unicode hex="0036"/>
  <outline>
    <contour>
      <point x="117" y="220" type="curve"/>
      <point x="124" y="287"/>
      <point x="157" y="365"/>
      <point x="226" y="365" type="curve"/>
      <point x="298" y="365"/>
      <point x="314" y="296"/>
      <point x="314" y="212" type="curve"/>
      <point x="314" y="139"/>
      <point x="297" y="60"/>
      <point x="230" y="60" type="curve"/>
      <point x="147" y="60"/>
      <point x="127" y="148"/>
      <point x="127" y="249" type="curve"/>
      <point x="127" y="446"/>
      <point x="201" y="602"/>
      <point x="377" y="677" type="curve"/>
      <point x="355" y="731"/>
      <point x="377" y="677"/>
      <point x="355" y="731" type="curve"/>
      <point x="152" y="649"/>
      <point x="56" y="478"/>
      <point x="56" y="246" type="curve"/>
      <point x="56" y="104"/>
      <point x="103" y="-8"/>
      <point x="229" y="-8" type="curve"/>
      <point x="341" y="-8"/>
      <point x="388" y="89"/>
      <point x="388" y="213" type="curve"/>
      <point x="388" y="334"/>
      <point x="344" y="426"/>
      <point x="240" y="426" type="curve"/>
      <point x="135" y="426"/>
      <point x="84" y="321"/>
      <point x="81" y="236" type="curve"/>
      <point x="115" y="220"/>
      <point x="82" y="236"/>
    </contour>
  </outline>
</glyph>
<glyph name="eight" format="1">
  <advance width="436"/>
  <unicode hex="0038"/>
  <outline>
    <contour>
      <point x="72" y="553" type="curve"/>
      <point x="72" y="460"/>
      <point x="120" y="411"/>
      <point x="196" y="356" type="curve"/>
      <point x="263" y="306"/>
      <point x="304" y="257"/>
      <point x="304" y="179" type="curve"/>
      <point x="304" y="111"/>
      <point x="280" y="57"/>
      <point x="218" y="57" type="curve"/>
      <point x="154" y="57"/>
      <point x="131" y="110"/>
      <point x="131" y="179" type="curve"/>
      <point x="131" y="259"/>
      <point x="172" y="304"/>
      <point x="240" y="355" type="curve"/>
      <point x="314" y="411"/>
      <point x="363" y="460"/>
      <point x="363" y="551" type="curve"/>
      <point x="363" y="656"/>
      <point x="318" y="727"/>
      <point x="218" y="727" type="curve"/>
      <point x="120" y="727"/>
      <point x="72" y="655"/>
      <point x="72" y="553" type="curve"/>
      <point x="143" y="553"/>
      <point x="72" y="553"/>
      <point x="143" y="553" type="curve"/>
      <point x="143" y="613"/>
      <point x="160" y="666"/>
      <point x="216" y="666" type="curve"/>
      <point x="274" y="666"/>
      <point x="292" y="615"/>
      <point x="292" y="551" type="curve"/>
      <point x="292" y="484"/>
      <point x="254" y="442"/>
      <point x="196" y="399" type="curve"/>
      <point x="112" y="337"/>
      <point x="60" y="282"/>
      <point x="60" y="179" type="curve"/>
      <point x="60" y="70"/>
      <point x="110" y="-5"/>
      <point x="214" y="-5" type="curve"/>
      <point x="320" y="-5"/>
      <point x="375" y="68"/>
      <point x="375" y="179" type="curve"/>
      <point x="375" y="282"/>
      <point x="324" y="339"/>
      <point x="241" y="400" type="curve"/>
      <point x="182" y="444"/>
      <point x="143" y="483"/>
      <point x="143" y="553" type="curve"/>
      <point x="72" y="553"/>
      <point x="143" y="553"/>
    </contour>
  </outline>
</glyph>
<glyph name="nine" format="1">
  <advance width="436"/>
  <unicode hex="0039"/>
  <outline>
    <contour>
      <point x="325" y="481" type="curve"/>
      <point x="308" y="418"/>
      <point x="281" y="357"/>
      <point x="210" y="357" type="curve"/>
      <point x="139" y="357"/>
      <point x="119" y="429"/>
      <point x="119" y="513" type="curve"/>
      <point x="119" y="591"/>
      <point x="139" y="662"/>
      <point x="204" y="662" type="curve"/>
      <point x="289" y="662"/>
      <point x="309" y="573"/>
      <point x="309" y="473" type="curve"/>
      <point x="309" y="276"/>
      <point x="245" y="127"/>
      <point x="67" y="43" type="curve"/>
      <point x="98" y="-16"/>
      <point x="67" y="43"/>
      <point x="98" y="-16" type="curve"/>
      <point x="290" y="76"/>
      <point x="379" y="244"/>
      <point x="379" y="476" type="curve"/>
      <point x="379" y="618"/>
      <point x="334" y="730"/>
      <point x="206" y="730" type="curve"/>
      <point x="94" y="730"/>
      <point x="48" y="633"/>
      <point x="48" y="509" type="curve"/>
      <point x="48" y="388"/>
      <point x="94" y="296"/>
      <point x="204" y="296" type="curve"/>
      <point x="300" y="296"/>
      <point x="339" y="386"/>
      <point x="362" y="466" type="curve"/>
      <point x="325" y="481"/>
      <point x="362" y="466"/>
    </contour>
  </outline>
</glyph>
<glyph name="colon" format="1">
  <advance width="221"/>
  <unicode hex="003A"/>
  <outline>
    <contour>
      <point x="147" y="395" type="curve"/>
      <point x="147" y="422"/>
      <point x="131" y="435"/>
      <point x="107" y="435" type="curve"/>
      <point x="83" y="435"/>
      <point x="68" y="420"/>
      <point x="68" y="395" type="curve"/>
      <point x="149" y="395"/>
      <point x="66" y="395"/>
      <point x="147" y="395" type="curve"/>
      <point x="147" y="369"/>
      <point x="131" y="356"/>
      <point x="107" y="356" type="curve"/>
      <point x="82" y="356"/>
      <point x="68" y="369"/>
      <point x="68" y="395" type="curve"/>
      <point x="149" y="395"/>
      <point x="66" y="395"/>
    </contour>
    <contour>
      <point x="147" y="35" type="curve"/>
      <point x="147" y="62"/>
      <point x="131" y="75"/>
      <point x="107" y="75" type="curve"/>
      <point x="83" y="75"/>
      <point x="68" y="60"/>
      <point x="68" y="35" type="curve"/>
      <point x="150" y="35"/>
      <point x="66" y="35"/>
      <point x="147" y="35" type="curve"/>
      <point x="147" y="9"/>
      <point x="131" y="-4"/>
      <point x="107" y="-4" type="curve"/>
      <point x="82" y="-4"/>
      <point x="68" y="9"/>
      <point x="68" y="35" type="curve"/>
      <point x="150" y="35"/>
      <point x="66" y="35"/>
    </contour>
  </outline>
</glyph>
<glyph name="semicolon" format="1">
  <advance width="176"/>
  <unicode hex="003B"/>
  <outline>
    <contour>
      <point x="32" y="-155" type="line"/>
      <point x="88" y="-142"/>
      <point x="126" y="-98"/>
      <point x="126" y="-26" type="curve"/>
      <point x="126" y="23"/>
      <point x="110" y="51"/>
      <point x="79" y="51" type="curve"/>
      <point x="52" y="51"/>
      <point x="35" y="37"/>
      <point x="35" y="11" type="curve"/>
      <point x="35" y="-10"/>
      <point x="45" y="-27"/>
      <point x="69" y="-29" type="curve"/>
      <point x="69" y="-51"/>
      <point x="64" y="-95"/>
      <point x="22" y="-113" type="curve"/>
    </contour>
    <contour>
      <point x="119" y="406" type="curve"/>
      <point x="119" y="433"/>
      <point x="103" y="446"/>
      <point x="79" y="446" type="curve"/>
      <point x="55" y="446"/>
      <point x="40" y="431"/>
      <point x="40" y="406" type="curve"/>
      <point x="121" y="406"/>
      <point x="38" y="406"/>
      <point x="119" y="406" type="curve"/>
      <point x="119" y="380"/>
      <point x="103" y="367"/>
      <point x="79" y="367" type="curve"/>
      <point x="54" y="367"/>
      <point x="40" y="380"/>
      <point x="40" y="406" type="curve"/>
      <point x="121" y="406"/>
      <point x="38" y="406"/>
    </contour>
  </outline>
</glyph>
<glyph name="less" format="1">
  <advance width="476"/>
  <unicode hex="003C"/>
  <outline>
    <contour>
      <point x="417" y="602" type="curve"/>
      <point x="290" y="512"/>
      <point x="162" y="422"/>
      <point x="34" y="332" type="curve"/>
      <point x="34" y="268"/>
      <point x="34" y="332"/>
      <point x="34" y="268" type="curve"/>
      <point x="162" y="358"/>
      <point x="290" y="448"/>
      <point x="417" y="538" type="curve"/>
      <point x="417" y="602"/>
      <point x="417" y="538"/>
    </contour>
    <contour>
      <point x="424" y="68" type="curve"/>
      <point x="293" y="156"/>
      <point x="163" y="244"/>
      <point x="34" y="332" type="curve"/>
      <point x="34" y="268"/>
      <point x="34" y="332"/>
      <point x="34" y="268" type="curve"/>
      <point x="163" y="180"/>
      <point x="293" y="92"/>
      <point x="424" y="4" type="curve"/>
      <point x="424" y="68"/>
      <point x="424" y="4"/>
    </contour>
  </outline>
</glyph>
<glyph name="equal" format="1">
  <advance width="502"/>
  <unicode hex="003D"/>
  <outline>
    <contour>
      <point x="61" y="186" type="curve"/>
      <point x="192" y="186"/>
      <point x="324" y="186"/>
      <point x="456" y="186" type="curve"/>
      <point x="456" y="249"/>
      <point x="456" y="186"/>
      <point x="456" y="249" type="curve"/>
      <point x="324" y="249"/>
      <point x="192" y="249"/>
      <point x="61" y="249" type="curve"/>
      <point x="61" y="186"/>
      <point x="61" y="249"/>
    </contour>
    <contour>
      <point x="61" y="408" type="curve"/>
      <point x="192" y="408"/>
      <point x="324" y="408"/>
      <point x="456" y="408" type="curve"/>
      <point x="456" y="471"/>
      <point x="456" y="408"/>
      <point x="456" y="471" type="curve"/>
      <point x="324" y="471"/>
      <point x="192" y="471"/>
      <point x="61" y="471" type="curve"/>
      <point x="61" y="408"/>
      <point x="61" y="471"/>
    </contour>
  </outline>
</glyph>
<glyph name="greater" format="1">
  <advance width="476"/>
  <unicode hex="003E"/>
  <outline>
    <contour>
      <point x="58" y="4" type="curve"/>
      <point x="185" y="94"/>
      <point x="313" y="184"/>
      <point x="441" y="274" type="curve"/>
      <point x="441" y="338"/>
      <point x="441" y="274"/>
      <point x="441" y="338" type="curve"/>
      <point x="313" y="248"/>
      <point x="185" y="158"/>
      <point x="58" y="68" type="curve"/>
      <point x="58" y="4"/>
      <point x="58" y="68"/>
    </contour>
    <contour>
      <point x="51" y="538" type="curve"/>
      <point x="181" y="450"/>
      <point x="311" y="362"/>
      <point x="441" y="274" type="curve"/>
      <point x="441" y="338"/>
      <point x="441" y="274"/>
      <point x="441" y="338" type="curve"/>
      <point x="311" y="426"/>
      <point x="181" y="514"/>
      <point x="51" y="602" type="curve"/>
      <point x="51" y="538"/>
      <point x="51" y="602"/>
    </contour>
  </outline>
</glyph>
<glyph name="at" format="1">
  <advance width="603"/>
  <unicode hex="0040"/>
  <outline>
    <contour>
      <point x="397" y="-65" type="curve"/>
      <point x="370" y="-89"/>
      <point x="347" y="-98"/>
      <point x="311" y="-98" type="curve"/>
      <point x="171" y="-98"/>
      <point x="120" y="34"/>
      <point x="120" y="197" type="curve"/>
      <point x="120" y="354"/>
      <point x="169" y="484"/>
      <point x="305" y="484" type="curve"/>
      <point x="434" y="484"/>
      <point x="481" y="358"/>
      <point x="481" y="209" type="curve"/>
      <point x="481" y="139"/>
      <point x="484" y="75"/>
      <point x="451" y="75" type="curve"/>
      <point x="414" y="75"/>
      <point x="419" y="135"/>
      <point x="419" y="201" type="curve"/>
      <point x="419" y="302"/>
      <point x="389" y="383"/>
      <point x="300" y="383" type="curve"/>
      <point x="206" y="383"/>
      <point x="178" y="304"/>
      <point x="178" y="200" type="curve"/>
      <point x="178" y="92"/>
      <point x="200" y="8"/>
      <point x="295" y="8" type="curve"/>
      <point x="382" y="8"/>
      <point x="401" y="89"/>
      <point x="409" y="187" type="curve"/>
      <point x="363" y="197"/>
      <point x="409" y="187"/>
      <point x="363" y="197" type="curve"/>
      <point x="354" y="135"/>
      <point x="355" y="67"/>
      <point x="302" y="67" type="curve"/>
      <point x="246" y="67"/>
      <point x="242" y="130"/>
      <point x="242" y="203" type="curve"/>
      <point x="242" y="268"/>
      <point x="245" y="324"/>
      <point x="297" y="324" type="curve"/>
      <point x="353" y="324"/>
      <point x="353" y="265"/>
      <point x="353" y="198" type="curve"/>
      <point x="353" y="102"/>
      <point x="362" y="20"/>
      <point x="446" y="20" type="curve"/>
      <point x="534" y="20"/>
      <point x="544" y="106"/>
      <point x="544" y="212" type="curve"/>
      <point x="544" y="400"/>
      <point x="478" y="545"/>
      <point x="307" y="545" type="curve"/>
      <point x="126" y="545"/>
      <point x="54" y="394"/>
      <point x="54" y="194" type="curve"/>
      <point x="54" y="-5"/>
      <point x="129" y="-157"/>
      <point x="308" y="-157" type="curve"/>
      <point x="358" y="-157"/>
      <point x="386" y="-148"/>
      <point x="426" y="-116" type="curve"/>
      <point x="397" y="-65"/>
      <point x="426" y="-116"/>
    </contour>
  </outline>
</glyph>
<glyph name="B" format="1">
  <advance width="478"/>
  <unicode hex="0042"/>
  <outline>
    <contour>
      <point x="132" y="663" type="curve"/>
      <point x="171" y="663"/>
      <point x="192" y="663"/>
      <point x="231" y="663" type="curve"/>
      <point x="297" y="663"/>
      <point x="324" y="614"/>
      <point x="324" y="548" type="curve"/>
      <point x="324" y="485"/>
      <point x="303" y="437"/>
      <point x="244" y="437" type="curve"/>
      <point x="200" y="437"/>
      <point x="176" y="437"/>
      <point x="132" y="437" type="curve"/>
      <point x="132" y="420"/>
      <point x="132" y="394"/>
      <point x="132" y="378" type="curve"/>
      <point x="166" y="378"/>
      <point x="187" y="378"/>
      <point x="221" y="378" type="curve"/>
      <point x="322" y="378"/>
      <point x="396" y="437"/>
      <point x="396" y="545" type="curve"/>
      <point x="396" y="652"/>
      <point x="340" y="722"/>
      <point x="236" y="722" type="curve"/>
      <point x="195" y="722"/>
      <point x="173" y="722"/>
      <point x="132" y="722" type="curve"/>
      <point x="132" y="706"/>
      <point x="132" y="680"/>
    </contour>
    <contour>
      <point x="178" y="0" type="curve"/>
      <point x="178" y="241"/>
      <point x="178" y="481"/>
      <point x="178" y="722" type="curve"/>
      <point x="101" y="722"/>
      <point x="178" y="722"/>
      <point x="101" y="722" type="curve"/>
      <point x="101" y="481"/>
      <point x="102" y="241"/>
      <point x="101" y="0" type="curve"/>
      <point x="178" y="0"/>
      <point x="101" y="0"/>
    </contour>
    <contour>
      <point x="132" y="378" type="curve"/>
      <point x="176" y="378"/>
      <point x="200" y="378"/>
      <point x="244" y="378" type="curve"/>
      <point x="328" y="378"/>
      <point x="354" y="305"/>
      <point x="354" y="214" type="curve"/>
      <point x="354" y="125"/>
      <point x="318" y="59"/>
      <point x="234" y="59" type="curve"/>
      <point x="194" y="59"/>
      <point x="173" y="59"/>
      <point x="132" y="59" type="curve"/>
      <point x="132" y="42"/>
      <point x="132" y="16"/>
      <point x="132" y="0" type="curve"/>
      <point x="175" y="0"/>
      <point x="196" y="0"/>
      <point x="239" y="0" type="curve"/>
      <point x="361" y="0"/>
      <point x="426" y="85"/>
      <point x="426" y="212" type="curve"/>
      <point x="426" y="348"/>
      <point x="353" y="437"/>
      <point x="222" y="437" type="curve"/>
      <point x="188" y="437"/>
      <point x="166" y="437"/>
      <point x="132" y="437" type="curve"/>
      <point x="132" y="420"/>
      <point x="132" y="394"/>
    </contour>
  </outline>
</glyph>
<glyph name="D" format="1">
  <advance width="550"/>
  <unicode hex="0044"/>
  <outline>
    <contour>
      <point x="101" y="722" type="curve"/>
      <point x="101" y="481"/>
      <point x="101" y="241"/>
      <point x="101" y="0" type="curve"/>
      <point x="174" y="0"/>
      <point x="101" y="0"/>
      <point x="174" y="0" type="curve"/>
      <point x="174" y="241"/>
      <point x="174" y="481"/>
      <point x="174" y="722" type="curve"/>
      <point x="101" y="722"/>
      <point x="174" y="722"/>
    </contour>
    <contour>
      <point x="139" y="0" type="curve"/>
      <point x="179" y="0"/>
      <point x="207" y="0"/>
      <point x="248" y="0" type="curve"/>
      <point x="429" y="0"/>
      <point x="492" y="152"/>
      <point x="492" y="356" type="curve"/>
      <point x="492" y="565"/>
      <point x="429" y="722"/>
      <point x="243" y="722" type="curve"/>
      <point x="205" y="722"/>
      <point x="177" y="722"/>
      <point x="139" y="722" type="curve"/>
      <point x="139" y="673"/>
      <point x="139" y="713"/>
      <point x="139" y="663" type="curve"/>
      <point x="176" y="663"/>
      <point x="203" y="663"/>
      <point x="240" y="663" type="curve"/>
      <point x="386" y="663"/>
      <point x="419" y="526"/>
      <point x="419" y="354" type="curve"/>
      <point x="419" y="192"/>
      <point x="391" y="59"/>
      <point x="254" y="59" type="curve"/>
      <point x="212" y="59"/>
      <point x="181" y="59"/>
      <point x="139" y="59" type="curve"/>
      <point x="139" y="9"/>
      <point x="139" y="49"/>
    </contour>
    <contour>
      <point x="222" y="805" type="move" name="top"/>
    </contour>
  </outline>
</glyph>
<glyph name="F" format="1">
  <advance width="410"/>
  <unicode hex="0046"/>
  <outline>
    <contour>
      <point x="140" y="344" type="curve"/>
      <point x="207" y="344"/>
      <point x="275" y="344"/>
      <point x="342" y="344" type="curve"/>
      <point x="342" y="403"/>
      <point x="342" y="344"/>
      <point x="342" y="403" type="curve"/>
      <point x="275" y="403"/>
      <point x="207" y="403"/>
      <point x="140" y="403" type="curve"/>
      <point x="140" y="344"/>
      <point x="140" y="403"/>
    </contour>
    <contour>
      <point x="174" y="0" type="curve"/>
      <point x="174" y="722" type="line"/>
      <point x="101" y="722"/>
      <point x="174" y="722"/>
      <point x="101" y="722" type="curve"/>
      <point x="101" y="481"/>
      <point x="101" y="241"/>
      <point x="101" y="0" type="curve"/>
      <point x="174" y="0"/>
      <point x="101" y="0"/>
    </contour>
    <contour>
      <point x="130" y="663" type="curve"/>
      <point x="216" y="663"/>
      <point x="302" y="663"/>
      <point x="388" y="663" type="curve"/>
      <point x="388" y="722"/>
      <point x="388" y="663"/>
      <point x="388" y="722" type="curve"/>
      <point x="302" y="722"/>
      <point x="216" y="722"/>
      <point x="130" y="722" type="curve"/>
      <point x="130" y="663"/>
      <point x="130" y="722"/>
    </contour>
  </outline>
</glyph>
<glyph name="G" format="1">
  <advance width="554"/>
  <unicode hex="0047"/>
  <outline>
    <contour>
      <point x="472" y="340" type="curve"/>
      <point x="426" y="340"/>
      <point x="380" y="340"/>
      <point x="334" y="340" type="curve"/>
      <point x="334" y="282"/>
      <point x="334" y="340"/>
      <point x="334" y="282" type="curve"/>
      <point x="380" y="282"/>
      <point x="426" y="282"/>
      <point x="472" y="282" type="curve"/>
      <point x="472" y="340"/>
      <point x="472" y="282"/>
    </contour>
    <contour>
      <point x="492" y="78" type="curve"/>
      <point x="492" y="165"/>
      <point x="492" y="253"/>
      <point x="492" y="340" type="curve"/>
      <point x="426" y="340"/>
      <point x="492" y="340"/>
      <point x="426" y="340" type="curve"/>
      <point x="426" y="253"/>
      <point x="426" y="165"/>
      <point x="426" y="78" type="curve"/>
      <point x="492" y="78"/>
      <point x="426" y="78"/>
    </contour>
    <contour>
      <point x="482" y="643" type="curve"/>
      <point x="426" y="698"/>
      <point x="369" y="727"/>
      <point x="292" y="727" type="curve"/>
      <point x="114" y="727"/>
      <point x="56" y="568"/>
      <point x="56" y="363" type="curve"/>
      <point x="56" y="154"/>
      <point x="118" y="-5"/>
      <point x="299" y="-5" type="curve"/>
      <point x="381" y="-5"/>
      <point x="430" y="24"/>
      <point x="492" y="78" type="curve"/>
      <point x="454" y="124"/>
      <point x="492" y="78"/>
      <point x="454" y="124" type="curve"/>
      <point x="415" y="86"/>
      <point x="364" y="57"/>
      <point x="299" y="57" type="curve"/>
      <point x="157" y="57"/>
      <point x="130" y="198"/>
      <point x="130" y="369" type="curve"/>
      <point x="130" y="529"/>
      <point x="158" y="665"/>
      <point x="292" y="665" type="curve"/>
      <point x="354" y="665"/>
      <point x="400" y="638"/>
      <point x="444" y="594" type="curve"/>
      <point x="482" y="643"/>
      <point x="444" y="594"/>
    </contour>
    <contour>
      <point x="289" y="806" type="move" name="top"/>
    </contour>
    <contour>
      <point x="313" y="-55" type="move" name="bottom"/>
    </contour>
  </outline>
</glyph>
<glyph name="H" format="1">
  <advance width="588"/>
  <unicode hex="0048"/>
  <outline>
    <contour>
      <point x="174" y="0" type="curve"/>
      <point x="174" y="722" type="line"/>
      <point x="101" y="722"/>
      <point x="174" y="722"/>
      <point x="101" y="722" type="curve"/>
      <point x="101" y="481"/>
      <point x="101" y="241"/>
      <point x="101" y="0" type="curve"/>
      <point x="174" y="0"/>
      <point x="101" y="0"/>
    </contour>
    <contour>
      <point x="450" y="392" type="curve"/>
      <point x="345" y="392"/>
      <point x="241" y="392"/>
      <point x="137" y="392" type="curve"/>
      <point x="137" y="333"/>
      <point x="137" y="392"/>
      <point x="137" y="333" type="curve"/>
      <point x="241" y="333"/>
      <point x="345" y="333"/>
      <point x="450" y="333" type="curve"/>
      <point x="450" y="392"/>
      <point x="450" y="333"/>
    </contour>
    <contour>
      <point x="487" y="1" type="curve"/>
      <point x="487" y="228"/>
      <point x="487" y="494"/>
      <point x="487" y="721" type="curve"/>
      <point x="414" y="721"/>
      <point x="487" y="721"/>
      <point x="414" y="721" type="curve"/>
      <point x="414" y="1" type="line"/>
      <point x="487" y="1"/>
      <point x="414" y="1"/>
    </contour>
  </outline>
</glyph>
<glyph name="J" format="1">
  <advance width="337"/>
  <unicode hex="004A"/>
  <outline>
    <contour>
      <point x="8" y="41" type="curve"/>
      <point x="32" y="17"/>
      <point x="60" y="-5"/>
      <point x="101" y="-5" type="curve"/>
      <point x="213" y="-5"/>
      <point x="242" y="85"/>
      <point x="242" y="227" type="curve"/>
      <point x="242" y="406"/>
      <point x="242" y="542"/>
      <point x="242" y="722" type="curve"/>
      <point x="180" y="722"/>
      <point x="232" y="722"/>
      <point x="170" y="722" type="curve"/>
      <point x="170" y="542"/>
      <point x="170" y="406"/>
      <point x="170" y="227" type="curve"/>
      <point x="170" y="136"/>
      <point x="174" y="55"/>
      <point x="101" y="55" type="curve"/>
      <point x="74" y="55"/>
      <point x="59" y="71"/>
      <point x="43" y="87" type="curve"/>
      <point x="14" y="48"/>
      <point x="38" y="80"/>
    </contour>
  </outline>
</glyph>
<glyph name="K" format="1">
  <advance width="480"/>
  <unicode hex="004B"/>
  <outline>
    <contour>
      <point x="378" y="722" type="curve"/>
      <point x="161" y="380" type="line"/>
      <point x="241" y="380"/>
      <point x="166" y="380"/>
      <point x="245" y="380" type="curve"/>
      <point x="461" y="722" type="line"/>
      <point x="407" y="722"/>
      <point x="432" y="722"/>
    </contour>
    <contour>
      <point x="174" y="0" type="curve"/>
      <point x="174" y="722" type="line"/>
      <point x="101" y="722"/>
      <point x="174" y="722"/>
      <point x="101" y="722" type="curve"/>
      <point x="101" y="481"/>
      <point x="101" y="241"/>
      <point x="101" y="0" type="curve"/>
      <point x="174" y="0"/>
      <point x="101" y="0"/>
    </contour>
    <contour>
      <point x="474" y="0" type="curve"/>
      <point x="245" y="380" type="line"/>
      <point x="166" y="380"/>
      <point x="241" y="380"/>
      <point x="161" y="380" type="curve"/>
      <point x="392" y="0" type="line"/>
      <point x="452" y="0"/>
      <point x="415" y="0"/>
    </contour>
    <contour>
      <point x="283" y="-54" type="move" name="bottom"/>
    </contour>
  </outline>
</glyph>
<glyph name="L" format="1">
  <advance width="414"/>
  <unicode hex="004C"/>
  <outline>
    <contour>
      <point x="174" y="0" type="curve"/>
      <point x="174" y="241"/>
      <point x="174" y="481"/>
      <point x="174" y="722" type="curve"/>
      <point x="101" y="722"/>
      <point x="174" y="722"/>
      <point x="101" y="722" type="curve"/>
      <point x="101" y="481"/>
      <point x="101" y="241"/>
      <point x="101" y="0" type="curve"/>
      <point x="174" y="0"/>
      <point x="101" y="0"/>
    </contour>
    <contour>
      <point x="137" y="0" type="curve"/>
      <point x="226" y="0"/>
      <point x="314" y="0"/>
      <point x="403" y="0" type="curve"/>
      <point x="403" y="59"/>
      <point x="403" y="0"/>
      <point x="403" y="59" type="curve"/>
      <point x="314" y="59"/>
      <point x="226" y="59"/>
      <point x="137" y="59" type="curve"/>
      <point x="137" y="0"/>
      <point x="137" y="59"/>
    </contour>
    <contour>
      <point x="138" y="806" type="move" name="top"/>
    </contour>
    <contour>
      <point x="246" y="-52" type="move" name="bottom"/>
    </contour>
  </outline>
</glyph>
<glyph name="M" format="1">
  <advance width="646"/>
  <unicode hex="004D"/>
  <outline>
    <contour>
      <point x="578" y="0" type="curve"/>
      <point x="564" y="241"/>
      <point x="549" y="481"/>
      <point x="536" y="722" type="curve"/>
      <point x="470" y="722"/>
      <point x="536" y="722"/>
      <point x="470" y="722" type="curve"/>
      <point x="482" y="481"/>
      <point x="492" y="241"/>
      <point x="505" y="0" type="curve"/>
      <point x="578" y="0"/>
      <point x="505" y="0"/>
    </contour>
    <contour>
      <point x="135" y="0" type="curve"/>
      <point x="146" y="241"/>
      <point x="158" y="481"/>
      <point x="170" y="722" type="curve"/>
      <point x="109" y="722"/>
      <point x="170" y="722"/>
      <point x="109" y="722" type="curve"/>
      <point x="96" y="481"/>
      <point x="84" y="241"/>
      <point x="71" y="0" type="curve"/>
      <point x="135" y="0"/>
      <point x="71" y="0"/>
    </contour>
    <contour>
      <point x="348" y="0" type="curve"/>
      <point x="289" y="241"/>
      <point x="230" y="481"/>
      <point x="171" y="722" type="curve"/>
      <point x="110" y="722"/>
      <point x="171" y="722"/>
      <point x="110" y="722" type="curve"/>
      <point x="169" y="481"/>
      <point x="228" y="241"/>
      <point x="286" y="0" type="curve"/>
      <point x="349" y="0"/>
      <point x="286" y="0"/>
    </contour>
    <contour>
      <point x="355" y="0" type="curve"/>
      <point x="413" y="241"/>
      <point x="470" y="481"/>
      <point x="528" y="722" type="curve"/>
      <point x="467" y="722"/>
      <point x="528" y="722"/>
      <point x="467" y="722" type="curve"/>
      <point x="409" y="481"/>
      <point x="350" y="241"/>
      <point x="292" y="0" type="curve"/>
      <point x="355" y="0"/>
      <point x="292" y="0"/>
    </contour>
  </outline>
</glyph>
<glyph name="P" format="1">
  <advance width="446"/>
  <unicode hex="0050"/>
  <outline>
    <contour>
      <point x="128" y="314" type="curve"/>
      <point x="162" y="287"/>
      <point x="200" y="269"/>
      <point x="247" y="269" type="curve"/>
      <point x="352" y="271"/>
      <point x="402" y="359"/>
      <point x="402" y="486" type="curve"/>
      <point x="402" y="616"/>
      <point x="344" y="722"/>
      <point x="225" y="722" type="curve"/>
      <point x="196" y="722"/>
      <point x="168" y="722"/>
      <point x="140" y="722" type="curve"/>
      <point x="140" y="663"/>
      <point x="140" y="722"/>
      <point x="140" y="663" type="curve"/>
      <point x="165" y="663"/>
      <point x="190" y="663"/>
      <point x="215" y="663" type="curve"/>
      <point x="298" y="663"/>
      <point x="330" y="581"/>
      <point x="330" y="487" type="curve"/>
      <point x="330" y="402"/>
      <point x="309" y="326"/>
      <point x="239" y="326" type="curve"/>
      <point x="202" y="326"/>
      <point x="180" y="341"/>
      <point x="151" y="364" type="curve"/>
      <point x="128" y="316"/>
      <point x="151" y="363"/>
    </contour>
    <contour>
      <point x="174" y="0" type="curve"/>
      <point x="174" y="241"/>
      <point x="174" y="481"/>
      <point x="174" y="722" type="curve"/>
      <point x="101" y="722"/>
      <point x="174" y="722"/>
      <point x="101" y="722" type="curve"/>
      <point x="101" y="481"/>
      <point x="101" y="241"/>
      <point x="101" y="0" type="curve"/>
      <point x="174" y="0"/>
      <point x="101" y="0"/>
    </contour>
  </outline>
</glyph>
<glyph name="Q" format="1">
  <advance width="582"/>
  <unicode hex="0051"/>
  <outline>
    <contour>
      <point x="251" y="14" type="curve"/>
      <point x="305" y="-141"/>
      <point x="383" y="-228"/>
      <point x="533" y="-228" type="curve"/>
      <point x="533" y="-166"/>
      <point x="533" y="-228"/>
      <point x="533" y="-166" type="curve"/>
      <point x="412" y="-166"/>
      <point x="357" y="-84"/>
      <point x="314" y="43" type="curve"/>
      <point x="251" y="14"/>
      <point x="314" y="43"/>
    </contour>
    <contour>
      <point x="130" y="360" type="curve"/>
      <point x="130" y="518"/>
      <point x="143" y="663"/>
      <point x="274" y="663" type="curve"/>
      <point x="405" y="663"/>
      <point x="423" y="519"/>
      <point x="423" y="362" type="curve"/>
      <point x="423" y="204"/>
      <point x="411" y="57"/>
      <point x="280" y="57" type="curve"/>
      <point x="146" y="57"/>
      <point x="130" y="201"/>
      <point x="130" y="360" type="curve"/>
      <point x="57" y="360"/>
      <point x="130" y="360"/>
      <point x="57" y="360" type="curve"/>
      <point x="57" y="162"/>
      <point x="106" y="-5"/>
      <point x="276" y="-5" type="curve"/>
      <point x="449" y="-5"/>
      <point x="496" y="165"/>
      <point x="496" y="365" type="curve"/>
      <point x="496" y="561"/>
      <point x="450" y="729"/>
      <point x="280" y="729" type="curve"/>
      <point x="107" y="729"/>
      <point x="57" y="559"/>
      <point x="57" y="360" type="curve"/>
      <point x="130" y="360"/>
      <point x="57" y="360"/>
    </contour>
  </outline>
</glyph>
<glyph name="S" format="1">
  <advance width="399"/>
  <unicode hex="0053"/>
  <outline>
    <contour>
      <point x="46" y="56" type="curve"/>
      <point x="81" y="20"/>
      <point x="124" y="-5"/>
      <point x="182" y="-5" type="curve"/>
      <point x="288" y="-5"/>
      <point x="354" y="69"/>
      <point x="354" y="179" type="curve"/>
      <point x="354" y="281"/>
      <point x="302" y="342"/>
      <point x="219" y="401" type="curve"/>
      <point x="160" y="444"/>
      <point x="121" y="488"/>
      <point x="121" y="553" type="curve"/>
      <point x="120" y="613"/>
      <point x="143" y="665"/>
      <point x="194" y="665" type="curve"/>
      <point x="234" y="665"/>
      <point x="271" y="637"/>
      <point x="288" y="615" type="curve"/>
      <point x="318" y="655"/>
      <point x="293" y="623"/>
      <point x="322" y="662" type="curve"/>
      <point x="287" y="700"/>
      <point x="250" y="722"/>
      <point x="196" y="722" type="curve"/>
      <point x="100" y="722"/>
      <point x="48" y="651"/>
      <point x="48" y="550" type="curve"/>
      <point x="48" y="457"/>
      <point x="97" y="400"/>
      <point x="173" y="347" type="curve"/>
      <point x="238" y="300"/>
      <point x="281" y="251"/>
      <point x="281" y="180" type="curve"/>
      <point x="281" y="118"/>
      <point x="244" y="56"/>
      <point x="186" y="56" type="curve"/>
      <point x="141" y="56"/>
      <point x="113" y="84"/>
      <point x="87" y="111" type="curve"/>
      <point x="51" y="64"/>
      <point x="81" y="103"/>
    </contour>
    <contour>
      <point x="198" y="806" type="move" name="top"/>
    </contour>
    <contour>
      <point x="209" y="-51" type="move" name="bottom"/>
    </contour>
  </outline>
</glyph>
<glyph name="T" format="1">
  <advance width="412"/>
  <unicode hex="0054"/>
  <outline>
    <contour>
      <point x="243" y="0" type="curve"/>
      <point x="243" y="237"/>
      <point x="243" y="473"/>
      <point x="243" y="710" type="curve"/>
      <point x="170" y="710"/>
      <point x="243" y="710"/>
      <point x="170" y="710" type="curve"/>
      <point x="169" y="473"/>
      <point x="170" y="237"/>
      <point x="170" y="0" type="curve"/>
      <point x="243" y="0"/>
      <point x="170" y="0"/>
    </contour>
    <contour>
      <point x="11" y="659" type="curve"/>
      <point x="141" y="659"/>
      <point x="272" y="659"/>
      <point x="401" y="659" type="curve"/>
      <point x="401" y="724"/>
      <point x="401" y="657"/>
      <point x="401" y="722" type="curve"/>
      <point x="272" y="722"/>
      <point x="141" y="722"/>
      <point x="11" y="722" type="curve"/>
      <point x="11" y="657"/>
      <point x="11" y="724"/>
    </contour>
    <contour>
      <point x="206" y="806" type="move" name="top"/>
    </contour>
    <contour>
      <point x="233" y="-53" type="move" name="bottom"/>
    </contour>
  </outline>
</glyph>
<glyph name="V" format="1">
  <advance width="454"/>
  <unicode hex="0056"/>
  <outline>
    <contour>
      <point x="367" y="722" type="curve"/>
      <point x="310" y="481"/>
      <point x="255" y="241"/>
      <point x="199" y="0" type="curve"/>
      <point x="275" y="0"/>
      <point x="192" y="0"/>
      <point x="267" y="0" type="curve"/>
      <point x="326" y="241"/>
      <point x="383" y="481"/>
      <point x="442" y="722" type="curve"/>
      <point x="367" y="722"/>
      <point x="442" y="722"/>
    </contour>
    <contour>
      <point x="10" y="722" type="curve"/>
      <point x="69" y="481"/>
      <point x="129" y="241"/>
      <point x="188" y="0" type="curve"/>
      <point x="264" y="0"/>
      <point x="181" y="0"/>
      <point x="257" y="0" type="curve"/>
      <point x="201" y="241"/>
      <point x="144" y="481"/>
      <point x="86" y="722" type="curve"/>
      <point x="10" y="722"/>
      <point x="86" y="722"/>
    </contour>
  </outline>
</glyph>
<glyph name="W" format="1">
  <advance width="595"/>
  <unicode hex="0057"/>
  <outline>
    <contour>
      <point x="205" y="0" type="curve"/>
      <point x="247" y="241"/>
      <point x="289" y="481"/>
      <point x="331" y="722" type="curve"/>
      <point x="270" y="722"/>
      <point x="332" y="722"/>
      <point x="270" y="722" type="curve"/>
      <point x="231" y="482"/>
      <point x="191" y="242"/>
      <point x="152" y="0" type="curve"/>
      <point x="208" y="0"/>
      <point x="148" y="0"/>
    </contour>
    <contour>
      <point x="275" y="722" type="curve"/>
      <point x="313" y="481"/>
      <point x="351" y="241"/>
      <point x="390" y="0" type="curve"/>
      <point x="447" y="0"/>
      <point x="384" y="0"/>
      <point x="441" y="0" type="curve"/>
      <point x="405" y="243"/>
      <point x="371" y="481"/>
      <point x="336" y="722" type="curve"/>
      <point x="275" y="722"/>
      <point x="336" y="722"/>
    </contour>
    <contour>
      <point x="28" y="722" type="curve"/>
      <point x="67" y="481"/>
      <point x="106" y="241"/>
      <point x="144" y="0" type="curve"/>
      <point x="201" y="0"/>
      <point x="145" y="0"/>
      <point x="202" y="0" type="curve"/>
      <point x="165" y="241"/>
      <point x="128" y="481"/>
      <point x="92" y="722" type="curve"/>
      <point x="28" y="722"/>
      <point x="92" y="722"/>
    </contour>
    <contour>
      <point x="508" y="722" type="curve"/>
      <point x="469" y="481"/>
      <point x="430" y="241"/>
      <point x="392" y="0" type="curve"/>
      <point x="449" y="0"/>
      <point x="393" y="0"/>
      <point x="450" y="0" type="curve"/>
      <point x="491" y="241"/>
      <point x="531" y="481"/>
      <point x="571" y="722" type="curve"/>
      <point x="508" y="722"/>
      <point x="571" y="722"/>
    </contour>
  </outline>
</glyph>
<glyph name="X" format="1">
  <advance width="412"/>
  <unicode hex="0058"/>
  <outline>
    <contour>
      <point x="320" y="722" type="curve"/>
      <point x="213" y="480"/>
      <point x="111" y="242"/>
      <point x="5" y="0" type="curve"/>
      <point x="81" y="0"/>
      <point x="2" y="0"/>
      <point x="77" y="0" type="curve"/>
      <point x="183" y="242"/>
      <point x="285" y="480"/>
      <point x="390" y="722" type="curve"/>
      <point x="317" y="722"/>
      <point x="392" y="722"/>
    </contour>
    <contour>
      <point x="22" y="722" type="curve"/>
      <point x="126" y="480"/>
      <point x="228" y="242"/>
      <point x="332" y="0" type="curve"/>
      <point x="406" y="0"/>
      <point x="330" y="0"/>
      <point x="404" y="0" type="curve"/>
      <point x="300" y="242"/>
      <point x="197" y="480"/>
      <point x="93" y="722" type="curve"/>
      <point x="20" y="722"/>
      <point x="95" y="722"/>
    </contour>
  </outline>
</glyph>
<glyph name="Y" format="1">
  <advance width="404"/>
  <unicode hex="0059"/>
  <outline>
    <contour>
      <point x="18" y="722" type="curve"/>
      <point x="69" y="593"/>
      <point x="114" y="468"/>
      <point x="163" y="337" type="curve"/>
      <point x="238" y="337"/>
      <point x="152" y="337"/>
      <point x="227" y="337" type="curve"/>
      <point x="183" y="467"/>
      <point x="139" y="592"/>
      <point x="92" y="722" type="curve"/>
      <point x="15" y="722"/>
      <point x="96" y="722"/>
    </contour>
    <contour>
      <point x="322" y="722" type="curve"/>
      <point x="272" y="591"/>
      <point x="226" y="467"/>
      <point x="174" y="337" type="curve"/>
      <point x="249" y="337"/>
      <point x="168" y="337"/>
      <point x="243" y="337" type="curve"/>
      <point x="296" y="467"/>
      <point x="344" y="593"/>
      <point x="397" y="722" type="curve"/>
      <point x="320" y="722"/>
      <point x="399" y="722"/>
    </contour>
    <contour>
      <point x="243" y="0" type="curve"/>
      <point x="243" y="115"/>
      <point x="243" y="227"/>
      <point x="243" y="342" type="curve"/>
      <point x="164" y="342"/>
      <point x="243" y="342"/>
      <point x="164" y="342" type="curve"/>
      <point x="164" y="227"/>
      <point x="164" y="115"/>
      <point x="164" y="0" type="curve"/>
      <point x="243" y="0"/>
      <point x="164" y="0"/>
    </contour>
    <contour>
      <point x="207" y="806" type="move" name="top"/>
    </contour>
  </outline>
</glyph>
<glyph name="bracketleft" format="1">
  <advance width="239"/>
  <unicode hex="005B"/>
  <outline>
    <contour>
      <point x="207" y="770" type="curve"/>
      <point x="175" y="770"/>
      <point x="143" y="770"/>
      <point x="111" y="770" type="curve"/>
      <point x="103" y="770"/>
      <point x="86" y="770"/>
      <point x="79" y="770" type="curve"/>
      <point x="79" y="762"/>
      <point x="79" y="752"/>
      <point x="79" y="744" type="curve"/>
      <point x="79" y="464"/>
      <point x="79" y="185"/>
      <point x="79" y="-95" type="curve"/>
      <point x="79" y="-103"/>
      <point x="79" y="-108"/>
      <point x="79" y="-119" type="curve"/>
      <point x="86" y="-119"/>
      <point x="103" y="-119"/>
      <point x="110" y="-119" type="curve"/>
      <point x="142" y="-119"/>
      <point x="175" y="-119"/>
      <point x="207" y="-119" type="curve"/>
      <point x="207" y="-55"/>
      <point x="207" y="-119"/>
      <point x="207" y="-55" type="curve"/>
      <point x="175" y="-55"/>
      <point x="142" y="-55"/>
      <point x="110" y="-55" type="curve"/>
      <point x="152" y="-55"/>
      <point x="110" y="-55"/>
      <point x="152" y="-55" type="curve"/>
      <point x="152" y="-95"/>
      <point x="152" y="-55"/>
      <point x="152" y="-95" type="curve"/>
      <point x="152" y="185"/>
      <point x="152" y="464"/>
      <point x="152" y="744" type="curve"/>
      <point x="152" y="706"/>
      <point x="152" y="744"/>
      <point x="152" y="706" type="curve"/>
      <point x="111" y="706"/>
      <point x="152" y="706"/>
      <point x="111" y="706" type="curve"/>
      <point x="143" y="706"/>
      <point x="175" y="706"/>
      <point x="207" y="706" type="curve"/>
      <point x="207" y="770"/>
      <point x="207" y="706"/>
    </contour>
  </outline>
</glyph>
<glyph name="backslash" format="1">
  <advance width="377"/>
  <unicode hex="005C"/>
  <outline>
    <contour>
      <point x="350" y="-68" type="curve"/>
      <point x="268" y="236"/>
      <point x="186" y="540"/>
      <point x="104" y="844" type="curve"/>
      <point x="27" y="844"/>
      <point x="104" y="844"/>
      <point x="27" y="844" type="curve"/>
      <point x="110" y="540"/>
      <point x="192" y="236"/>
      <point x="274" y="-68" type="curve"/>
      <point x="350" y="-68"/>
      <point x="274" y="-68"/>
    </contour>
  </outline>
</glyph>
<glyph name="bracketright" format="1">
  <advance width="240"/>
  <unicode hex="005D"/>
  <outline>
    <contour>
      <point x="33" y="706" type="curve"/>
      <point x="65" y="706"/>
      <point x="97" y="706"/>
      <point x="130" y="706" type="curve"/>
      <point x="123" y="713"/>
      <point x="112" y="714"/>
      <point x="106" y="721" type="curve"/>
      <point x="100" y="729"/>
      <point x="94" y="737"/>
      <point x="89" y="744" type="curve"/>
      <point x="89" y="464"/>
      <point x="88" y="185"/>
      <point x="89" y="-95" type="curve"/>
      <point x="94" y="-86"/>
      <point x="102" y="-80"/>
      <point x="109" y="-72" type="curve"/>
      <point x="114" y="-65"/>
      <point x="125" y="-63"/>
      <point x="130" y="-55" type="curve"/>
      <point x="98" y="-55"/>
      <point x="65" y="-55"/>
      <point x="33" y="-55" type="curve"/>
      <point x="32" y="-119"/>
      <point x="33" y="-55"/>
      <point x="32" y="-119" type="curve"/>
      <point x="65" y="-119"/>
      <point x="98" y="-119"/>
      <point x="130" y="-119" type="curve"/>
      <point x="162" y="-119"/>
      <point x="130" y="-119"/>
      <point x="162" y="-119" type="curve"/>
      <point x="162" y="-95"/>
      <point x="162" y="-119"/>
      <point x="162" y="-95" type="curve"/>
      <point x="161" y="185"/>
      <point x="162" y="464"/>
      <point x="162" y="744" type="curve"/>
      <point x="162" y="770"/>
      <point x="162" y="744"/>
      <point x="162" y="770" type="curve"/>
      <point x="130" y="770"/>
      <point x="162" y="770"/>
      <point x="130" y="770" type="curve"/>
      <point x="97" y="770"/>
      <point x="65" y="770"/>
      <point x="33" y="770" type="curve"/>
      <point x="33" y="706"/>
      <point x="33" y="770"/>
    </contour>
  </outline>
</glyph>
<glyph name="asciicircum" format="1">
  <advance width="389"/>
  <unicode hex="005E"/>
  <outline>
    <contour>
      <point x="121" y="461" type="curve"/>
      <point x="157" y="570"/>
      <point x="194" y="678"/>
      <point x="231" y="787" type="curve"/>
      <point x="158" y="787"/>
      <point x="231" y="787"/>
      <point x="158" y="787" type="curve"/>
      <point x="121" y="678"/>
      <point x="84" y="570"/>
      <point x="48" y="461" type="curve"/>
      <point x="121" y="461"/>
      <point x="48" y="461"/>
    </contour>
    <contour>
      <point x="341" y="461" type="curve"/>
      <point x="305" y="567"/>
      <point x="266" y="680"/>
      <point x="230" y="787" type="curve"/>
      <point x="157" y="787"/>
      <point x="231" y="787"/>
      <point x="158" y="787" type="curve"/>
      <point x="194" y="680"/>
      <point x="232" y="567"/>
      <point x="268" y="461" type="curve"/>
      <point x="341" y="461"/>
      <point x="268" y="461"/>
    </contour>
  </outline>
</glyph>
<glyph name="underscore" format="1">
  <advance width="429"/>
  <unicode hex="005F"/>
  <outline>
    <contour>
      <point x="0" y="-199" type="curve"/>
      <point x="143" y="-199"/>
      <point x="286" y="-199"/>
      <point x="429" y="-199" type="curve"/>
      <point x="429" y="-140"/>
      <point x="429" y="-199"/>
      <point x="429" y="-140" type="curve"/>
      <point x="286" y="-140"/>
      <point x="143" y="-140"/>
      <point x="0" y="-140" type="curve"/>
      <point x="0" y="-199"/>
      <point x="0" y="-140"/>
    </contour>
  </outline>
</glyph>
<glyph name="grave" format="1">
  <advance width="280"/>
  <unicode hex="0060"/>
  <outline>
    <contour>
      <point x="228" y="594" type="line"/>
      <point x="169" y="760" type="line"/>
      <point x="81" y="760" type="line"/>
      <point x="160" y="594" type="line"/>
    </contour>
    <contour>
      <point x="194" y="594" type="move" name="_top"/>
    </contour>
  </outline>
</glyph>
<glyph name="b" format="1">
  <advance width="477"/>
  <unicode hex="0062"/>
  <outline>
    <contour>
      <point x="143" y="384" type="curve"/>
      <point x="155" y="420"/>
      <point x="195" y="477"/>
      <point x="252" y="477" type="curve"/>
      <point x="338" y="477"/>
      <point x="353" y="374"/>
      <point x="353" y="266" type="curve"/>
      <point x="353" y="163"/>
      <point x="332" y="56"/>
      <point x="253" y="56" type="curve"/>
      <point x="206" y="56"/>
      <point x="169" y="96"/>
      <point x="147" y="148" type="curve"/>
      <point x="105" y="118"/>
      <point x="153" y="147"/>
      <point x="110" y="117" type="curve"/>
      <point x="138" y="50"/>
      <point x="184" y="-5"/>
      <point x="258" y="-5" type="curve"/>
      <point x="381" y="-5"/>
      <point x="425" y="122"/>
      <point x="425" y="269" type="curve"/>
      <point x="425" y="412"/>
      <point x="383" y="538"/>
      <point x="259" y="538" type="curve"/>
      <point x="180" y="538"/>
      <point x="129" y="471"/>
      <point x="111" y="416" type="curve"/>
      <point x="145" y="385"/>
      <point x="109" y="415"/>
    </contour>
    <contour>
      <point x="158" y="0" type="curve"/>
      <point x="158" y="264"/>
      <point x="158" y="536"/>
      <point x="158" y="800" type="curve"/>
      <point x="79" y="800"/>
      <point x="165" y="800"/>
      <point x="85" y="800" type="curve"/>
      <point x="85" y="536"/>
      <point x="85" y="264"/>
      <point x="85" y="0" type="curve"/>
      <point x="165" y="0"/>
      <point x="79" y="0"/>
    </contour>
  </outline>
</glyph>
<glyph name="c" format="1">
  <advance width="389"/>
  <unicode hex="0063"/>
  <outline>
    <contour>
      <point x="348" y="471" type="curve"/>
      <point x="318" y="507"/>
      <point x="276" y="538"/>
      <point x="228" y="538" type="curve"/>
      <point x="94" y="538"/>
      <point x="52" y="423"/>
      <point x="52" y="267" type="curve"/>
      <point x="52" y="111"/>
      <point x="92" y="-5"/>
      <point x="227" y="-5" type="curve"/>
      <point x="282" y="-5"/>
      <point x="331" y="32"/>
      <point x="358" y="93" type="curve"/>
      <point x="307" y="125"/>
      <point x="358" y="93"/>
      <point x="307" y="125" type="curve"/>
      <point x="293" y="95"/>
      <point x="266" y="56"/>
      <point x="230" y="56" type="curve"/>
      <point x="137" y="56"/>
      <point x="125" y="153"/>
      <point x="125" y="267" type="curve"/>
      <point x="125" y="381"/>
      <point x="138" y="477"/>
      <point x="228" y="477" type="curve"/>
      <point x="259" y="477"/>
      <point x="286" y="454"/>
      <point x="304" y="431" type="curve"/>
      <point x="348" y="471"/>
      <point x="304" y="431"/>
    </contour>
    <contour>
      <point x="224" y="645" type="move" name="top"/>
    </contour>
    <contour>
      <point x="244" y="-1" type="move" name="bottom"/>
    </contour>
  </outline>
</glyph>
<glyph name="d" format="1">
  <advance width="481"/>
  <unicode hex="0064"/>
  <outline>
    <contour>
      <point x="362" y="446" type="curve"/>
      <point x="337" y="500"/>
      <point x="288" y="536"/>
      <point x="224" y="536" type="curve"/>
      <point x="94" y="536"/>
      <point x="52" y="406"/>
      <point x="52" y="263" type="curve"/>
      <point x="52" y="123"/>
      <point x="98" y="-3"/>
      <point x="223" y="-3" type="curve"/>
      <point x="293" y="-3"/>
      <point x="338" y="46"/>
      <point x="361" y="120" type="curve"/>
      <point x="334" y="162"/>
      <point x="362" y="120"/>
      <point x="334" y="162" type="curve"/>
      <point x="318" y="103"/>
      <point x="286" y="56"/>
      <point x="235" y="56" type="curve"/>
      <point x="146" y="56"/>
      <point x="124" y="159"/>
      <point x="124" y="266" type="curve"/>
      <point x="124" y="374"/>
      <point x="147" y="477"/>
      <point x="237" y="477" type="curve"/>
      <point x="281" y="477"/>
      <point x="317" y="445"/>
      <point x="334" y="402" type="curve"/>
      <point x="361" y="447"/>
      <point x="334" y="401"/>
    </contour>
    <contour>
      <point x="395" y="0" type="curve"/>
      <point x="395" y="267"/>
      <point x="395" y="533"/>
      <point x="395" y="800" type="curve"/>
      <point x="320" y="800"/>
      <point x="395" y="800"/>
      <point x="320" y="800" type="curve"/>
      <point x="320" y="533"/>
      <point x="320" y="267"/>
      <point x="320" y="0" type="curve"/>
      <point x="395" y="0"/>
      <point x="320" y="0"/>
    </contour>
  </outline>
</glyph>
<glyph name="e" format="1">
  <advance width="417"/>
  <unicode hex="0065"/>
  <outline>
    <contour>
      <point x="90" y="254" type="curve"/>
      <point x="172" y="254"/>
      <point x="254" y="254"/>
      <point x="336" y="254" type="curve"/>
      <point x="365" y="254"/>
      <point x="336" y="254"/>
      <point x="365" y="254" type="curve"/>
      <point x="365" y="276"/>
      <point x="365" y="254"/>
      <point x="365" y="276" type="curve"/>
      <point x="365" y="284"/>
      <point x="365" y="292"/>
      <point x="365" y="299" type="curve"/>
      <point x="365" y="434"/>
      <point x="331" y="538"/>
      <point x="215" y="538" type="curve"/>
      <point x="88" y="538"/>
      <point x="52" y="426"/>
      <point x="52" y="280" type="curve"/>
      <point x="52" y="120"/>
      <point x="90" y="-5"/>
      <point x="226" y="-5" type="curve"/>
      <point x="284" y="-5"/>
      <point x="319" y="26"/>
      <point x="357" y="76" type="curve"/>
      <point x="309" y="115"/>
      <point x="357" y="76"/>
      <point x="309" y="115" type="curve"/>
      <point x="288" y="81"/>
      <point x="263" y="56"/>
      <point x="226" y="56" type="curve"/>
      <point x="132" y="56"/>
      <point x="126" y="160"/>
      <point x="126" y="280" type="curve"/>
      <point x="126" y="385"/>
      <point x="128" y="477"/>
      <point x="211" y="477" type="curve"/>
      <point x="287" y="477"/>
      <point x="296" y="397"/>
      <point x="296" y="304" type="curve"/>
      <point x="296" y="294"/>
      <point x="296" y="285"/>
      <point x="296" y="275" type="curve"/>
      <point x="302" y="282"/>
      <point x="310" y="288"/>
      <point x="315" y="295" type="curve"/>
      <point x="321" y="302"/>
      <point x="330" y="302"/>
      <point x="336" y="310" type="curve"/>
      <point x="254" y="310"/>
      <point x="172" y="310"/>
      <point x="90" y="310" type="curve"/>
      <point x="90" y="251"/>
      <point x="90" y="312"/>
    </contour>
    <contour>
      <point x="216" y="645" type="move" name="top"/>
    </contour>
    <contour>
      <point x="253" y="2" type="move" name="bottom"/>
    </contour>
  </outline>
</glyph>
<glyph name="f" format="1">
  <advance width="294"/>
  <unicode hex="0066"/>
  <outline>
    <contour>
      <point x="22" y="474" type="curve"/>
      <point x="270" y="474" type="line"/>
      <point x="270" y="533"/>
      <point x="270" y="474"/>
      <point x="270" y="533" type="curve"/>
      <point x="22" y="533" type="line"/>
      <point x="22" y="474"/>
      <point x="22" y="533"/>
    </contour>
    <contour>
      <point x="177" y="0" type="curve"/>
      <point x="177" y="625" type="line"/>
      <point x="177" y="689"/>
      <point x="180" y="749"/>
      <point x="231" y="749" type="curve"/>
      <point x="251" y="749"/>
      <point x="266" y="740"/>
      <point x="281" y="728" type="curve"/>
      <point x="310" y="774"/>
      <point x="281" y="728"/>
      <point x="310" y="774" type="curve"/>
      <point x="288" y="792"/>
      <point x="260" y="805"/>
      <point x="231" y="805" type="curve"/>
      <point x="141" y="805"/>
      <point x="103" y="724"/>
      <point x="104" y="625" type="curve"/>
      <point x="104" y="0" type="line"/>
      <point x="177" y="0"/>
      <point x="104" y="0"/>
    </contour>
  </outline>
</glyph>
<glyph name="g" format="1">
  <advance width="381"/>
  <unicode hex="0067"/>
  <outline>
    <contour>
      <point x="269" y="468" type="curve"/>
      <point x="361" y="538" type="line"/>
      <point x="352" y="551"/>
      <point x="338" y="577"/>
      <point x="329" y="590" type="curve"/>
      <point x="229" y="515" type="line"/>
      <point x="269" y="468"/>
      <point x="229" y="515"/>
    </contour>
    <contour>
      <point x="117" y="349" type="curve"/>
      <point x="117" y="414"/>
      <point x="134" y="480"/>
      <point x="191" y="480" type="curve"/>
      <point x="248" y="480"/>
      <point x="262" y="416"/>
      <point x="262" y="350" type="curve"/>
      <point x="262" y="288"/>
      <point x="246" y="226"/>
      <point x="190" y="226" type="curve"/>
      <point x="137" y="226"/>
      <point x="117" y="286"/>
      <point x="117" y="349" type="curve"/>
      <point x="44" y="346"/>
      <point x="117" y="349"/>
      <point x="44" y="346" type="curve"/>
      <point x="44" y="247"/>
      <point x="94" y="169"/>
      <point x="187" y="169" type="curve"/>
      <point x="282" y="169"/>
      <point x="335" y="249"/>
      <point x="335" y="352" type="curve"/>
      <point x="335" y="454"/>
      <point x="286" y="537"/>
      <point x="191" y="537" type="curve"/>
      <point x="93" y="537"/>
      <point x="44" y="452"/>
      <point x="44" y="346" type="curve"/>
      <point x="117" y="349"/>
      <point x="44" y="346"/>
    </contour>
    <contour>
      <point x="109" y="235" type="curve"/>
      <point x="68" y="202"/>
      <point x="46" y="163"/>
      <point x="46" y="110" type="curve"/>
      <point x="46" y="35"/>
      <point x="103" y="-12"/>
      <point x="181" y="-22" type="curve"/>
      <point x="249" y="-30"/>
      <point x="301" y="-66"/>
      <point x="301" y="-134" type="curve"/>
      <point x="301" y="-201"/>
      <point x="255" y="-247"/>
      <point x="188" y="-247" type="curve"/>
      <point x="124" y="-247"/>
      <point x="88" y="-191"/>
      <point x="88" y="-122" type="curve"/>
      <point x="88" y="-68"/>
      <point x="100" y="-19"/>
      <point x="145" y="8" type="curve"/>
      <point x="109" y="44"/>
      <point x="145" y="8"/>
      <point x="109" y="44" type="curve"/>
      <point x="45" y="6"/>
      <point x="15" y="-50"/>
      <point x="15" y="-124" type="curve"/>
      <point x="15" y="-229"/>
      <point x="81" y="-304"/>
      <point x="185" y="-304" type="curve"/>
      <point x="292" y="-304"/>
      <point x="369" y="-233"/>
      <point x="367" y="-128" type="curve"/>
      <point x="367" y="-33"/>
      <point x="293" y="22"/>
      <point x="194" y="34" type="curve"/>
      <point x="149" y="39"/>
      <point x="119" y="71"/>
      <point x="119" y="116" type="curve"/>
      <point x="119" y="149"/>
      <point x="124" y="174"/>
      <point x="148" y="197" type="curve"/>
      <point x="109" y="235"/>
      <point x="148" y="197"/>
    </contour>
    <contour>
      <point x="190" y="645" type="move" name="top"/>
    </contour>
  </outline>
</glyph>
<glyph name="h" format="1">
  <advance width="472"/>
  <unicode hex="0068"/>
  <outline>
    <contour>
      <point x="142" y="333" type="curve"/>
      <point x="153" y="396"/>
      <point x="188" y="477"/>
      <point x="250" y="477" type="curve"/>
      <point x="319" y="477"/>
      <point x="320" y="408"/>
      <point x="320" y="328" type="curve"/>
      <point x="320" y="219"/>
      <point x="320" y="109"/>
      <point x="320" y="0" type="curve"/>
      <point x="393" y="0"/>
      <point x="320" y="0"/>
      <point x="393" y="0" type="curve"/>
      <point x="393" y="111"/>
      <point x="393" y="222"/>
      <point x="393" y="334" type="curve"/>
      <point x="393" y="446"/>
      <point x="373" y="536"/>
      <point x="270" y="536" type="curve"/>
      <point x="189" y="536"/>
      <point x="133" y="450"/>
      <point x="122" y="367" type="curve"/>
      <point x="143" y="336"/>
      <point x="121" y="365"/>
    </contour>
    <contour>
      <point x="158" y="0" type="curve"/>
      <point x="158" y="267"/>
      <point x="158" y="533"/>
      <point x="158" y="800" type="curve"/>
      <point x="85" y="800"/>
      <point x="158" y="800"/>
      <point x="85" y="800" type="curve"/>
      <point x="85" y="533"/>
      <point x="85" y="267"/>
      <point x="85" y="0" type="curve"/>
      <point x="158" y="0"/>
      <point x="85" y="0"/>
    </contour>
  </outline>
</glyph>
<glyph name="i" format="1">
  <advance width="245"/>
  <unicode hex="0069"/>
  <outline>
    <contour>
      <point x="161" y="0" type="curve"/>
      <point x="161" y="178"/>
      <point x="161" y="355"/>
      <point x="161" y="533" type="curve"/>
      <point x="84" y="533"/>
      <point x="161" y="533"/>
      <point x="84" y="533" type="curve"/>
      <point x="84" y="355"/>
      <point x="84" y="178"/>
      <point x="84" y="0" type="curve"/>
      <point x="161" y="0"/>
      <point x="84" y="0"/>
    </contour>
    <contour>
      <point x="161" y="683" type="curve"/>
      <point x="161" y="710"/>
      <point x="143" y="724"/>
      <point x="119" y="724" type="curve"/>
      <point x="94" y="724"/>
      <point x="80" y="708"/>
      <point x="80" y="683" type="curve"/>
      <point x="163" y="683"/>
      <point x="77" y="683"/>
      <point x="161" y="683" type="curve"/>
      <point x="161" y="656"/>
      <point x="144" y="643"/>
      <point x="119" y="643" type="curve"/>
      <point x="94" y="643"/>
      <point x="80" y="656"/>
      <point x="80" y="683" type="curve"/>
      <point x="163" y="683"/>
      <point x="77" y="683"/>
    </contour>
    <contour>
      <point x="120" y="646" type="move" name="top"/>
    </contour>
    <contour>
      <point x="157" y="1" type="move" name="bottom"/>
    </contour>
  </outline>
</glyph>
<glyph name="j" format="1">
  <advance width="210"/>
  <unicode hex="006A"/>
  <outline>
    <contour>
      <point x="-6" y="-302" type="curve"/>
      <point x="0" y="-303"/>
      <point x="8" y="-304"/>
      <point x="16" y="-304" type="curve"/>
      <point x="101" y="-304"/>
      <point x="146" y="-225"/>
      <point x="146" y="-133" type="curve"/>
      <point x="146" y="89"/>
      <point x="146" y="311"/>
      <point x="146" y="533" type="curve"/>
      <point x="73" y="533"/>
      <point x="146" y="533"/>
      <point x="73" y="533" type="curve"/>
      <point x="73" y="311"/>
      <point x="73" y="89"/>
      <point x="73" y="-133" type="curve"/>
      <point x="73" y="-184"/>
      <point x="63" y="-245"/>
      <point x="19" y="-245" type="curve"/>
      <point x="14" y="-245"/>
      <point x="10" y="-245"/>
      <point x="5" y="-244" type="curve"/>
      <point x="-6" y="-300"/>
      <point x="4" y="-247"/>
    </contour>
    <contour>
      <point x="150" y="680" type="curve"/>
      <point x="150" y="707"/>
      <point x="133" y="721"/>
      <point x="108" y="721" type="curve"/>
      <point x="84" y="721"/>
      <point x="69" y="705"/>
      <point x="69" y="680" type="curve"/>
      <point x="152" y="680"/>
      <point x="67" y="680"/>
      <point x="150" y="680" type="curve"/>
      <point x="150" y="652"/>
      <point x="133" y="640"/>
      <point x="109" y="640" type="curve"/>
      <point x="83" y="640"/>
      <point x="69" y="653"/>
      <point x="69" y="680" type="curve"/>
      <point x="152" y="680"/>
      <point x="67" y="680"/>
    </contour>
  </outline>
</glyph>
<glyph name="k" format="1">
  <advance width="427"/>
  <unicode hex="006B"/>
  <outline>
    <contour>
      <point x="158" y="0" type="curve"/>
      <point x="158" y="800" type="line"/>
      <point x="85" y="800"/>
      <point x="158" y="800"/>
      <point x="85" y="800" type="curve"/>
      <point x="85" y="533"/>
      <point x="85" y="267"/>
      <point x="85" y="0" type="curve"/>
      <point x="158" y="0"/>
      <point x="85" y="0"/>
    </contour>
    <contour>
      <point x="303" y="533" type="curve"/>
      <point x="142" y="275" type="line"/>
      <point x="215" y="275"/>
      <point x="149" y="275"/>
      <point x="222" y="275" type="curve"/>
      <point x="386" y="533" type="line"/>
      <point x="324" y="533"/>
      <point x="365" y="533"/>
    </contour>
    <contour>
      <point x="402" y="0" type="curve"/>
      <point x="222" y="275" type="line"/>
      <point x="149" y="275"/>
      <point x="215" y="275"/>
      <point x="142" y="275" type="curve"/>
      <point x="320" y="0" type="line"/>
      <point x="376" y="0"/>
      <point x="346" y="0"/>
    </contour>
    <contour>
      <point x="285" y="-53" type="move" name="bottom"/>
    </contour>
  </outline>
</glyph>
<glyph name="l" format="1">
  <advance width="244"/>
  <unicode hex="006C"/>
  <outline>
    <contour>
      <point x="158" y="0" type="curve"/>
      <point x="158" y="267"/>
      <point x="158" y="533"/>
      <point x="158" y="800" type="curve"/>
      <point x="85" y="800"/>
      <point x="158" y="800"/>
      <point x="85" y="800" type="curve"/>
      <point x="85" y="533"/>
      <point x="85" y="267"/>
      <point x="85" y="0" type="curve"/>
      <point x="158" y="0"/>
      <point x="85" y="0"/>
    </contour>
    <contour>
      <point x="124" y="883" type="move" name="top"/>
    </contour>
    <contour>
      <point x="146" y="-53" type="move" name="bottom"/>
    </contour>
  </outline>
</glyph>
<glyph name="m" format="1">
  <advance width="657"/>
  <unicode hex="006D"/>
  <outline>
    <contour>
      <point x="351" y="320" type="curve"/>
      <point x="367" y="393"/>
      <point x="386" y="478"/>
      <point x="445" y="478" type="curve"/>
      <point x="516" y="478"/>
      <point x="504" y="412"/>
      <point x="504" y="327" type="curve"/>
      <point x="504" y="218"/>
      <point x="504" y="109"/>
      <point x="504" y="0" type="curve"/>
      <point x="577" y="0"/>
      <point x="504" y="0"/>
      <point x="577" y="0" type="curve"/>
      <point x="577" y="111"/>
      <point x="577" y="222"/>
      <point x="577" y="334" type="curve"/>
      <point x="577" y="452"/>
      <point x="576" y="538"/>
      <point x="470" y="538" type="curve"/>
      <point x="386" y="538"/>
      <point x="347" y="452"/>
      <point x="332" y="354" type="curve"/>
      <point x="354" y="322"/>
      <point x="330" y="353"/>
    </contour>
    <contour>
      <point x="142" y="320" type="curve"/>
      <point x="154" y="391"/>
      <point x="174" y="479"/>
      <point x="236" y="479" type="curve"/>
      <point x="306" y="479"/>
      <point x="295" y="412"/>
      <point x="295" y="327" type="curve"/>
      <point x="295" y="218"/>
      <point x="295" y="109"/>
      <point x="295" y="0" type="curve"/>
      <point x="368" y="0"/>
      <point x="295" y="0"/>
      <point x="368" y="0" type="curve"/>
      <point x="368" y="111"/>
      <point x="368" y="222"/>
      <point x="368" y="334" type="curve"/>
      <point x="368" y="452"/>
      <point x="367" y="539"/>
      <point x="261" y="539" type="curve"/>
      <point x="175" y="539"/>
      <point x="138" y="452"/>
      <point x="123" y="354" type="curve"/>
      <point x="145" y="321"/>
      <point x="121" y="352"/>
    </contour>
    <contour>
      <point x="158" y="0" type="curve"/>
      <point x="158" y="178"/>
      <point x="158" y="355"/>
      <point x="158" y="533" type="curve"/>
      <point x="85" y="533"/>
      <point x="158" y="533"/>
      <point x="85" y="533" type="curve"/>
      <point x="85" y="355"/>
      <point x="85" y="178"/>
      <point x="85" y="0" type="curve"/>
      <point x="158" y="0"/>
      <point x="85" y="0"/>
    </contour>
  </outline>
</glyph>
<glyph name="p" format="1">
  <advance width="483"/>
  <unicode hex="0070"/>
  <outline>
    <contour>
      <point x="144" y="359" type="curve"/>
      <point x="153" y="410"/>
      <point x="197" y="478"/>
      <point x="251" y="478" type="curve"/>
      <point x="347" y="478"/>
      <point x="358" y="376"/>
      <point x="358" y="270" type="curve"/>
      <point x="360" y="159"/>
      <point x="346" y="54"/>
      <point x="252" y="54" type="curve"/>
      <point x="201" y="54"/>
      <point x="170" y="90"/>
      <point x="147" y="137" type="curve"/>
      <point x="116" y="102"/>
      <point x="150" y="140"/>
      <point x="119" y="106" type="curve"/>
      <point x="152" y="38"/>
      <point x="196" y="-5"/>
      <point x="266" y="-5" type="curve"/>
      <point x="403" y="-5"/>
      <point x="431" y="128"/>
      <point x="431" y="273" type="curve"/>
      <point x="431" y="411"/>
      <point x="400" y="538"/>
      <point x="267" y="538" type="curve"/>
      <point x="193" y="538"/>
      <point x="142" y="470"/>
      <point x="123" y="411" type="curve"/>
      <point x="147" y="357"/>
      <point x="119" y="413"/>
    </contour>
    <contour>
      <point x="158" y="-300" type="curve"/>
      <point x="158" y="-22"/>
      <point x="158" y="255"/>
      <point x="158" y="533" type="curve"/>
      <point x="85" y="533"/>
      <point x="158" y="533"/>
      <point x="85" y="533" type="curve"/>
      <point x="85" y="255"/>
      <point x="85" y="-22"/>
      <point x="85" y="-300" type="curve"/>
      <point x="158" y="-300"/>
      <point x="85" y="-300"/>
    </contour>
  </outline>
</glyph>
<glyph name="q" format="1">
  <advance width="482"/>
  <unicode hex="0071"/>
  <outline>
    <contour>
      <point x="361" y="418" type="curve"/>
      <point x="337" y="494"/>
      <point x="278" y="538"/>
      <point x="216" y="538" type="curve"/>
      <point x="81" y="538"/>
      <point x="51" y="407"/>
      <point x="52" y="265" type="curve"/>
      <point x="53" y="122"/>
      <point x="87" y="-6"/>
      <point x="220" y="-6" type="curve"/>
      <point x="285" y="-6"/>
      <point x="337" y="55"/>
      <point x="358" y="120" type="curve"/>
      <point x="332" y="155"/>
      <point x="362" y="120"/>
      <point x="336" y="156" type="curve"/>
      <point x="319" y="103"/>
      <point x="279" y="53"/>
      <point x="230" y="53" type="curve"/>
      <point x="138" y="53"/>
      <point x="125" y="159"/>
      <point x="125" y="268" type="curve"/>
      <point x="125" y="373"/>
      <point x="138" y="478"/>
      <point x="228" y="478" type="curve"/>
      <point x="272" y="478"/>
      <point x="312" y="449"/>
      <point x="339" y="382" type="curve"/>
      <point x="358" y="420"/>
      <point x="342" y="380"/>
    </contour>
    <contour>
      <point x="397" y="-300" type="curve"/>
      <point x="397" y="-24"/>
      <point x="397" y="257"/>
      <point x="397" y="533" type="curve"/>
      <point x="314" y="533"/>
      <point x="403" y="533"/>
      <point x="321" y="533" type="curve"/>
      <point x="321" y="257"/>
      <point x="321" y="-24"/>
      <point x="321" y="-300" type="curve"/>
      <point x="403" y="-300"/>
      <point x="314" y="-300"/>
    </contour>
  </outline>
</glyph>
<glyph name="r" format="1">
  <advance width="296"/>
  <unicode hex="0072"/>
  <outline>
    <contour>
      <point x="158" y="0" type="curve"/>
      <point x="158" y="176"/>
      <point x="158" y="357"/>
      <point x="158" y="533" type="curve"/>
      <point x="79" y="533"/>
      <point x="165" y="533"/>
      <point x="85" y="533" type="curve"/>
      <point x="85" y="357"/>
      <point x="85" y="176"/>
      <point x="85" y="0" type="curve"/>
      <point x="165" y="0"/>
      <point x="79" y="0"/>
    </contour>
    <contour>
      <point x="143" y="339" type="curve"/>
      <point x="158" y="433"/>
      <point x="219" y="479"/>
      <point x="284" y="479" type="curve"/>
      <point x="284" y="547"/>
      <point x="284" y="470"/>
      <point x="284" y="538" type="curve"/>
      <point x="201" y="538"/>
      <point x="135" y="466"/>
      <point x="114" y="372" type="curve"/>
      <point x="144" y="341"/>
      <point x="117" y="367"/>
    </contour>
    <contour>
      <point x="123" y="645" type="move" name="top"/>
    </contour>
    <contour>
      <point x="150" y="-55" type="move" name="bottom"/>
    </contour>
  </outline>
</glyph>
<glyph name="s" format="1">
  <advance width="351"/>
  <unicode hex="0073"/>
  <outline>
    <contour>
      <point x="40" y="48" type="curve"/>
      <point x="82" y="16"/>
      <point x="127" y="-5"/>
      <point x="176" y="-5" type="curve"/>
      <point x="264" y="-5"/>
      <point x="310" y="55"/>
      <point x="310" y="143" type="curve"/>
      <point x="309" y="228"/>
      <point x="261" y="271"/>
      <point x="185" y="305" type="curve" smooth="yes"/>
      <point x="142" y="326"/>
      <point x="121" y="358"/>
      <point x="121" y="408" type="curve"/>
      <point x="121" y="444"/>
      <point x="136" y="477"/>
      <point x="171" y="477" type="curve"/>
      <point x="202" y="477"/>
      <point x="226" y="462"/>
      <point x="247" y="440" type="curve"/>
      <point x="276" y="485"/>
      <point x="251" y="448"/>
      <point x="281" y="493" type="curve"/>
      <point x="252" y="519"/>
      <point x="215" y="538"/>
      <point x="173" y="538" type="curve"/>
      <point x="98" y="538"/>
      <point x="55" y="484"/>
      <point x="55" y="408" type="curve"/>
      <point x="55" y="329"/>
      <point x="91" y="281"/>
      <point x="162" y="249" type="curve" smooth="yes"/>
      <point x="209" y="227"/>
      <point x="240" y="196"/>
      <point x="240" y="139" type="curve"/>
      <point x="240" y="95"/>
      <point x="220" y="58"/>
      <point x="181" y="58" type="curve"/>
      <point x="142" y="58"/>
      <point x="108" y="75"/>
      <point x="78" y="100" type="curve"/>
      <point x="40" y="48"/>
      <point x="78" y="100"/>
    </contour>
    <contour>
      <point x="178" y="645" type="move" name="top"/>
    </contour>
    <contour>
      <point x="198" y="-53" type="move" name="bottom"/>
    </contour>
  </outline>
</glyph>
<glyph name="t" format="1">
  <advance width="280"/>
  <unicode hex="0074"/>
  <outline>
    <contour>
      <point x="20" y="473" type="curve"/>
      <point x="270" y="473" type="line"/>
      <point x="270" y="532"/>
      <point x="270" y="473"/>
      <point x="270" y="532" type="curve"/>
      <point x="20" y="532" type="line"/>
      <point x="20" y="473"/>
      <point x="20" y="532"/>
    </contour>
    <contour>
      <point x="239" y="79" type="curve"/>
      <point x="225" y="66"/>
      <point x="214" y="57"/>
      <point x="196" y="57" type="curve"/>
      <point x="154" y="57"/>
      <point x="153" y="103"/>
      <point x="153" y="157" type="curve"/>
      <point x="153" y="680" type="line"/>
      <point x="86" y="638"/>
      <point x="147" y="670"/>
      <point x="80" y="628" type="curve"/>
      <point x="80" y="154" type="line"/>
      <point x="80" y="60"/>
      <point x="105" y="-5"/>
      <point x="186" y="-5" type="curve"/>
      <point x="219" y="-5"/>
      <point x="242" y="6"/>
      <point x="272" y="27" type="curve"/>
      <point x="239" y="79"/>
      <point x="272" y="27"/>
    </contour>
    <contour>
      <point x="207" y="-51" type="move" name="bottom"/>
    </contour>
  </outline>
</glyph>
<glyph name="v" format="1">
  <advance width="398"/>
  <unicode hex="0076"/>
  <outline>
    <contour>
      <point x="24" y="533" type="curve"/>
      <point x="68" y="355"/>
      <point x="112" y="178"/>
      <point x="156" y="0" type="curve"/>
      <point x="224" y="0"/>
      <point x="156" y="0"/>
      <point x="224" y="0" type="curve"/>
      <point x="181" y="178"/>
      <point x="142" y="355"/>
      <point x="100" y="533" type="curve"/>
      <point x="24" y="533"/>
      <point x="100" y="533"/>
    </contour>
    <contour>
      <point x="305" y="533" type="curve"/>
      <point x="173" y="0" type="line"/>
      <point x="242" y="0"/>
      <point x="173" y="0"/>
      <point x="242" y="0" type="curve"/>
      <point x="288" y="178"/>
      <point x="334" y="355"/>
      <point x="380" y="533" type="curve"/>
      <point x="305" y="533"/>
      <point x="380" y="533"/>
    </contour>
  </outline>
</glyph>
<glyph name="w" format="1">
  <advance width="591"/>
  <unicode hex="0077"/>
  <outline>
    <contour>
      <point x="203" y="0" type="curve"/>
      <point x="246" y="178"/>
      <point x="289" y="355"/>
      <point x="332" y="533" type="curve"/>
      <point x="267" y="533"/>
      <point x="332" y="533"/>
      <point x="267" y="533" type="curve"/>
      <point x="225" y="355"/>
      <point x="183" y="178"/>
      <point x="142" y="0" type="curve"/>
      <point x="203" y="0"/>
      <point x="142" y="0"/>
    </contour>
    <contour>
      <point x="504" y="533" type="curve"/>
      <point x="466" y="355"/>
      <point x="426" y="178"/>
      <point x="387" y="0" type="curve"/>
      <point x="449" y="0"/>
      <point x="387" y="0"/>
      <point x="449" y="0" type="curve"/>
      <point x="489" y="178"/>
      <point x="529" y="355"/>
      <point x="569" y="533" type="curve"/>
      <point x="504" y="533"/>
      <point x="569" y="533"/>
    </contour>
    <contour>
      <point x="271" y="533" type="curve"/>
      <point x="310" y="355"/>
      <point x="348" y="178"/>
      <point x="387" y="0" type="curve"/>
      <point x="448" y="0"/>
      <point x="387" y="0"/>
      <point x="448" y="0" type="curve"/>
      <point x="410" y="178"/>
      <point x="372" y="355"/>
      <point x="335" y="533" type="curve"/>
      <point x="271" y="533"/>
      <point x="335" y="533"/>
    </contour>
    <contour>
      <point x="26" y="533" type="curve"/>
      <point x="64" y="355"/>
      <point x="103" y="178"/>
      <point x="141" y="0" type="curve"/>
      <point x="202" y="0"/>
      <point x="141" y="0"/>
      <point x="202" y="0" type="curve"/>
      <point x="164" y="178"/>
      <point x="127" y="355"/>
      <point x="90" y="533" type="curve"/>
      <point x="26" y="533"/>
      <point x="90" y="533"/>
    </contour>
  </outline>
</glyph>
<glyph name="x" format="1">
  <advance width="387"/>
  <unicode hex="0078"/>
  <outline>
    <contour>
      <point x="372" y="0" type="curve"/>
      <point x="323" y="103"/>
      <point x="145" y="430"/>
      <point x="96" y="533" type="curve"/>
      <point x="26" y="533"/>
      <point x="90" y="533"/>
      <point x="20" y="533" type="curve"/>
      <point x="68" y="430"/>
      <point x="248" y="103"/>
      <point x="296" y="0" type="curve"/>
      <point x="372" y="0"/>
      <point x="296" y="0"/>
    </contour>
    <contour>
      <point x="294" y="533" type="curve"/>
      <point x="244" y="430"/>
      <point x="63" y="103"/>
      <point x="14" y="0" type="curve"/>
      <point x="89" y="0"/>
      <point x="14" y="0"/>
      <point x="89" y="0" type="curve"/>
      <point x="138" y="103"/>
      <point x="319" y="430"/>
      <point x="367" y="533" type="curve"/>
      <point x="302" y="533"/>
      <point x="359" y="533"/>
    </contour>
  </outline>
</glyph>
<glyph name="y" format="1">
  <advance width="416"/>
  <unicode hex="0079"/>
  <outline>
    <contour>
      <point x="245" y="-7" type="curve"/>
      <point x="226" y="67"/>
      <point x="115" y="458"/>
      <point x="95" y="533" type="curve"/>
      <point x="19" y="533"/>
      <point x="95" y="533"/>
      <point x="19" y="533" type="curve"/>
      <point x="41" y="459"/>
      <point x="155" y="63"/>
      <point x="177" y="-11" type="curve"/>
      <point x="245" y="-11"/>
      <point x="177" y="-7"/>
    </contour>
    <contour>
      <point x="160" y="-300" type="curve"/>
      <point x="192" y="-190"/>
      <point x="373" y="423"/>
      <point x="406" y="533" type="curve"/>
      <point x="330" y="533"/>
      <point x="406" y="533"/>
      <point x="330" y="533" type="curve"/>
      <point x="297" y="423"/>
      <point x="116" y="-190"/>
      <point x="83" y="-300" type="curve"/>
      <point x="160" y="-300"/>
      <point x="83" y="-300"/>
    </contour>
    <contour>
      <point x="225" y="646" type="move" name="top"/>
    </contour>
  </outline>
</glyph>
<glyph name="braceleft" format="1">
  <advance width="200"/>
  <unicode hex="007B"/>
  <outline>
    <contour>
      <point x="167" y="-59" type="curve"/>
      <point x="124" y="-59"/>
      <point x="128" y="-9"/>
      <point x="128" y="43" type="curve"/>
      <point x="128" y="98"/>
      <point x="128" y="154"/>
      <point x="128" y="210" type="curve"/>
      <point x="128" y="298"/>
      <point x="100" y="370"/>
      <point x="22" y="370" type="curve"/>
      <point x="22" y="309"/>
      <point x="22" y="370"/>
      <point x="22" y="309" type="curve"/>
      <point x="61" y="309"/>
      <point x="61" y="263"/>
      <point x="61" y="215" type="curve"/>
      <point x="61" y="159"/>
      <point x="61" y="102"/>
      <point x="61" y="46" type="curve"/>
      <point x="61" y="-45"/>
      <point x="88" y="-117"/>
      <point x="167" y="-117" type="curve"/>
      <point x="167" y="-59"/>
      <point x="167" y="-117"/>
    </contour>
    <contour>
      <point x="167" y="796" type="curve"/>
      <point x="88" y="796"/>
      <point x="61" y="725"/>
      <point x="61" y="635" type="curve"/>
      <point x="61" y="577"/>
      <point x="61" y="519"/>
      <point x="61" y="461" type="curve"/>
      <point x="61" y="414"/>
      <point x="60" y="370"/>
      <point x="22" y="370" type="curve"/>
      <point x="22" y="309"/>
      <point x="22" y="370"/>
      <point x="22" y="309" type="curve"/>
      <point x="100" y="309"/>
      <point x="128" y="380"/>
      <point x="128" y="470" type="curve"/>
      <point x="128" y="525"/>
      <point x="128" y="580"/>
      <point x="128" y="635" type="curve"/>
      <point x="128" y="687"/>
      <point x="123" y="737"/>
      <point x="167" y="737" type="curve"/>
      <point x="167" y="796"/>
      <point x="167" y="737"/>
    </contour>
  </outline>
</glyph>
<glyph name="braceright" format="1">
  <advance width="201"/>
  <unicode hex="007D"/>
  <outline>
    <contour>
      <point x="32" y="-117" type="curve"/>
      <point x="112" y="-117"/>
      <point x="139" y="-45"/>
      <point x="139" y="46" type="curve"/>
      <point x="139" y="102"/>
      <point x="139" y="159"/>
      <point x="139" y="215" type="curve"/>
      <point x="139" y="263"/>
      <point x="138" y="309"/>
      <point x="178" y="309" type="curve"/>
      <point x="178" y="370"/>
      <point x="178" y="309"/>
      <point x="178" y="370" type="curve"/>
      <point x="100" y="370"/>
      <point x="73" y="298"/>
      <point x="73" y="210" type="curve"/>
      <point x="73" y="154"/>
      <point x="73" y="98"/>
      <point x="73" y="43" type="curve"/>
      <point x="73" y="-9"/>
      <point x="76" y="-59"/>
      <point x="32" y="-59" type="curve"/>
      <point x="32" y="-117"/>
      <point x="32" y="-59"/>
    </contour>
    <contour>
      <point x="32" y="737" type="curve"/>
      <point x="77" y="737"/>
      <point x="73" y="687"/>
      <point x="73" y="635" type="curve"/>
      <point x="73" y="580"/>
      <point x="73" y="525"/>
      <point x="73" y="470" type="curve"/>
      <point x="73" y="380"/>
      <point x="100" y="309"/>
      <point x="178" y="309" type="curve"/>
      <point x="178" y="370"/>
      <point x="178" y="309"/>
      <point x="178" y="370" type="curve"/>
      <point x="139" y="370"/>
      <point x="139" y="414"/>
      <point x="139" y="461" type="curve"/>
      <point x="139" y="519"/>
      <point x="139" y="577"/>
      <point x="139" y="635" type="curve"/>
      <point x="139" y="725"/>
      <point x="112" y="796"/>
      <point x="32" y="796" type="curve"/>
      <point x="32" y="737"/>
      <point x="32" y="796"/>
    </contour>
  </outline>
</glyph>
<glyph name="asciitilde" format="1">
  <advance width="510"/>
  <unicode hex="007E"/>
  <outline>
    <contour>
      <point x="379" y="359" type="curve"/>
      <point x="371" y="319"/>
      <point x="364" y="270"/>
      <point x="330" y="270" type="curve"/>
      <point x="306" y="270"/>
      <point x="294" y="285"/>
      <point x="281" y="306" type="curve"/>
      <point x="253" y="342"/>
      <point x="229" y="365"/>
      <point x="185" y="365" type="curve"/>
      <point x="109" y="365"/>
      <point x="85" y="309"/>
      <point x="72" y="231" type="curve"/>
      <point x="103" y="222"/>
      <point x="101" y="221"/>
      <point x="132" y="213" type="curve"/>
      <point x="139" y="257"/>
      <point x="147" y="303"/>
      <point x="183" y="303" type="curve"/>
      <point x="206" y="303"/>
      <point x="217" y="288"/>
      <point x="230" y="269" type="curve"/>
      <point x="260" y="231"/>
      <point x="284" y="209"/>
      <point x="331" y="208" type="curve"/>
      <point x="405" y="208"/>
      <point x="422" y="269"/>
      <point x="438" y="343" type="curve"/>
      <point x="408" y="351"/>
      <point x="410" y="352"/>
    </contour>
  </outline>
</glyph>
<glyph name="exclamdown" format="1">
  <advance width="242"/>
  <unicode hex="00A1"/>
  <outline>
    <contour>
      <point x="84" y="295" type="line"/>
      <point x="78" y="-198" type="line"/>
      <point x="164" y="-198" type="line"/>
      <point x="160" y="295" type="line"/>
    </contour>
    <contour>
      <point x="83" y="492" type="curve"/>
      <point x="83" y="465"/>
      <point x="99" y="452"/>
      <point x="123" y="451" type="curve"/>
      <point x="147" y="451"/>
      <point x="162" y="466"/>
      <point x="162" y="491" type="curve"/>
      <point x="81" y="492"/>
      <point x="164" y="491"/>
      <point x="83" y="492" type="curve"/>
      <point x="83" y="518"/>
      <point x="99" y="531"/>
      <point x="123" y="530" type="curve"/>
      <point x="148" y="530"/>
      <point x="162" y="517"/>
      <point x="162" y="491" type="curve"/>
      <point x="81" y="492"/>
      <point x="164" y="491"/>
    </contour>
  </outline>
</glyph>
<glyph name="cent" format="1">
  <advance width="458"/>
  <unicode hex="00A2"/>
  <outline>
    <contour>
      <point x="279" y="-53" type="curve"/>
      <point x="279" y="-13"/>
      <point x="279" y="27"/>
      <point x="279" y="67" type="curve"/>
      <point x="206" y="67"/>
      <point x="279" y="67"/>
      <point x="206" y="67" type="curve"/>
      <point x="206" y="27"/>
      <point x="206" y="-13"/>
      <point x="206" y="-53" type="curve"/>
      <point x="279" y="-53"/>
      <point x="206" y="-53"/>
    </contour>
    <contour>
      <point x="219" y="778" type="curve"/>
      <point x="219" y="742"/>
      <point x="219" y="706"/>
      <point x="219" y="670" type="curve"/>
      <point x="292" y="670"/>
      <point x="219" y="670"/>
      <point x="292" y="670" type="curve"/>
      <point x="292" y="706"/>
      <point x="292" y="742"/>
      <point x="292" y="778" type="curve"/>
      <point x="219" y="778"/>
      <point x="292" y="778"/>
    </contour>
    <contour>
      <point x="411" y="605" type="curve"/>
      <point x="366" y="659"/>
      <point x="324" y="682"/>
      <point x="261" y="682" type="curve"/>
      <point x="106" y="682"/>
      <point x="48" y="541"/>
      <point x="48" y="365" type="curve"/>
      <point x="48" y="194"/>
      <point x="90" y="50"/>
      <point x="239" y="50" type="curve"/>
      <point x="313" y="50"/>
      <point x="362" y="82"/>
      <point x="409" y="149" type="curve"/>
      <point x="362" y="190"/>
      <point x="409" y="149"/>
      <point x="362" y="190" type="curve"/>
      <point x="330" y="146"/>
      <point x="300" y="111"/>
      <point x="246" y="111" type="curve"/>
      <point x="139" y="111"/>
      <point x="121" y="233"/>
      <point x="121" y="368" type="curve"/>
      <point x="121" y="502"/>
      <point x="150" y="621"/>
      <point x="254" y="621" type="curve"/>
      <point x="304" y="621"/>
      <point x="336" y="599"/>
      <point x="366" y="561" type="curve"/>
      <point x="411" y="605"/>
      <point x="366" y="561"/>
    </contour>
  </outline>
</glyph>
<glyph name="sterling" format="1">
  <advance width="363"/>
  <unicode hex="00A3"/>
  <outline>
    <contour>
      <point x="299" y="59" type="curve"/>
      <point x="212" y="59"/>
      <point x="125" y="59"/>
      <point x="41" y="59" type="curve"/>
      <point x="41" y="0"/>
      <point x="41" y="59"/>
      <point x="41" y="0" type="curve"/>
      <point x="125" y="0"/>
      <point x="214" y="0"/>
      <point x="299" y="0" type="curve"/>
      <point x="299" y="59"/>
      <point x="299" y="0"/>
    </contour>
    <contour>
      <point x="265" y="405" type="curve"/>
      <point x="197" y="405"/>
      <point x="125" y="405"/>
      <point x="58" y="405" type="curve"/>
      <point x="58" y="347"/>
      <point x="58" y="405"/>
      <point x="58" y="347" type="curve"/>
      <point x="125" y="347"/>
      <point x="197" y="347"/>
      <point x="265" y="347" type="curve"/>
      <point x="265" y="405"/>
      <point x="265" y="347"/>
    </contour>
    <contour>
      <point x="317" y="670" type="curve"/>
      <point x="287" y="708"/>
      <point x="260" y="724"/>
      <point x="218" y="724" type="curve"/>
      <point x="71" y="724"/>
      <point x="76" y="559"/>
      <point x="102" y="369" type="curve"/>
      <point x="123" y="211"/>
      <point x="149" y="59"/>
      <point x="41" y="59" type="curve"/>
      <point x="41" y="0"/>
      <point x="41" y="59"/>
      <point x="41" y="0" type="curve"/>
      <point x="205" y="0"/>
      <point x="193" y="180"/>
      <point x="166" y="382" type="curve"/>
      <point x="148" y="527"/>
      <point x="125" y="667"/>
      <point x="214" y="667" type="curve"/>
      <point x="244" y="667"/>
      <point x="260" y="649"/>
      <point x="278" y="628" type="curve"/>
      <point x="317" y="670"/>
      <point x="278" y="628"/>
    </contour>
  </outline>
</glyph>
<glyph name="yen" format="1">
  <advance width="453"/>
  <unicode hex="00A5"/>
  <outline>
    <contour>
      <point x="369" y="389" type="curve"/>
      <point x="324" y="389"/>
      <point x="280" y="389"/>
      <point x="236" y="389" type="curve"/>
      <point x="236" y="325"/>
      <point x="236" y="389"/>
      <point x="236" y="325" type="curve"/>
      <point x="280" y="325"/>
      <point x="324" y="325"/>
      <point x="369" y="325" type="curve"/>
      <point x="369" y="389"/>
      <point x="369" y="325"/>
    </contour>
    <contour>
      <point x="218" y="389" type="curve"/>
      <point x="174" y="389"/>
      <point x="130" y="389"/>
      <point x="87" y="389" type="curve"/>
      <point x="87" y="325"/>
      <point x="87" y="389"/>
      <point x="87" y="325" type="curve"/>
      <point x="130" y="325"/>
      <point x="174" y="325"/>
      <point x="218" y="325" type="curve"/>
      <point x="218" y="389"/>
      <point x="218" y="325"/>
    </contour>
    <contour>
      <point x="369" y="262" type="curve"/>
      <point x="274" y="262"/>
      <point x="181" y="262"/>
      <point x="87" y="262" type="curve"/>
      <point x="87" y="197"/>
      <point x="87" y="262"/>
      <point x="87" y="197" type="curve"/>
      <point x="181" y="197"/>
      <point x="274" y="197"/>
      <point x="369" y="197" type="curve"/>
      <point x="369" y="262"/>
      <point x="369" y="197"/>
    </contour>
    <contour>
      <point x="40" y="722" type="curve"/>
      <point x="90" y="593"/>
      <point x="135" y="468"/>
      <point x="185" y="337" type="curve"/>
      <point x="259" y="337"/>
      <point x="174" y="337"/>
      <point x="249" y="337" type="curve"/>
      <point x="204" y="467"/>
      <point x="160" y="592"/>
      <point x="114" y="722" type="curve"/>
      <point x="37" y="722"/>
      <point x="117" y="722"/>
    </contour>
    <contour>
      <point x="344" y="722" type="curve"/>
      <point x="294" y="591"/>
      <point x="247" y="467"/>
      <point x="196" y="337" type="curve"/>
      <point x="271" y="337"/>
      <point x="190" y="337"/>
      <point x="265" y="337" type="curve"/>
      <point x="317" y="467"/>
      <point x="366" y="593"/>
      <point x="419" y="722" type="curve"/>
      <point x="341" y="722"/>
      <point x="421" y="722"/>
    </contour>
    <contour>
      <point x="264" y="0" type="curve"/>
      <point x="264" y="115"/>
      <point x="264" y="227"/>
      <point x="264" y="342" type="curve"/>
      <point x="185" y="342"/>
      <point x="264" y="342"/>
      <point x="185" y="342" type="curve"/>
      <point x="185" y="227"/>
      <point x="185" y="115"/>
      <point x="185" y="0" type="curve"/>
      <point x="264" y="0"/>
      <point x="185" y="0"/>
    </contour>
  </outline>
</glyph>
<glyph name="section" format="1">
  <advance width="381"/>
  <unicode hex="00A7"/>
  <outline>
    <contour>
      <point x="298" y="704" type="curve"/>
      <point x="263" y="735"/>
      <point x="236" y="750"/>
      <point x="194" y="750" type="curve"/>
      <point x="115" y="750"/>
      <point x="74" y="692"/>
      <point x="74" y="613" type="curve"/>
      <point x="74" y="543"/>
      <point x="103" y="492"/>
      <point x="166" y="461" type="curve"/>
      <point x="215" y="434"/>
      <point x="259" y="414"/>
      <point x="259" y="362" type="curve"/>
      <point x="259" y="307"/>
      <point x="242" y="265"/>
      <point x="192" y="250" type="curve"/>
      <point x="236" y="204"/>
      <point x="192" y="250"/>
      <point x="236" y="204" type="curve"/>
      <point x="306" y="227"/>
      <point x="332" y="286"/>
      <point x="332" y="361" type="curve"/>
      <point x="331" y="440"/>
      <point x="276" y="481"/>
      <point x="203" y="516" type="curve"/>
      <point x="164" y="536"/>
      <point x="143" y="569"/>
      <point x="143" y="613" type="curve"/>
      <point x="143" y="653"/>
      <point x="155" y="692"/>
      <point x="194" y="692" type="curve"/>
      <point x="226" y="692"/>
      <point x="241" y="678"/>
      <point x="262" y="659" type="curve"/>
      <point x="298" y="704"/>
      <point x="262" y="659"/>
    </contour>
    <contour>
      <point x="146" y="519" type="curve"/>
      <point x="81" y="490"/>
      <point x="52" y="438"/>
      <point x="52" y="367" type="curve"/>
      <point x="52" y="290"/>
      <point x="97" y="242"/>
      <point x="168" y="209" type="curve"/>
      <point x="210" y="187"/>
      <point x="243" y="163"/>
      <point x="243" y="114" type="curve"/>
      <point x="243" y="69"/>
      <point x="229" y="30"/>
      <point x="191" y="30" type="curve"/>
      <point x="155" y="30"/>
      <point x="136" y="49"/>
      <point x="113" y="76" type="curve"/>
      <point x="70" y="35"/>
      <point x="113" y="76"/>
      <point x="70" y="35" type="curve"/>
      <point x="106" y="-8"/>
      <point x="140" y="-28"/>
      <point x="190" y="-28" type="curve"/>
      <point x="269" y="-28"/>
      <point x="314" y="30"/>
      <point x="314" y="114" type="curve"/>
      <point x="313" y="185"/>
      <point x="279" y="234"/>
      <point x="214" y="265" type="curve"/>
      <point x="166" y="290"/>
      <point x="125" y="314"/>
      <point x="125" y="366" type="curve"/>
      <point x="125" y="415"/>
      <point x="139" y="455"/>
      <point x="183" y="475" type="curve"/>
      <point x="146" y="519"/>
      <point x="183" y="475"/>
    </contour>
  </outline>
</glyph>
<glyph name="dieresis" format="1">
  <advance width="366"/>
  <unicode hex="00A8"/>
  <outline>
    <contour>
      <point x="151" y="676" type="curve"/>
      <point x="151" y="702"/>
      <point x="134" y="716"/>
      <point x="110" y="716" type="curve"/>
      <point x="86" y="716"/>
      <point x="71" y="701"/>
      <point x="71" y="676" type="curve"/>
      <point x="153" y="676"/>
      <point x="69" y="676"/>
      <point x="151" y="676" type="curve"/>
      <point x="151" y="649"/>
      <point x="134" y="637"/>
      <point x="110" y="637" type="curve"/>
      <point x="86" y="637"/>
      <point x="71" y="650"/>
      <point x="71" y="676" type="curve"/>
      <point x="153" y="676"/>
      <point x="69" y="676"/>
    </contour>
    <contour>
      <point x="274" y="676" type="curve"/>
      <point x="274" y="702"/>
      <point x="257" y="716"/>
      <point x="234" y="716" type="curve"/>
      <point x="210" y="716"/>
      <point x="195" y="701"/>
      <point x="195" y="676" type="curve"/>
      <point x="276" y="676"/>
      <point x="192" y="676"/>
      <point x="274" y="676" type="curve"/>
      <point x="274" y="649"/>
      <point x="258" y="637"/>
      <point x="234" y="637" type="curve"/>
      <point x="209" y="637"/>
      <point x="195" y="650"/>
      <point x="195" y="676" type="curve"/>
      <point x="276" y="676"/>
      <point x="192" y="676"/>
    </contour>
    <contour>
      <point x="173" y="641" type="move" name="_top"/>
    </contour>
  </outline>
</glyph>
<glyph name="copyright" format="1">
  <advance width="558"/>
  <unicode hex="00A9"/>
  <outline>
    <contour>
      <point x="118" y="321" type="curve"/>
      <point x="118" y="465"/>
      <point x="158" y="596"/>
      <point x="281" y="596" type="curve"/>
      <point x="402" y="596"/>
      <point x="441" y="463"/>
      <point x="441" y="320" type="curve"/>
      <point x="441" y="180"/>
      <point x="404" y="49"/>
      <point x="286" y="49" type="curve"/>
      <point x="164" y="49"/>
      <point x="118" y="178"/>
      <point x="118" y="321" type="curve"/>
      <point x="56" y="321"/>
      <point x="119" y="321"/>
      <point x="57" y="321" type="curve"/>
      <point x="57" y="149"/>
      <point x="129" y="-1"/>
      <point x="283" y="-1" type="curve"/>
      <point x="435" y="-1"/>
      <point x="500" y="150"/>
      <point x="500" y="322" type="curve"/>
      <point x="500" y="495"/>
      <point x="433" y="646"/>
      <point x="281" y="646" type="curve"/>
      <point x="127" y="646"/>
      <point x="57" y="495"/>
      <point x="57" y="321" type="curve"/>
      <point x="119" y="321"/>
      <point x="56" y="321"/>
    </contour>
    <contour>
      <point x="378" y="450" type="curve"/>
      <point x="351" y="489"/>
      <point x="323" y="503"/>
      <point x="286" y="503" type="curve"/>
      <point x="195" y="503"/>
      <point x="163" y="422"/>
      <point x="163" y="321" type="curve"/>
      <point x="163" y="222"/>
      <point x="189" y="143"/>
      <point x="276" y="143" type="curve"/>
      <point x="320" y="143"/>
      <point x="350" y="155"/>
      <point x="378" y="200" type="curve"/>
      <point x="338" y="228"/>
      <point x="378" y="200"/>
      <point x="338" y="228" type="curve"/>
      <point x="323" y="207"/>
      <point x="306" y="193"/>
      <point x="279" y="193" type="curve"/>
      <point x="223" y="193"/>
      <point x="220" y="255"/>
      <point x="220" y="323" type="curve"/>
      <point x="220" y="391"/>
      <point x="226" y="454"/>
      <point x="283" y="454" type="curve"/>
      <point x="305" y="454"/>
      <point x="320" y="446"/>
      <point x="333" y="427" type="curve"/>
      <point x="381" y="451"/>
      <point x="329" y="426"/>
    </contour>
  </outline>
</glyph>
<glyph name="ordfeminine" format="1">
  <advance width="321"/>
  <unicode hex="00AA"/>
  <outline>
    <contour>
      <point x="247" y="428" type="curve"/>
      <point x="247" y="514"/>
      <point x="247" y="587"/>
      <point x="247" y="673" type="curve"/>
      <point x="247" y="732"/>
      <point x="212" y="767"/>
      <point x="157" y="767" type="curve"/>
      <point x="116" y="767"/>
      <point x="92" y="747"/>
      <point x="69" y="719" type="curve"/>
      <point x="86" y="691"/>
      <point x="74" y="713"/>
      <point x="92" y="684" type="curve"/>
      <point x="106" y="702"/>
      <point x="120" y="723"/>
      <point x="150" y="723" type="curve"/>
      <point x="181" y="723"/>
      <point x="195" y="698"/>
      <point x="195" y="665" type="curve"/>
      <point x="195" y="580"/>
      <point x="195" y="512"/>
      <point x="195" y="428" type="curve"/>
      <point x="238" y="428"/>
      <point x="204" y="428"/>
    </contour>
    <contour>
      <point x="220" y="639" type="curve"/>
      <point x="191" y="633"/>
      <point x="173" y="630"/>
      <point x="144" y="624" type="curve"/>
      <point x="89" y="613"/>
      <point x="54" y="581"/>
      <point x="54" y="524" type="curve"/>
      <point x="54" y="467"/>
      <point x="82" y="427"/>
      <point x="138" y="427" type="curve"/>
      <point x="189" y="427"/>
      <point x="208" y="471"/>
      <point x="234" y="513" type="curve"/>
      <point x="213" y="531"/>
      <point x="230" y="517"/>
      <point x="208" y="536" type="curve"/>
      <point x="194" y="500"/>
      <point x="184" y="469"/>
      <point x="150" y="469" type="curve"/>
      <point x="117" y="469"/>
      <point x="104" y="494"/>
      <point x="104" y="527" type="curve"/>
      <point x="104" y="558"/>
      <point x="120" y="581"/>
      <point x="146" y="587" type="curve"/>
      <point x="176" y="593"/>
      <point x="192" y="596"/>
      <point x="222" y="603" type="curve"/>
      <point x="220" y="632"/>
      <point x="221" y="610"/>
    </contour>
  </outline>
</glyph>
<glyph name="guillemotleft" format="1">
  <advance width="419"/>
  <unicode hex="00AB"/>
  <outline>
    <contour>
      <point x="200" y="438" type="curve"/>
      <point x="184" y="423"/>
      <point x="60" y="333"/>
      <point x="44" y="318" type="curve"/>
      <point x="44" y="253"/>
      <point x="44" y="308"/>
      <point x="44" y="243" type="curve"/>
      <point x="60" y="258"/>
      <point x="184" y="354"/>
      <point x="200" y="369" type="curve"/>
      <point x="200" y="433"/>
      <point x="200" y="374"/>
    </contour>
    <contour>
      <point x="200" y="193" type="curve"/>
      <point x="185" y="208"/>
      <point x="60" y="303"/>
      <point x="44" y="318" type="curve"/>
      <point x="44" y="253"/>
      <point x="44" y="308"/>
      <point x="44" y="243" type="curve"/>
      <point x="60" y="229"/>
      <point x="185" y="139"/>
      <point x="200" y="125" type="curve"/>
      <point x="200" y="189"/>
      <point x="200" y="130"/>
    </contour>
    <contour>
      <point x="348" y="438" type="curve"/>
      <point x="332" y="423"/>
      <point x="208" y="333"/>
      <point x="192" y="318" type="curve"/>
      <point x="192" y="253"/>
      <point x="192" y="308"/>
      <point x="192" y="243" type="curve"/>
      <point x="208" y="258"/>
      <point x="332" y="354"/>
      <point x="348" y="369" type="curve"/>
      <point x="348" y="433"/>
      <point x="348" y="374"/>
    </contour>
    <contour>
      <point x="348" y="193" type="curve"/>
      <point x="333" y="208"/>
      <point x="208" y="303"/>
      <point x="192" y="318" type="curve"/>
      <point x="192" y="253"/>
      <point x="192" y="308"/>
      <point x="192" y="243" type="curve"/>
      <point x="208" y="229"/>
      <point x="333" y="139"/>
      <point x="348" y="125" type="curve"/>
      <point x="348" y="189"/>
      <point x="348" y="130"/>
    </contour>
  </outline>
</glyph>
<glyph name="logicalnot" format="1">
  <advance width="534"/>
  <unicode hex="00AC"/>
  <outline>
    <contour>
      <point x="77" y="280" type="curve"/>
      <point x="454" y="280" type="line"/>
      <point x="454" y="344"/>
      <point x="454" y="280"/>
      <point x="454" y="344" type="curve"/>
      <point x="77" y="344" type="line"/>
      <point x="77" y="280"/>
      <point x="77" y="344"/>
    </contour>
    <contour>
      <point x="454" y="147" type="curve"/>
      <point x="454" y="344" type="line"/>
      <point x="381" y="344"/>
      <point x="454" y="344"/>
      <point x="381" y="344" type="curve"/>
      <point x="381" y="147" type="line"/>
      <point x="454" y="147"/>
      <point x="381" y="147"/>
    </contour>
  </outline>
</glyph>
<glyph name="registered" format="1">
  <advance width="571"/>
  <unicode hex="00AE"/>
  <outline>
    <contour>
      <point x="112" y="320" type="curve"/>
      <point x="112" y="469"/>
      <point x="158" y="600"/>
      <point x="288" y="600" type="curve"/>
      <point x="417" y="600"/>
      <point x="460" y="468"/>
      <point x="460" y="319" type="curve"/>
      <point x="460" y="173"/>
      <point x="419" y="44"/>
      <point x="293" y="44" type="curve"/>
      <point x="163" y="44"/>
      <point x="112" y="171"/>
      <point x="112" y="320" type="curve"/>
      <point x="83" y="320"/>
      <point x="88" y="320"/>
      <point x="59" y="320" type="curve"/>
      <point x="59" y="144"/>
      <point x="131" y="-1"/>
      <point x="290" y="-1" type="curve"/>
      <point x="448" y="-1"/>
      <point x="512" y="145"/>
      <point x="512" y="321" type="curve"/>
      <point x="512" y="498"/>
      <point x="446" y="645"/>
      <point x="288" y="645" type="curve"/>
      <point x="128" y="645"/>
      <point x="59" y="498"/>
      <point x="59" y="320" type="curve"/>
      <point x="88" y="320"/>
      <point x="83" y="320"/>
    </contour>
    <contour>
      <point x="276" y="314" type="curve"/>
      <point x="287" y="282"/>
      <point x="326" y="177"/>
      <point x="337" y="146" type="curve"/>
      <point x="367" y="146"/>
      <point x="358" y="146"/>
      <point x="389" y="146" type="curve"/>
      <point x="378" y="176"/>
      <point x="339" y="279"/>
      <point x="327" y="311" type="curve"/>
      <point x="261" y="311"/>
      <point x="343" y="315"/>
    </contour>
    <contour>
      <point x="265" y="146" type="curve"/>
      <point x="265" y="250"/>
      <point x="265" y="394"/>
      <point x="265" y="498" type="curve"/>
      <point x="228" y="498"/>
      <point x="250" y="498"/>
      <point x="210" y="498" type="curve"/>
      <point x="210" y="395"/>
      <point x="210" y="249"/>
      <point x="210" y="146" type="curve"/>
      <point x="249" y="146"/>
      <point x="220" y="146"/>
    </contour>
    <contour>
      <point x="242" y="284" type="curve"/>
      <point x="254" y="284"/>
      <point x="266" y="284"/>
      <point x="278" y="284" type="curve"/>
      <point x="342" y="284"/>
      <point x="377" y="324"/>
      <point x="377" y="392" type="curve"/>
      <point x="377" y="453"/>
      <point x="347" y="498"/>
      <point x="291" y="498" type="curve"/>
      <point x="284" y="498"/>
      <point x="223" y="498"/>
      <point x="217" y="498" type="curve"/>
      <point x="210" y="468"/>
      <point x="271" y="498"/>
      <point x="210" y="449" type="curve"/>
      <point x="233" y="449"/>
      <point x="256" y="449"/>
      <point x="280" y="449" type="curve"/>
      <point x="309" y="449"/>
      <point x="322" y="423"/>
      <point x="322" y="389" type="curve"/>
      <point x="322" y="358"/>
      <point x="313" y="334"/>
      <point x="287" y="334" type="curve"/>
      <point x="272" y="334"/>
      <point x="256" y="334"/>
      <point x="242" y="334" type="curve"/>
      <point x="242" y="284"/>
      <point x="242" y="334"/>
    </contour>
  </outline>
</glyph>
<glyph name="macron" format="1">
  <advance width="250"/>
  <unicode hex="00AF"/>
  <outline>
    <contour>
      <point x="175" y="684" type="curve"/>
      <point x="129" y="684"/>
      <point x="81" y="684"/>
      <point x="34" y="684" type="curve"/>
      <point x="34" y="626"/>
      <point x="34" y="684"/>
      <point x="34" y="626" type="curve"/>
      <point x="81" y="626"/>
      <point x="129" y="626"/>
      <point x="175" y="626" type="curve"/>
      <point x="175" y="684"/>
      <point x="175" y="626"/>
    </contour>
    <contour>
      <point x="105" y="626" type="move" name="_top"/>
    </contour>
  </outline>
</glyph>
<glyph name="degree" format="1">
  <advance width="359"/>
  <unicode hex="00B0"/>
  <outline>
    <contour>
      <point x="303" y="521" type="curve"/>
      <point x="303" y="626"/>
      <point x="272" y="709"/>
      <point x="179" y="709" type="curve"/>
      <point x="86" y="709"/>
      <point x="56" y="626"/>
      <point x="56" y="522" type="curve"/>
      <point x="82" y="522"/>
      <point x="91" y="522"/>
      <point x="116" y="522" type="curve"/>
      <point x="116" y="592"/>
      <point x="119" y="655"/>
      <point x="177" y="655" type="curve"/>
      <point x="236" y="655"/>
      <point x="241" y="591"/>
      <point x="241" y="521" type="curve"/>
      <point x="241" y="449"/>
      <point x="239" y="384"/>
      <point x="179" y="384" type="curve"/>
      <point x="119" y="384"/>
      <point x="116" y="450"/>
      <point x="116" y="522" type="curve"/>
      <point x="91" y="522"/>
      <point x="82" y="522"/>
      <point x="56" y="522" type="curve"/>
      <point x="56" y="415"/>
      <point x="84" y="330"/>
      <point x="179" y="330" type="curve"/>
      <point x="274" y="330"/>
      <point x="303" y="415"/>
    </contour>
  </outline>
</glyph>
<glyph name="plusminus" format="1">
  <advance width="601"/>
  <unicode hex="00B1"/>
  <outline>
    <contour>
      <point x="60" y="36" type="line"/>
      <point x="541" y="36" type="line"/>
      <point x="541" y="100" type="line"/>
      <point x="60" y="100" type="line"/>
    </contour>
    <contour>
      <point x="60" y="280" type="curve"/>
      <point x="541" y="280" type="line"/>
      <point x="541" y="344"/>
      <point x="541" y="280"/>
      <point x="541" y="344" type="curve"/>
      <point x="60" y="344" type="line"/>
      <point x="60" y="280"/>
      <point x="60" y="344"/>
    </contour>
    <contour>
      <point x="335" y="37" type="curve"/>
      <point x="335" y="583" type="line"/>
      <point x="262" y="583"/>
      <point x="339" y="583"/>
      <point x="266" y="583" type="curve"/>
      <point x="266" y="37" type="line"/>
      <point x="339" y="37"/>
      <point x="262" y="37"/>
    </contour>
  </outline>
</glyph>
<glyph name="twosuperior" format="1">
  <advance width="344"/>
  <unicode hex="00B2"/>
  <outline>
    <contour>
      <point x="54" y="338" type="curve"/>
      <point x="125" y="338"/>
      <point x="213" y="338"/>
      <point x="283" y="338" type="curve"/>
      <point x="283" y="362"/>
      <point x="283" y="358"/>
      <point x="283" y="386" type="curve"/>
      <point x="210" y="386"/>
      <point x="126" y="386"/>
      <point x="54" y="386" type="curve"/>
      <point x="54" y="338"/>
      <point x="54" y="386"/>
    </contour>
    <contour>
      <point x="118" y="644" type="curve"/>
      <point x="126" y="678"/>
      <point x="136" y="710"/>
      <point x="170" y="710" type="curve"/>
      <point x="206" y="710"/>
      <point x="217" y="673"/>
      <point x="217" y="630" type="curve"/>
      <point x="217" y="588"/>
      <point x="198" y="562"/>
      <point x="173" y="528" type="curve"/>
      <point x="133" y="481"/>
      <point x="93" y="433"/>
      <point x="54" y="386" type="curve"/>
      <point x="60" y="337"/>
      <point x="53" y="386"/>
      <point x="60" y="337" type="curve"/>
      <point x="107" y="387"/>
      <point x="169" y="438"/>
      <point x="212" y="490" type="curve"/>
      <point x="247" y="536"/>
      <point x="272" y="573"/>
      <point x="272" y="633" type="curve"/>
      <point x="272" y="704"/>
      <point x="238" y="758"/>
      <point x="171" y="758" type="curve"/>
      <point x="118" y="758"/>
      <point x="87" y="727"/>
      <point x="73" y="659" type="curve"/>
      <point x="118" y="644"/>
      <point x="73" y="659"/>
    </contour>
    <contour>
      <point x="183" y="759" type="move" name="_top"/>
    </contour>
    <contour>
      <point x="160" y="337" type="move" name="_bottom"/>
    </contour>
  </outline>
</glyph>
<glyph name="threesuperior" format="1">
  <advance width="310"/>
  <unicode hex="00B3"/>
  <outline>
    <contour>
      <point x="94" y="672" type="curve"/>
      <point x="104" y="689"/>
      <point x="117" y="708"/>
      <point x="139" y="708" type="curve"/>
      <point x="172" y="708"/>
      <point x="187" y="678"/>
      <point x="187" y="639" type="curve"/>
      <point x="187" y="600"/>
      <point x="155" y="573"/>
      <point x="113" y="568" type="curve"/>
      <point x="113" y="527"/>
      <point x="113" y="568"/>
      <point x="113" y="527" type="curve"/>
      <point x="190" y="530"/>
      <point x="246" y="572"/>
      <point x="246" y="644" type="curve"/>
      <point x="246" y="711"/>
      <point x="210" y="756"/>
      <point x="145" y="756" type="curve"/>
      <point x="107" y="756"/>
      <point x="74" y="733"/>
      <point x="56" y="701" type="curve"/>
      <point x="94" y="672"/>
      <point x="56" y="701"/>
    </contour>
    <contour>
      <point x="54" y="366" type="curve"/>
      <point x="77" y="345"/>
      <point x="103" y="332"/>
      <point x="134" y="332" type="curve"/>
      <point x="210" y="330"/>
      <point x="256" y="377"/>
      <point x="256" y="452" type="curve"/>
      <point x="256" y="525"/>
      <point x="193" y="557"/>
      <point x="113" y="561" type="curve"/>
      <point x="113" y="525"/>
      <point x="113" y="561"/>
      <point x="113" y="525" type="curve"/>
      <point x="163" y="520"/>
      <point x="196" y="492"/>
      <point x="196" y="449" type="curve"/>
      <point x="196" y="410"/>
      <point x="177" y="378"/>
      <point x="139" y="380" type="curve"/>
      <point x="118" y="380"/>
      <point x="100" y="388"/>
      <point x="85" y="402" type="curve"/>
      <point x="54" y="366"/>
      <point x="85" y="402"/>
    </contour>
    <contour>
      <point x="162" y="756" type="move" name="_top"/>
    </contour>
    <contour>
      <point x="153" y="332" type="move" name="_bottom"/>
    </contour>
  </outline>
</glyph>
<glyph name="paragraph" format="1">
  <advance width="571"/>
  <unicode hex="00B6"/>
  <outline>
    <contour>
      <point x="302" y="663" type="curve"/>
      <point x="427" y="663"/>
      <point x="302" y="663"/>
      <point x="427" y="663" type="curve"/>
      <point x="427" y="722"/>
      <point x="427" y="663"/>
      <point x="427" y="722" type="curve"/>
      <point x="385" y="722"/>
      <point x="344" y="722"/>
      <point x="302" y="722" type="curve"/>
      <point x="302" y="663"/>
      <point x="302" y="722"/>
    </contour>
    <contour>
      <point x="290" y="364" type="curve"/>
      <point x="261" y="341"/>
      <point x="238" y="326"/>
      <point x="202" y="326" type="curve"/>
      <point x="131" y="326"/>
      <point x="111" y="401"/>
      <point x="111" y="485" type="curve"/>
      <point x="111" y="580"/>
      <point x="143" y="663"/>
      <point x="226" y="663" type="curve"/>
      <point x="251" y="663"/>
      <point x="275" y="663"/>
      <point x="300" y="663" type="curve"/>
      <point x="300" y="722"/>
      <point x="300" y="663"/>
      <point x="300" y="722" type="curve"/>
      <point x="273" y="722"/>
      <point x="244" y="722"/>
      <point x="216" y="722" type="curve"/>
      <point x="97" y="722"/>
      <point x="38" y="617"/>
      <point x="38" y="488" type="curve"/>
      <point x="38" y="360"/>
      <point x="94" y="271"/>
      <point x="207" y="269" type="curve"/>
      <point x="249" y="269"/>
      <point x="282" y="290"/>
      <point x="313" y="314" type="curve"/>
      <point x="290" y="363"/>
      <point x="313" y="316"/>
    </contour>
    <contour>
      <point x="340" y="0" type="curve"/>
      <point x="340" y="241"/>
      <point x="340" y="481"/>
      <point x="340" y="722" type="curve"/>
      <point x="267" y="722"/>
      <point x="340" y="722"/>
      <point x="267" y="722" type="curve"/>
      <point x="267" y="481"/>
      <point x="267" y="241"/>
      <point x="267" y="0" type="curve"/>
      <point x="340" y="0"/>
      <point x="267" y="0"/>
    </contour>
    <contour>
      <point x="488" y="0" type="curve"/>
      <point x="488" y="241"/>
      <point x="488" y="481"/>
      <point x="488" y="722" type="curve"/>
      <point x="416" y="722"/>
      <point x="488" y="722"/>
      <point x="416" y="722" type="curve"/>
      <point x="416" y="481"/>
      <point x="416" y="241"/>
      <point x="416" y="0" type="curve"/>
      <point x="488" y="0"/>
      <point x="416" y="0"/>
    </contour>
  </outline>
</glyph>
<glyph name="periodcentered" format="1">
  <advance width="209"/>
  <unicode hex="00B7"/>
  <outline>
    <contour>
      <point x="144" y="440" type="curve"/>
      <point x="144" y="466"/>
      <point x="128" y="480"/>
      <point x="104" y="480" type="curve"/>
      <point x="80" y="480"/>
      <point x="65" y="465"/>
      <point x="65" y="440" type="curve"/>
      <point x="147" y="440"/>
      <point x="63" y="440"/>
      <point x="144" y="440" type="curve"/>
      <point x="144" y="413"/>
      <point x="128" y="401"/>
      <point x="104" y="401" type="curve"/>
      <point x="79" y="401"/>
      <point x="65" y="414"/>
      <point x="65" y="440" type="curve"/>
      <point x="147" y="440"/>
      <point x="63" y="440"/>
    </contour>
  </outline>
</glyph>
<glyph name="cedilla" format="1">
  <advance width="259"/>
  <unicode hex="00B8"/>
  <outline>
    <contour>
      <point x="121" y="79" type="curve"/>
      <point x="112" y="54"/>
      <point x="93" y="-1"/>
      <point x="84" y="-26" type="curve"/>
      <point x="134" y="-73"/>
      <point x="84" y="-26"/>
      <point x="134" y="-73" type="curve"/>
      <point x="144" y="-46"/>
      <point x="167" y="11"/>
      <point x="177" y="38" type="curve"/>
      <point x="121" y="79"/>
      <point x="177" y="38"/>
    </contour>
    <contour>
      <point x="134" y="-73" type="curve"/>
      <point x="141" y="-66"/>
      <point x="145" y="-62"/>
      <point x="154" y="-62" type="curve"/>
      <point x="172" y="-62"/>
      <point x="175" y="-79"/>
      <point x="175" y="-100" type="curve"/>
      <point x="175" y="-123"/>
      <point x="164" y="-139"/>
      <point x="143" y="-139" type="curve"/>
      <point x="127" y="-139"/>
      <point x="114" y="-135"/>
      <point x="102" y="-124" type="curve"/>
      <point x="73" y="-167"/>
      <point x="102" y="-124"/>
      <point x="73" y="-167" type="curve"/>
      <point x="93" y="-184"/>
      <point x="113" y="-191"/>
      <point x="140" y="-191" type="curve"/>
      <point x="191" y="-191"/>
      <point x="221" y="-154"/>
      <point x="221" y="-99" type="curve"/>
      <point x="221" y="-46"/>
      <point x="196" y="-6"/>
      <point x="147" y="-6" type="curve"/>
      <point x="123" y="-6"/>
      <point x="105" y="-11"/>
      <point x="84" y="-26" type="curve"/>
      <point x="134" y="-73"/>
      <point x="84" y="-26"/>
    </contour>
    <contour>
      <point x="175" y="38" type="move" name="_bottom"/>
    </contour>
  </outline>
</glyph>
<glyph name="onesuperior" format="1">
  <advance width="243"/>
  <unicode hex="00B9"/>
  <outline>
    <contour>
      <point x="60" y="613" type="line"/>
      <point x="162" y="743" type="line"/>
      <point x="105" y="748" type="line"/>
      <point x="22" y="648" type="line"/>
    </contour>
    <contour>
      <point x="164" y="338" type="curve"/>
      <point x="164" y="748" type="line"/>
      <point x="105" y="748" type="line"/>
      <point x="105" y="338" type="line"/>
      <point x="140" y="338"/>
      <point x="121" y="338"/>
    </contour>
    <contour>
      <point x="129" y="747" type="move" name="_top"/>
    </contour>
    <contour>
      <point x="135" y="341" type="move" name="_bottom"/>
    </contour>
  </outline>
</glyph>
<glyph name="ordmasculine" format="1">
  <advance width="311"/>
  <unicode hex="00BA"/>
  <outline>
    <contour>
      <point x="97" y="600" type="curve"/>
      <point x="97" y="664"/>
      <point x="103" y="722"/>
      <point x="156" y="722" type="curve"/>
      <point x="206" y="722"/>
      <point x="211" y="663"/>
      <point x="211" y="599" type="curve"/>
      <point x="211" y="529"/>
      <point x="207" y="467"/>
      <point x="160" y="467" type="curve"/>
      <point x="101" y="467"/>
      <point x="97" y="530"/>
      <point x="97" y="600" type="curve"/>
      <point x="89" y="600"/>
      <point x="58" y="600"/>
      <point x="49" y="600" type="curve"/>
      <point x="49" y="502"/>
      <point x="73" y="424"/>
      <point x="158" y="424" type="curve"/>
      <point x="238" y="424"/>
      <point x="263" y="501"/>
      <point x="263" y="599" type="curve"/>
      <point x="263" y="692"/>
      <point x="239" y="764"/>
      <point x="158" y="764" type="curve"/>
      <point x="74" y="764"/>
      <point x="49" y="692"/>
      <point x="49" y="600" type="curve"/>
      <point x="58" y="600"/>
      <point x="89" y="600"/>
    </contour>
  </outline>
</glyph>
<glyph name="guillemotright" format="1">
  <advance width="428"/>
  <unicode hex="00BB"/>
  <outline>
    <contour>
      <point x="226" y="438" type="curve"/>
      <point x="241" y="423"/>
      <point x="365" y="333"/>
      <point x="381" y="318" type="curve"/>
      <point x="381" y="253"/>
      <point x="381" y="308"/>
      <point x="381" y="243" type="curve"/>
      <point x="365" y="258"/>
      <point x="241" y="354"/>
      <point x="226" y="369" type="curve"/>
      <point x="226" y="433"/>
      <point x="226" y="374"/>
    </contour>
    <contour>
      <point x="225" y="193" type="curve"/>
      <point x="241" y="208"/>
      <point x="365" y="303"/>
      <point x="381" y="318" type="curve"/>
      <point x="381" y="253"/>
      <point x="381" y="308"/>
      <point x="381" y="243" type="curve"/>
      <point x="365" y="229"/>
      <point x="241" y="139"/>
      <point x="225" y="125" type="curve"/>
      <point x="225" y="189"/>
      <point x="225" y="130"/>
    </contour>
    <contour>
      <point x="78" y="438" type="curve"/>
      <point x="93" y="423"/>
      <point x="217" y="333"/>
      <point x="233" y="318" type="curve"/>
      <point x="233" y="253"/>
      <point x="233" y="308"/>
      <point x="233" y="243" type="curve"/>
      <point x="217" y="258"/>
      <point x="93" y="354"/>
      <point x="78" y="369" type="curve"/>
      <point x="78" y="433"/>
      <point x="78" y="374"/>
    </contour>
    <contour>
      <point x="77" y="193" type="curve"/>
      <point x="93" y="208"/>
      <point x="217" y="303"/>
      <point x="233" y="318" type="curve"/>
      <point x="233" y="253"/>
      <point x="233" y="308"/>
      <point x="233" y="243" type="curve"/>
      <point x="217" y="229"/>
      <point x="93" y="139"/>
      <point x="77" y="125" type="curve"/>
      <point x="77" y="189"/>
      <point x="77" y="130"/>
    </contour>
  </outline>
</glyph>
<glyph name="onequarter" format="1">
  <advance width="670"/>
  <unicode hex="00BC"/>
  <outline>
    <contour>
      <point x="225" y="-69" type="line"/>
      <point x="494" y="736" type="line"/>
      <point x="424" y="736" type="line"/>
      <point x="156" y="-69" type="line"/>
    </contour>
    <contour>
      <point x="67" y="604" type="line"/>
      <point x="169" y="734" type="line"/>
      <point x="112" y="739" type="line"/>
      <point x="29" y="639" type="line"/>
    </contour>
    <contour>
      <point x="171" y="328" type="curve"/>
      <point x="171" y="739" type="line"/>
      <point x="112" y="739" type="line"/>
      <point x="112" y="328" type="line"/>
      <point x="147" y="328"/>
      <point x="127" y="328"/>
    </contour>
    <contour>
      <point x="635" y="94" type="line"/>
      <point x="369" y="94" type="line"/>
      <point x="369" y="47" type="line"/>
      <point x="635" y="47" type="line"/>
    </contour>
    <contour>
      <point x="396" y="48" type="line"/>
      <point x="555" y="353" type="line"/>
      <point x="511" y="365" type="line"/>
      <point x="369" y="94" type="line"/>
    </contour>
    <contour>
      <point x="569" y="-63" type="line"/>
      <point x="569" y="365" type="line"/>
      <point x="511" y="365" type="line"/>
      <point x="511" y="-63" type="line"/>
    </contour>
  </outline>
</glyph>
<glyph name="onehalf" format="1">
  <advance width="721"/>
  <unicode hex="00BD"/>
  <outline>
    <contour>
      <point x="253" y="-69" type="line"/>
      <point x="522" y="736" type="line"/>
      <point x="452" y="736" type="line"/>
      <point x="184" y="-69" type="line"/>
    </contour>
    <contour>
      <point x="67" y="604" type="line"/>
      <point x="169" y="734" type="line"/>
      <point x="112" y="739" type="line"/>
      <point x="29" y="639" type="line"/>
    </contour>
    <contour>
      <point x="171" y="328" type="curve"/>
      <point x="171" y="739" type="line"/>
      <point x="112" y="739" type="line"/>
      <point x="112" y="328" type="line"/>
      <point x="147" y="328"/>
      <point x="127" y="328"/>
    </contour>
    <contour>
      <point x="452" y="-65" type="curve"/>
      <point x="523" y="-65"/>
      <point x="611" y="-65"/>
      <point x="681" y="-65" type="curve"/>
      <point x="681" y="-41"/>
      <point x="681" y="-45"/>
      <point x="681" y="-17" type="curve"/>
      <point x="608" y="-17"/>
      <point x="523" y="-17"/>
      <point x="452" y="-17" type="curve"/>
      <point x="452" y="-65"/>
      <point x="452" y="-17"/>
    </contour>
    <contour>
      <point x="516" y="242" type="curve"/>
      <point x="524" y="275"/>
      <point x="534" y="307"/>
      <point x="568" y="307" type="curve"/>
      <point x="604" y="307"/>
      <point x="614" y="270"/>
      <point x="614" y="227" type="curve"/>
      <point x="614" y="185"/>
      <point x="596" y="159"/>
      <point x="571" y="125" type="curve"/>
      <point x="531" y="78"/>
      <point x="491" y="30"/>
      <point x="452" y="-17" type="curve"/>
      <point x="458" y="-65"/>
      <point x="451" y="-17"/>
      <point x="458" y="-65" type="curve"/>
      <point x="505" y="-15"/>
      <point x="566" y="36"/>
      <point x="610" y="87" type="curve"/>
      <point x="645" y="134"/>
      <point x="670" y="170"/>
      <point x="670" y="230" type="curve"/>
      <point x="670" y="302"/>
      <point x="636" y="355"/>
      <point x="569" y="355" type="curve"/>
      <point x="516" y="355"/>
      <point x="485" y="324"/>
      <point x="471" y="257" type="curve"/>
      <point x="516" y="242"/>
      <point x="471" y="257"/>
    </contour>
  </outline>
</glyph>
<glyph name="threequarters" format="1">
  <advance width="712"/>
  <unicode hex="00BE"/>
  <outline>
    <contour>
      <point x="268" y="-69" type="line"/>
      <point x="537" y="736" type="line"/>
      <point x="467" y="736" type="line"/>
      <point x="199" y="-69" type="line"/>
    </contour>
    <contour>
      <point x="84" y="653" type="curve"/>
      <point x="94" y="670"/>
      <point x="107" y="689"/>
      <point x="129" y="689" type="curve"/>
      <point x="162" y="689"/>
      <point x="177" y="659"/>
      <point x="177" y="620" type="curve"/>
      <point x="177" y="581"/>
      <point x="145" y="553"/>
      <point x="103" y="549" type="curve"/>
      <point x="103" y="508"/>
      <point x="103" y="549"/>
      <point x="103" y="508" type="curve"/>
      <point x="180" y="511"/>
      <point x="236" y="553"/>
      <point x="236" y="625" type="curve"/>
      <point x="236" y="692"/>
      <point x="200" y="737"/>
      <point x="135" y="737" type="curve"/>
      <point x="97" y="737"/>
      <point x="64" y="714"/>
      <point x="46" y="682" type="curve"/>
      <point x="84" y="653"/>
      <point x="46" y="682"/>
    </contour>
    <contour>
      <point x="44" y="347" type="curve"/>
      <point x="67" y="325"/>
      <point x="93" y="313"/>
      <point x="124" y="313" type="curve"/>
      <point x="200" y="310"/>
      <point x="246" y="358"/>
      <point x="246" y="433" type="curve"/>
      <point x="246" y="506"/>
      <point x="183" y="538"/>
      <point x="103" y="541" type="curve"/>
      <point x="103" y="506"/>
      <point x="103" y="541"/>
      <point x="103" y="506" type="curve"/>
      <point x="153" y="501"/>
      <point x="186" y="473"/>
      <point x="186" y="430" type="curve"/>
      <point x="186" y="391"/>
      <point x="167" y="359"/>
      <point x="129" y="361" type="curve"/>
      <point x="108" y="361"/>
      <point x="90" y="369"/>
      <point x="75" y="383" type="curve"/>
      <point x="44" y="347"/>
      <point x="75" y="383"/>
    </contour>
    <contour>
      <point x="680" y="94" type="line"/>
      <point x="413" y="94" type="line"/>
      <point x="413" y="47" type="line"/>
      <point x="680" y="47" type="line"/>
    </contour>
    <contour>
      <point x="440" y="48" type="line"/>
      <point x="600" y="353" type="line"/>
      <point x="556" y="365" type="line"/>
      <point x="413" y="94" type="line"/>
    </contour>
    <contour>
      <point x="614" y="-63" type="line"/>
      <point x="614" y="365" type="line"/>
      <point x="556" y="365" type="line"/>
      <point x="556" y="-63" type="line"/>
    </contour>
  </outline>
</glyph>
<glyph name="questiondown" format="1">
  <advance width="399"/>
  <unicode hex="00BF"/>
  <outline>
    <contour>
      <point x="239" y="373" type="curve"/>
      <point x="239" y="410"/>
      <point x="239" y="469"/>
      <point x="239" y="506" type="curve"/>
      <point x="172" y="506"/>
      <point x="239" y="506"/>
      <point x="172" y="506" type="curve"/>
      <point x="172" y="469"/>
      <point x="172" y="410"/>
      <point x="172" y="373" type="curve"/>
      <point x="239" y="373"/>
      <point x="172" y="373"/>
    </contour>
    <contour>
      <point x="308" y="122" type="line"/>
      <point x="286" y="87"/>
      <point x="262" y="62"/>
      <point x="217" y="62" type="curve"/>
      <point x="145" y="62"/>
      <point x="119" y="129"/>
      <point x="119" y="208" type="curve"/>
      <point x="119" y="298"/>
      <point x="151" y="373"/>
      <point x="230" y="373" type="curve"/>
      <point x="230" y="404"/>
      <point x="230" y="400"/>
      <point x="230" y="431" type="curve"/>
      <point x="110" y="431"/>
      <point x="48" y="334"/>
      <point x="48" y="208" type="curve"/>
      <point x="48" y="89"/>
      <point x="106" y="-1"/>
      <point x="214" y="-1" type="curve"/>
      <point x="282" y="-1"/>
      <point x="322" y="30"/>
      <point x="350" y="77" type="curve"/>
    </contour>
    <contour>
      <point x="165" y="691" type="curve"/>
      <point x="165" y="664"/>
      <point x="183" y="650"/>
      <point x="206" y="650" type="curve"/>
      <point x="231" y="650"/>
      <point x="246" y="665"/>
      <point x="246" y="691" type="curve"/>
      <point x="165" y="691"/>
      <point x="246" y="691"/>
      <point x="165" y="691" type="curve"/>
      <point x="165" y="717"/>
      <point x="182" y="730"/>
      <point x="206" y="730" type="curve"/>
      <point x="231" y="730"/>
      <point x="246" y="717"/>
      <point x="246" y="691" type="curve"/>
      <point x="165" y="691"/>
      <point x="246" y="691"/>
    </contour>
  </outline>
</glyph>
<glyph name="Aacute" format="1">
  <advance width="456"/>
  <unicode hex="00C1"/>
  <outline>
    <contour>
      <point x="326" y="283" type="curve"/>
      <point x="260" y="283"/>
      <point x="194" y="283"/>
      <point x="127" y="283" type="curve"/>
      <point x="97" y="221"/>
      <point x="127" y="283"/>
      <point x="97" y="221" type="curve"/>
      <point x="182" y="221"/>
      <point x="266" y="221"/>
      <point x="350" y="221" type="curve"/>
      <point x="326" y="283"/>
      <point x="350" y="221"/>
    </contour>
    <contour>
      <point x="438" y="0" type="curve"/>
      <point x="381" y="241"/>
      <point x="321" y="481"/>
      <point x="264" y="722" type="curve"/>
      <point x="198" y="722"/>
      <point x="264" y="722"/>
      <point x="198" y="722" type="curve"/>
      <point x="253" y="481"/>
      <point x="306" y="241"/>
      <point x="362" y="0" type="curve"/>
      <point x="438" y="0"/>
      <point x="362" y="0"/>
    </contour>
    <contour>
      <point x="81" y="0" type="curve"/>
      <point x="143" y="241"/>
      <point x="200" y="481"/>
      <point x="263" y="722" type="curve"/>
      <point x="196" y="722"/>
      <point x="263" y="722"/>
      <point x="196" y="722" type="curve"/>
      <point x="133" y="481"/>
      <point x="64" y="241"/>
      <point x="1" y="0" type="curve"/>
      <point x="81" y="0"/>
      <point x="1" y="0"/>
    </contour>
    <contour>
      <point x="262" y="806" type="line"/>
      <point x="341" y="972" type="line"/>
      <point x="252" y="972" type="line"/>
      <point x="193" y="806" type="line"/>
    </contour>
  </outline>
</glyph>
<glyph name="Atilde" format="1">
  <advance width="456"/>
  <unicode hex="00C3"/>
  <outline>
    <contour>
      <point x="326" y="283" type="curve"/>
      <point x="260" y="283"/>
      <point x="194" y="283"/>
      <point x="127" y="283" type="curve"/>
      <point x="97" y="221"/>
      <point x="127" y="283"/>
      <point x="97" y="221" type="curve"/>
      <point x="182" y="221"/>
      <point x="266" y="221"/>
      <point x="350" y="221" type="curve"/>
      <point x="326" y="283"/>
      <point x="350" y="221"/>
    </contour>
    <contour>
      <point x="438" y="0" type="curve"/>
      <point x="381" y="241"/>
      <point x="321" y="481"/>
      <point x="264" y="722" type="curve"/>
      <point x="198" y="722"/>
      <point x="264" y="722"/>
      <point x="198" y="722" type="curve"/>
      <point x="253" y="481"/>
      <point x="306" y="241"/>
      <point x="362" y="0" type="curve"/>
      <point x="438" y="0"/>
      <point x="362" y="0"/>
    </contour>
    <contour>
      <point x="81" y="0" type="curve"/>
      <point x="143" y="241"/>
      <point x="200" y="481"/>
      <point x="263" y="722" type="curve"/>
      <point x="196" y="722"/>
      <point x="263" y="722"/>
      <point x="196" y="722" type="curve"/>
      <point x="133" y="481"/>
      <point x="64" y="241"/>
      <point x="1" y="0" type="curve"/>
      <point x="81" y="0"/>
      <point x="1" y="0"/>
    </contour>
    <contour>
      <point x="322" y="960" type="curve"/>
      <point x="310" y="917"/>
      <point x="304" y="885"/>
      <point x="281" y="885" type="curve"/>
      <point x="256" y="885"/>
      <point x="246" y="900"/>
      <point x="231" y="921" type="curve"/>
      <point x="213" y="945"/>
      <point x="201" y="963"/>
      <point x="172" y="963" type="curve"/>
      <point x="113" y="963"/>
      <point x="97" y="899"/>
      <point x="85" y="839" type="curve"/>
      <point x="140" y="809"/>
      <point x="85" y="839"/>
      <point x="140" y="809" type="curve"/>
      <point x="152" y="855"/>
      <point x="159" y="886"/>
      <point x="188" y="886" type="curve"/>
      <point x="210" y="886"/>
      <point x="217" y="871"/>
      <point x="229" y="853" type="curve"/>
      <point x="250" y="825"/>
      <point x="264" y="806"/>
      <point x="297" y="806" type="curve"/>
      <point x="356" y="806"/>
      <point x="364" y="869"/>
      <point x="381" y="932" type="curve"/>
      <point x="322" y="960"/>
      <point x="381" y="932"/>
    </contour>
  </outline>
</glyph>
<glyph name="Adieresis" format="1">
  <advance width="456"/>
  <unicode hex="00C4"/>
  <outline>
    <contour>
      <point x="326" y="283" type="curve"/>
      <point x="260" y="283"/>
      <point x="194" y="283"/>
      <point x="127" y="283" type="curve"/>
      <point x="97" y="221"/>
      <point x="127" y="283"/>
      <point x="97" y="221" type="curve"/>
      <point x="182" y="221"/>
      <point x="266" y="221"/>
      <point x="350" y="221" type="curve"/>
      <point x="326" y="283"/>
      <point x="350" y="221"/>
    </contour>
    <contour>
      <point x="438" y="0" type="curve"/>
      <point x="381" y="241"/>
      <point x="321" y="481"/>
      <point x="264" y="722" type="curve"/>
      <point x="198" y="722"/>
      <point x="264" y="722"/>
      <point x="198" y="722" type="curve"/>
      <point x="253" y="481"/>
      <point x="306" y="241"/>
      <point x="362" y="0" type="curve"/>
      <point x="438" y="0"/>
      <point x="362" y="0"/>
    </contour>
    <contour>
      <point x="81" y="0" type="curve"/>
      <point x="143" y="241"/>
      <point x="200" y="481"/>
      <point x="263" y="722" type="curve"/>
      <point x="196" y="722"/>
      <point x="263" y="722"/>
      <point x="196" y="722" type="curve"/>
      <point x="133" y="481"/>
      <point x="64" y="241"/>
      <point x="1" y="0" type="curve"/>
      <point x="81" y="0"/>
      <point x="1" y="0"/>
    </contour>
    <contour>
      <point x="207" y="841" type="curve"/>
      <point x="207" y="867"/>
      <point x="190" y="880"/>
      <point x="167" y="880" type="curve"/>
      <point x="142" y="880"/>
      <point x="127" y="866"/>
      <point x="127" y="841" type="curve"/>
      <point x="209" y="841"/>
      <point x="125" y="841"/>
      <point x="207" y="841" type="curve"/>
      <point x="207" y="814"/>
      <point x="191" y="801"/>
      <point x="167" y="801" type="curve"/>
      <point x="142" y="801"/>
      <point x="127" y="815"/>
      <point x="127" y="841" type="curve"/>
      <point x="209" y="841"/>
      <point x="125" y="841"/>
    </contour>
    <contour>
      <point x="330" y="841" type="curve"/>
      <point x="330" y="867"/>
      <point x="313" y="880"/>
      <point x="290" y="880" type="curve"/>
      <point x="266" y="880"/>
      <point x="251" y="866"/>
      <point x="251" y="841" type="curve"/>
      <point x="332" y="841"/>
      <point x="249" y="841"/>
      <point x="330" y="841" type="curve"/>
      <point x="330" y="814"/>
      <point x="314" y="801"/>
      <point x="290" y="801" type="curve"/>
      <point x="265" y="801"/>
      <point x="251" y="815"/>
      <point x="251" y="841" type="curve"/>
      <point x="332" y="841"/>
      <point x="249" y="841"/>
    </contour>
  </outline>
</glyph>
<glyph name="Aring" format="1">
  <advance width="456"/>
  <unicode hex="00C5"/>
  <outline>
    <contour>
      <point x="326" y="283" type="curve"/>
      <point x="260" y="283"/>
      <point x="194" y="283"/>
      <point x="127" y="283" type="curve"/>
      <point x="97" y="221"/>
      <point x="127" y="283"/>
      <point x="97" y="221" type="curve"/>
      <point x="182" y="221"/>
      <point x="266" y="221"/>
      <point x="350" y="221" type="curve"/>
      <point x="326" y="283"/>
      <point x="350" y="221"/>
    </contour>
    <contour>
      <point x="438" y="0" type="curve"/>
      <point x="381" y="241"/>
      <point x="321" y="481"/>
      <point x="264" y="722" type="curve"/>
      <point x="198" y="722"/>
      <point x="264" y="722"/>
      <point x="198" y="722" type="curve"/>
      <point x="253" y="481"/>
      <point x="306" y="241"/>
      <point x="362" y="0" type="curve"/>
      <point x="438" y="0"/>
      <point x="362" y="0"/>
    </contour>
    <contour>
      <point x="81" y="0" type="curve"/>
      <point x="143" y="241"/>
      <point x="200" y="481"/>
      <point x="263" y="722" type="curve"/>
      <point x="196" y="722"/>
      <point x="263" y="722"/>
      <point x="196" y="722" type="curve"/>
      <point x="133" y="481"/>
      <point x="64" y="241"/>
      <point x="1" y="0" type="curve"/>
      <point x="81" y="0"/>
      <point x="1" y="0"/>
    </contour>
    <contour>
      <point x="129" y="934" type="curve"/>
      <point x="129" y="861"/>
      <point x="161" y="805"/>
      <point x="228" y="805" type="curve"/>
      <point x="297" y="805"/>
      <point x="329" y="860"/>
      <point x="329" y="934" type="curve"/>
      <point x="329" y="1008"/>
      <point x="296" y="1064"/>
      <point x="226" y="1064" type="curve"/>
      <point x="159" y="1064"/>
      <point x="129" y="1008"/>
      <point x="129" y="934" type="curve"/>
      <point x="195" y="934"/>
      <point x="124" y="934"/>
      <point x="189" y="934" type="curve"/>
      <point x="189" y="971"/>
      <point x="191" y="1008"/>
      <point x="226" y="1008" type="curve"/>
      <point x="261" y="1008"/>
      <point x="265" y="972"/>
      <point x="265" y="934" type="curve"/>
      <point x="265" y="897"/>
      <point x="262" y="860"/>
      <point x="228" y="860" type="curve"/>
      <point x="193" y="860"/>
      <point x="189" y="897"/>
      <point x="189" y="934" type="curve"/>
      <point x="124" y="934"/>
      <point x="195" y="934"/>
    </contour>
  </outline>
</glyph>
<glyph name="AE" format="1">
  <advance width="643"/>
  <unicode hex="00C6"/>
  <outline>
    <contour>
      <point x="323" y="279" type="curve"/>
      <point x="257" y="279"/>
      <point x="208" y="279"/>
      <point x="141" y="279" type="curve"/>
      <point x="111" y="217"/>
      <point x="141" y="279"/>
      <point x="111" y="217" type="curve"/>
      <point x="196" y="217"/>
      <point x="263" y="217"/>
      <point x="347" y="217" type="curve"/>
      <point x="323" y="279"/>
      <point x="347" y="217"/>
    </contour>
    <contour>
      <point x="72" y="0" type="curve"/>
      <point x="377" y="722" type="line"/>
      <point x="311" y="722"/>
      <point x="378" y="722"/>
      <point x="311" y="722" type="curve"/>
      <point x="-7" y="0" type="line"/>
      <point x="73" y="0"/>
      <point x="-8" y="0"/>
    </contour>
    <contour>
      <point x="351" y="344" type="curve"/>
      <point x="420" y="344"/>
      <point x="488" y="344"/>
      <point x="558" y="344" type="curve"/>
      <point x="558" y="403"/>
      <point x="558" y="344"/>
      <point x="558" y="403" type="curve"/>
      <point x="488" y="403"/>
      <point x="420" y="403"/>
      <point x="351" y="403" type="curve"/>
      <point x="351" y="344"/>
      <point x="351" y="403"/>
    </contour>
    <contour>
      <point x="341" y="663" type="curve"/>
      <point x="427" y="663"/>
      <point x="511" y="663"/>
      <point x="597" y="663" type="curve"/>
      <point x="597" y="722"/>
      <point x="597" y="663"/>
      <point x="597" y="722" type="curve"/>
      <point x="511" y="722"/>
      <point x="427" y="722"/>
      <point x="341" y="722" type="curve"/>
      <point x="341" y="663"/>
      <point x="341" y="722"/>
    </contour>
    <contour>
      <point x="385" y="0" type="curve"/>
      <point x="385" y="722" type="line"/>
      <point x="312" y="722"/>
      <point x="385" y="722"/>
      <point x="312" y="722" type="curve"/>
      <point x="312" y="481"/>
      <point x="312" y="241"/>
      <point x="312" y="0" type="curve"/>
      <point x="385" y="0"/>
      <point x="312" y="0"/>
    </contour>
    <contour>
      <point x="341" y="0" type="curve"/>
      <point x="434" y="0"/>
      <point x="526" y="0"/>
      <point x="619" y="0" type="curve"/>
      <point x="619" y="59"/>
      <point x="619" y="0"/>
      <point x="619" y="59" type="curve"/>
      <point x="526" y="59"/>
      <point x="434" y="59"/>
      <point x="341" y="59" type="curve"/>
      <point x="341" y="0"/>
      <point x="341" y="59"/>
    </contour>
  </outline>
</glyph>
<glyph name="Ccedilla" format="1">
  <advance width="483"/>
  <unicode hex="00C7"/>
  <outline>
    <contour>
      <point x="446" y="655" type="curve"/>
      <point x="403" y="695"/>
      <point x="350" y="727"/>
      <point x="286" y="727" type="curve"/>
      <point x="105" y="727"/>
      <point x="57" y="558"/>
      <point x="57" y="344" type="curve"/>
      <point x="57" y="150"/>
      <point x="105" y="-5"/>
      <point x="274" y="-5" type="curve"/>
      <point x="358" y="-5"/>
      <point x="411" y="33"/>
      <point x="459" y="98" type="curve"/>
      <point x="414" y="141"/>
      <point x="459" y="98"/>
      <point x="413" y="141" type="curve"/>
      <point x="376" y="92"/>
      <point x="340" y="58"/>
      <point x="277" y="58" type="curve"/>
      <point x="148" y="58"/>
      <point x="130" y="191"/>
      <point x="130" y="347" type="curve"/>
      <point x="130" y="518"/>
      <point x="147" y="665"/>
      <point x="283" y="665" type="curve"/>
      <point x="333" y="665"/>
      <point x="374" y="640"/>
      <point x="405" y="609" type="curve"/>
      <point x="446" y="655"/>
      <point x="405" y="609"/>
    </contour>
    <contour>
      <point x="238" y="39" type="curve"/>
      <point x="229" y="15"/>
      <point x="210" y="-40"/>
      <point x="201" y="-65" type="curve"/>
      <point x="252" y="-112"/>
      <point x="201" y="-65"/>
      <point x="252" y="-112" type="curve"/>
      <point x="261" y="-85"/>
      <point x="285" y="-28"/>
      <point x="294" y="-1" type="curve"/>
      <point x="238" y="39"/>
      <point x="294" y="-1"/>
    </contour>
    <contour>
      <point x="252" y="-112" type="curve"/>
      <point x="258" y="-105"/>
      <point x="263" y="-101"/>
      <point x="272" y="-101" type="curve"/>
      <point x="289" y="-101"/>
      <point x="292" y="-118"/>
      <point x="292" y="-139" type="curve"/>
      <point x="292" y="-162"/>
      <point x="282" y="-178"/>
      <point x="260" y="-178" type="curve"/>
      <point x="244" y="-178"/>
      <point x="231" y="-174"/>
      <point x="219" y="-163" type="curve"/>
      <point x="190" y="-206"/>
      <point x="219" y="-163"/>
      <point x="190" y="-206" type="curve"/>
      <point x="210" y="-223"/>
      <point x="230" y="-230"/>
      <point x="257" y="-230" type="curve"/>
      <point x="308" y="-230"/>
      <point x="338" y="-193"/>
      <point x="338" y="-138" type="curve"/>
      <point x="338" y="-85"/>
      <point x="314" y="-45"/>
      <point x="265" y="-45" type="curve"/>
      <point x="240" y="-45"/>
      <point x="222" y="-50"/>
      <point x="201" y="-65" type="curve"/>
      <point x="252" y="-112"/>
      <point x="201" y="-65"/>
    </contour>
  </outline>
</glyph>
<glyph name="Egrave" format="1">
  <advance width="440"/>
  <unicode hex="00C8"/>
  <outline>
    <contour>
      <point x="148" y="344" type="curve"/>
      <point x="217" y="344"/>
      <point x="286" y="344"/>
      <point x="355" y="344" type="curve"/>
      <point x="355" y="403"/>
      <point x="355" y="344"/>
      <point x="355" y="403" type="curve"/>
      <point x="286" y="403"/>
      <point x="217" y="403"/>
      <point x="148" y="403" type="curve"/>
      <point x="148" y="344"/>
      <point x="148" y="403"/>
    </contour>
    <contour>
      <point x="139" y="663" type="curve"/>
      <point x="224" y="663"/>
      <point x="309" y="663"/>
      <point x="395" y="663" type="curve"/>
      <point x="395" y="722"/>
      <point x="395" y="663"/>
      <point x="395" y="722" type="curve"/>
      <point x="309" y="722"/>
      <point x="224" y="722"/>
      <point x="139" y="722" type="curve"/>
      <point x="139" y="663"/>
      <point x="139" y="722"/>
    </contour>
    <contour>
      <point x="182" y="0" type="curve"/>
      <point x="182" y="722" type="line"/>
      <point x="109" y="722"/>
      <point x="182" y="722"/>
      <point x="109" y="722" type="curve"/>
      <point x="109" y="481"/>
      <point x="109" y="241"/>
      <point x="109" y="0" type="curve"/>
      <point x="182" y="0"/>
      <point x="109" y="0"/>
    </contour>
    <contour>
      <point x="139" y="0" type="curve"/>
      <point x="231" y="0"/>
      <point x="323" y="0"/>
      <point x="416" y="0" type="curve"/>
      <point x="416" y="59"/>
      <point x="416" y="0"/>
      <point x="416" y="59" type="curve"/>
      <point x="323" y="59"/>
      <point x="231" y="59"/>
      <point x="139" y="59" type="curve"/>
      <point x="139" y="0"/>
      <point x="139" y="59"/>
    </contour>
    <contour>
      <point x="265" y="807" type="line"/>
      <point x="206" y="973" type="line"/>
      <point x="118" y="973" type="line"/>
      <point x="197" y="807" type="line"/>
    </contour>
  </outline>
</glyph>
<glyph name="Ecircumflex" format="1">
  <advance width="421"/>
  <unicode hex="00CA"/>
  <outline>
    <contour>
      <point x="135" y="344" type="curve"/>
      <point x="204" y="344"/>
      <point x="273" y="344"/>
      <point x="342" y="344" type="curve"/>
      <point x="342" y="403"/>
      <point x="342" y="344"/>
      <point x="342" y="403" type="curve"/>
      <point x="273" y="403"/>
      <point x="204" y="403"/>
      <point x="135" y="403" type="curve"/>
      <point x="135" y="344"/>
      <point x="135" y="403"/>
    </contour>
    <contour>
      <point x="126" y="663" type="curve"/>
      <point x="211" y="663"/>
      <point x="296" y="663"/>
      <point x="381" y="663" type="curve"/>
      <point x="381" y="722"/>
      <point x="381" y="663"/>
      <point x="381" y="722" type="curve"/>
      <point x="296" y="722"/>
      <point x="211" y="722"/>
      <point x="126" y="722" type="curve"/>
      <point x="126" y="663"/>
      <point x="126" y="722"/>
    </contour>
    <contour>
      <point x="169" y="0" type="curve"/>
      <point x="169" y="722" type="line"/>
      <point x="96" y="722"/>
      <point x="169" y="722"/>
      <point x="96" y="722" type="curve"/>
      <point x="96" y="481"/>
      <point x="96" y="241"/>
      <point x="96" y="0" type="curve"/>
      <point x="169" y="0"/>
      <point x="96" y="0"/>
    </contour>
    <contour>
      <point x="126" y="0" type="curve"/>
      <point x="218" y="0"/>
      <point x="310" y="0"/>
      <point x="403" y="0" type="curve"/>
      <point x="403" y="59"/>
      <point x="403" y="0"/>
      <point x="403" y="59" type="curve"/>
      <point x="310" y="59"/>
      <point x="218" y="59"/>
      <point x="126" y="59" type="curve"/>
      <point x="126" y="0"/>
      <point x="126" y="59"/>
    </contour>
    <contour>
      <point x="168" y="806" type="line"/>
      <point x="247" y="972" type="line"/>
      <point x="158" y="972" type="line"/>
      <point x="99" y="806" type="line"/>
    </contour>
    <contour>
      <point x="335" y="806" type="line"/>
      <point x="276" y="972" type="line"/>
      <point x="187" y="972" type="line"/>
      <point x="267" y="806" type="line"/>
    </contour>
  </outline>
</glyph>
<glyph name="Edieresis" format="1">
  <advance width="431"/>
  <unicode hex="00CB"/>
  <outline>
    <contour>
      <point x="139" y="344" type="curve"/>
      <point x="208" y="344"/>
      <point x="277" y="344"/>
      <point x="346" y="344" type="curve"/>
      <point x="346" y="403"/>
      <point x="346" y="344"/>
      <point x="346" y="403" type="curve"/>
      <point x="277" y="403"/>
      <point x="208" y="403"/>
      <point x="139" y="403" type="curve"/>
      <point x="139" y="344"/>
      <point x="139" y="403"/>
    </contour>
    <contour>
      <point x="130" y="663" type="curve"/>
      <point x="215" y="663"/>
      <point x="300" y="663"/>
      <point x="385" y="663" type="curve"/>
      <point x="385" y="722"/>
      <point x="385" y="663"/>
      <point x="385" y="722" type="curve"/>
      <point x="300" y="722"/>
      <point x="215" y="722"/>
      <point x="130" y="722" type="curve"/>
      <point x="130" y="663"/>
      <point x="130" y="722"/>
    </contour>
    <contour>
      <point x="173" y="0" type="curve"/>
      <point x="173" y="722" type="line"/>
      <point x="100" y="722"/>
      <point x="173" y="722"/>
      <point x="100" y="722" type="curve"/>
      <point x="100" y="481"/>
      <point x="100" y="241"/>
      <point x="100" y="0" type="curve"/>
      <point x="173" y="0"/>
      <point x="100" y="0"/>
    </contour>
    <contour>
      <point x="130" y="0" type="curve"/>
      <point x="222" y="0"/>
      <point x="314" y="0"/>
      <point x="407" y="0" type="curve"/>
      <point x="407" y="59"/>
      <point x="407" y="0"/>
      <point x="407" y="59" type="curve"/>
      <point x="314" y="59"/>
      <point x="222" y="59"/>
      <point x="130" y="59" type="curve"/>
      <point x="130" y="0"/>
      <point x="130" y="59"/>
    </contour>
    <contour>
      <point x="200" y="841" type="curve"/>
      <point x="200" y="867"/>
      <point x="183" y="880"/>
      <point x="159" y="880" type="curve"/>
      <point x="135" y="880"/>
      <point x="120" y="866"/>
      <point x="120" y="841" type="curve"/>
      <point x="202" y="841"/>
      <point x="118" y="841"/>
      <point x="200" y="841" type="curve"/>
      <point x="200" y="814"/>
      <point x="183" y="801"/>
      <point x="159" y="801" type="curve"/>
      <point x="135" y="801"/>
      <point x="120" y="815"/>
      <point x="120" y="841" type="curve"/>
      <point x="202" y="841"/>
      <point x="118" y="841"/>
    </contour>
    <contour>
      <point x="323" y="841" type="curve"/>
      <point x="323" y="867"/>
      <point x="306" y="880"/>
      <point x="283" y="880" type="curve"/>
      <point x="258" y="880"/>
      <point x="243" y="866"/>
      <point x="243" y="841" type="curve"/>
      <point x="325" y="841"/>
      <point x="241" y="841"/>
      <point x="323" y="841" type="curve"/>
      <point x="323" y="814"/>
      <point x="307" y="801"/>
      <point x="283" y="801" type="curve"/>
      <point x="258" y="801"/>
      <point x="243" y="815"/>
      <point x="243" y="841" type="curve"/>
      <point x="325" y="841"/>
      <point x="241" y="841"/>
    </contour>
  </outline>
</glyph>
<glyph name="Igrave" format="1">
  <advance width="279"/>
  <unicode hex="00CC"/>
  <outline>
    <contour>
      <point x="179" y="0" type="curve"/>
      <point x="179" y="241"/>
      <point x="179" y="481"/>
      <point x="179" y="722" type="curve"/>
      <point x="106" y="722"/>
      <point x="179" y="722"/>
      <point x="106" y="722" type="curve"/>
      <point x="106" y="481"/>
      <point x="106" y="241"/>
      <point x="106" y="0" type="curve"/>
      <point x="179" y="0"/>
      <point x="106" y="0"/>
    </contour>
    <contour>
      <point x="179" y="807" type="line"/>
      <point x="120" y="973" type="line"/>
      <point x="31" y="973" type="line"/>
      <point x="110" y="807" type="line"/>
    </contour>
  </outline>
</glyph>
<glyph name="Iacute" format="1">
  <advance width="274"/>
  <unicode hex="00CD"/>
  <outline>
    <contour>
      <point x="171" y="0" type="curve"/>
      <point x="171" y="241"/>
      <point x="171" y="481"/>
      <point x="171" y="722" type="curve"/>
      <point x="98" y="722"/>
      <point x="171" y="722"/>
      <point x="98" y="722" type="curve"/>
      <point x="98" y="481"/>
      <point x="98" y="241"/>
      <point x="98" y="0" type="curve"/>
      <point x="171" y="0"/>
      <point x="98" y="0"/>
    </contour>
    <contour>
      <point x="169" y="806" type="line"/>
      <point x="248" y="972" type="line"/>
      <point x="160" y="972" type="line"/>
      <point x="100" y="806" type="line"/>
    </contour>
  </outline>
</glyph>
<glyph name="Icircumflex" format="1">
  <advance width="281"/>
  <unicode hex="00CE"/>
  <outline>
    <contour>
      <point x="179" y="0" type="curve"/>
      <point x="179" y="241"/>
      <point x="179" y="481"/>
      <point x="179" y="722" type="curve"/>
      <point x="106" y="722"/>
      <point x="179" y="722"/>
      <point x="106" y="722" type="curve"/>
      <point x="106" y="481"/>
      <point x="106" y="241"/>
      <point x="106" y="0" type="curve"/>
      <point x="179" y="0"/>
      <point x="106" y="0"/>
    </contour>
    <contour>
      <point x="95" y="806" type="line"/>
      <point x="174" y="972" type="line"/>
      <point x="85" y="972" type="line"/>
      <point x="26" y="806" type="line"/>
    </contour>
    <contour>
      <point x="262" y="806" type="line"/>
      <point x="203" y="972" type="line"/>
      <point x="114" y="972" type="line"/>
      <point x="194" y="806" type="line"/>
    </contour>
  </outline>
</glyph>
<glyph name="Idieresis" format="1">
  <advance width="223"/>
  <unicode hex="00CF"/>
  <outline>
    <contour>
      <point x="150" y="0" type="curve"/>
      <point x="150" y="241"/>
      <point x="150" y="481"/>
      <point x="150" y="722" type="curve"/>
      <point x="77" y="722"/>
      <point x="150" y="722"/>
      <point x="77" y="722" type="curve"/>
      <point x="77" y="481"/>
      <point x="77" y="241"/>
      <point x="77" y="0" type="curve"/>
      <point x="150" y="0"/>
      <point x="77" y="0"/>
    </contour>
    <contour>
      <point x="94" y="841" type="curve"/>
      <point x="94" y="867"/>
      <point x="77" y="880"/>
      <point x="53" y="880" type="curve"/>
      <point x="29" y="880"/>
      <point x="14" y="866"/>
      <point x="14" y="841" type="curve"/>
      <point x="96" y="841"/>
      <point x="12" y="841"/>
      <point x="94" y="841" type="curve"/>
      <point x="94" y="814"/>
      <point x="77" y="801"/>
      <point x="53" y="801" type="curve"/>
      <point x="29" y="801"/>
      <point x="14" y="815"/>
      <point x="14" y="841" type="curve"/>
      <point x="96" y="841"/>
      <point x="12" y="841"/>
    </contour>
    <contour>
      <point x="217" y="841" type="curve"/>
      <point x="217" y="867"/>
      <point x="200" y="880"/>
      <point x="177" y="880" type="curve"/>
      <point x="152" y="880"/>
      <point x="137" y="866"/>
      <point x="137" y="841" type="curve"/>
      <point x="219" y="841"/>
      <point x="135" y="841"/>
      <point x="217" y="841" type="curve"/>
      <point x="217" y="814"/>
      <point x="201" y="801"/>
      <point x="177" y="801" type="curve"/>
      <point x="152" y="801"/>
      <point x="137" y="815"/>
      <point x="137" y="841" type="curve"/>
      <point x="219" y="841"/>
      <point x="135" y="841"/>
    </contour>
  </outline>
</glyph>
<glyph name="Eth" format="1">
  <advance width="543"/>
  <unicode hex="00D0"/>
  <outline>
    <contour>
      <point x="95" y="722" type="curve"/>
      <point x="95" y="481"/>
      <point x="95" y="241"/>
      <point x="95" y="0" type="curve"/>
      <point x="167" y="0"/>
      <point x="95" y="0"/>
      <point x="167" y="0" type="curve"/>
      <point x="167" y="241"/>
      <point x="167" y="481"/>
      <point x="167" y="722" type="curve"/>
      <point x="95" y="722"/>
      <point x="167" y="722"/>
    </contour>
    <contour>
      <point x="132" y="0" type="curve"/>
      <point x="172" y="0"/>
      <point x="201" y="0"/>
      <point x="241" y="0" type="curve"/>
      <point x="423" y="0"/>
      <point x="485" y="152"/>
      <point x="485" y="356" type="curve"/>
      <point x="485" y="565"/>
      <point x="422" y="722"/>
      <point x="236" y="722" type="curve"/>
      <point x="199" y="722"/>
      <point x="170" y="722"/>
      <point x="132" y="722" type="curve"/>
      <point x="132" y="673"/>
      <point x="132" y="713"/>
      <point x="132" y="663" type="curve"/>
      <point x="169" y="663"/>
      <point x="196" y="663"/>
      <point x="233" y="663" type="curve"/>
      <point x="380" y="663"/>
      <point x="412" y="526"/>
      <point x="412" y="354" type="curve"/>
      <point x="412" y="192"/>
      <point x="385" y="59"/>
      <point x="248" y="59" type="curve"/>
      <point x="206" y="59"/>
      <point x="174" y="59"/>
      <point x="132" y="59" type="curve"/>
      <point x="132" y="9"/>
      <point x="132" y="49"/>
    </contour>
    <contour>
      <point x="37" y="362" type="curve"/>
      <point x="108" y="362"/>
      <point x="179" y="362"/>
      <point x="249" y="362" type="curve"/>
      <point x="249" y="426"/>
      <point x="249" y="362"/>
      <point x="249" y="426" type="curve"/>
      <point x="179" y="426"/>
      <point x="108" y="426"/>
      <point x="37" y="426" type="curve"/>
      <point x="37" y="362"/>
      <point x="37" y="426"/>
    </contour>
  </outline>
</glyph>
<glyph name="Ntilde" format="1">
  <advance width="614"/>
  <unicode hex="00D1"/>
  <outline>
    <contour>
      <point x="514" y="0" type="curve"/>
      <point x="401" y="241"/>
      <point x="288" y="481"/>
      <point x="176" y="722" type="curve"/>
      <point x="100" y="722"/>
      <point x="177" y="722"/>
      <point x="101" y="722" type="curve"/>
      <point x="213" y="481"/>
      <point x="326" y="241"/>
      <point x="439" y="0" type="curve"/>
      <point x="515" y="0"/>
      <point x="438" y="0"/>
    </contour>
    <contour>
      <point x="440" y="722" type="curve"/>
      <point x="440" y="481"/>
      <point x="440" y="241"/>
      <point x="440" y="0" type="curve"/>
      <point x="513" y="0"/>
      <point x="440" y="0"/>
      <point x="513" y="0" type="curve"/>
      <point x="513" y="241"/>
      <point x="513" y="481"/>
      <point x="513" y="722" type="curve"/>
      <point x="440" y="722"/>
      <point x="513" y="722"/>
    </contour>
    <contour>
      <point x="175" y="0" type="curve"/>
      <point x="175" y="241"/>
      <point x="175" y="481"/>
      <point x="175" y="722" type="curve"/>
      <point x="102" y="722"/>
      <point x="175" y="722"/>
      <point x="102" y="722" type="curve"/>
      <point x="102" y="481"/>
      <point x="102" y="241"/>
      <point x="102" y="0" type="curve"/>
      <point x="175" y="0"/>
      <point x="102" y="0"/>
    </contour>
    <contour>
      <point x="405" y="960" type="curve"/>
      <point x="393" y="917"/>
      <point x="387" y="885"/>
      <point x="364" y="885" type="curve"/>
      <point x="339" y="885"/>
      <point x="328" y="900"/>
      <point x="314" y="921" type="curve"/>
      <point x="295" y="945"/>
      <point x="284" y="963"/>
      <point x="255" y="963" type="curve"/>
      <point x="196" y="963"/>
      <point x="180" y="899"/>
      <point x="168" y="839" type="curve"/>
      <point x="223" y="809"/>
      <point x="168" y="839"/>
      <point x="223" y="809" type="curve"/>
      <point x="235" y="855"/>
      <point x="241" y="886"/>
      <point x="271" y="886" type="curve"/>
      <point x="293" y="886"/>
      <point x="300" y="871"/>
      <point x="312" y="853" type="curve"/>
      <point x="332" y="825"/>
      <point x="347" y="806"/>
      <point x="380" y="806" type="curve"/>
      <point x="439" y="806"/>
      <point x="447" y="869"/>
      <point x="464" y="932" type="curve"/>
      <point x="405" y="960"/>
      <point x="464" y="932"/>
    </contour>
  </outline>
</glyph>
<glyph name="Ograve" format="1">
  <advance width="552"/>
  <unicode hex="00D2"/>
  <outline>
    <contour>
      <point x="130" y="360" type="curve" name="FullCurve"/>
      <point x="130" y="519"/>
      <point x="141" y="666"/>
      <point x="274" y="666" type="curve" name="FullCurve"/>
      <point x="405" y="666"/>
      <point x="422" y="521"/>
      <point x="422" y="363" type="curve" name="FullCurve"/>
      <point x="422" y="206"/>
      <point x="410" y="56"/>
      <point x="277" y="56" type="curve" name="FullCurve"/>
      <point x="145" y="56"/>
      <point x="130" y="201"/>
      <point x="130" y="360" type="curve" name="FullCurve"/>
      <point x="57" y="360"/>
      <point x="130" y="360"/>
      <point x="57" y="360" type="curve" name="FullCurve"/>
      <point x="57" y="162"/>
      <point x="105" y="-5"/>
      <point x="275" y="-5" type="curve" name="FullCurve"/>
      <point x="447" y="-5"/>
      <point x="495" y="164"/>
      <point x="495" y="363" type="curve" name="FullCurve"/>
      <point x="495" y="559"/>
      <point x="448" y="727"/>
      <point x="277" y="727" type="curve" name="FullCurve"/>
      <point x="106" y="727"/>
      <point x="57" y="558"/>
      <point x="57" y="360" type="curve" name="FullCurve"/>
      <point x="130" y="360"/>
      <point x="57" y="360"/>
    </contour>
    <contour>
      <point x="311" y="807" type="line"/>
      <point x="252" y="973" type="line"/>
      <point x="163" y="973" type="line"/>
      <point x="242" y="807" type="line"/>
    </contour>
  </outline>
</glyph>
<glyph name="Ocircumflex" format="1">
  <advance width="552"/>
  <unicode hex="00D4"/>
  <outline>
    <contour>
      <point x="130" y="360" type="curve" name="FullCurve"/>
      <point x="130" y="519"/>
      <point x="141" y="666"/>
      <point x="274" y="666" type="curve" name="FullCurve"/>
      <point x="405" y="666"/>
      <point x="422" y="521"/>
      <point x="422" y="363" type="curve" name="FullCurve"/>
      <point x="422" y="206"/>
      <point x="410" y="56"/>
      <point x="277" y="56" type="curve" name="FullCurve"/>
      <point x="145" y="56"/>
      <point x="130" y="201"/>
      <point x="130" y="360" type="curve" name="FullCurve"/>
      <point x="57" y="360"/>
      <point x="130" y="360"/>
      <point x="57" y="360" type="curve" name="FullCurve"/>
      <point x="57" y="162"/>
      <point x="105" y="-5"/>
      <point x="275" y="-5" type="curve" name="FullCurve"/>
      <point x="447" y="-5"/>
      <point x="495" y="164"/>
      <point x="495" y="363" type="curve" name="FullCurve"/>
      <point x="495" y="559"/>
      <point x="448" y="727"/>
      <point x="277" y="727" type="curve" name="FullCurve"/>
      <point x="106" y="727"/>
      <point x="57" y="558"/>
      <point x="57" y="360" type="curve" name="FullCurve"/>
      <point x="130" y="360"/>
      <point x="57" y="360"/>
    </contour>
    <contour>
      <point x="226" y="806" type="line"/>
      <point x="305" y="972" type="line"/>
      <point x="217" y="972" type="line"/>
      <point x="157" y="806" type="line"/>
    </contour>
    <contour>
      <point x="393" y="806" type="line"/>
      <point x="334" y="972" type="line"/>
      <point x="246" y="972" type="line"/>
      <point x="325" y="806" type="line"/>
    </contour>
  </outline>
</glyph>
<glyph name="Otilde" format="1">
  <advance width="552"/>
  <unicode hex="00D5"/>
  <outline>
    <contour>
      <point x="130" y="360" type="curve" name="FullCurve"/>
      <point x="130" y="519"/>
      <point x="141" y="666"/>
      <point x="274" y="666" type="curve" name="FullCurve"/>
      <point x="405" y="666"/>
      <point x="422" y="521"/>
      <point x="422" y="363" type="curve" name="FullCurve"/>
      <point x="422" y="206"/>
      <point x="410" y="56"/>
      <point x="277" y="56" type="curve" name="FullCurve"/>
      <point x="145" y="56"/>
      <point x="130" y="201"/>
      <point x="130" y="360" type="curve" name="FullCurve"/>
      <point x="57" y="360"/>
      <point x="130" y="360"/>
      <point x="57" y="360" type="curve" name="FullCurve"/>
      <point x="57" y="162"/>
      <point x="105" y="-5"/>
      <point x="275" y="-5" type="curve" name="FullCurve"/>
      <point x="447" y="-5"/>
      <point x="495" y="164"/>
      <point x="495" y="363" type="curve" name="FullCurve"/>
      <point x="495" y="559"/>
      <point x="448" y="727"/>
      <point x="277" y="727" type="curve" name="FullCurve"/>
      <point x="106" y="727"/>
      <point x="57" y="558"/>
      <point x="57" y="360" type="curve" name="FullCurve"/>
      <point x="130" y="360"/>
      <point x="57" y="360"/>
    </contour>
    <contour>
      <point x="369" y="960" type="curve"/>
      <point x="357" y="917"/>
      <point x="351" y="885"/>
      <point x="328" y="885" type="curve"/>
      <point x="303" y="885"/>
      <point x="293" y="900"/>
      <point x="278" y="921" type="curve"/>
      <point x="260" y="945"/>
      <point x="248" y="963"/>
      <point x="219" y="963" type="curve"/>
      <point x="160" y="963"/>
      <point x="144" y="899"/>
      <point x="132" y="839" type="curve"/>
      <point x="187" y="809"/>
      <point x="132" y="839"/>
      <point x="187" y="809" type="curve"/>
      <point x="199" y="855"/>
      <point x="206" y="886"/>
      <point x="235" y="886" type="curve"/>
      <point x="257" y="886"/>
      <point x="264" y="871"/>
      <point x="276" y="853" type="curve"/>
      <point x="297" y="825"/>
      <point x="311" y="806"/>
      <point x="344" y="806" type="curve"/>
      <point x="403" y="806"/>
      <point x="411" y="869"/>
      <point x="428" y="932" type="curve"/>
      <point x="369" y="960"/>
      <point x="428" y="932"/>
    </contour>
  </outline>
</glyph>
<glyph name="Odieresis" format="1">
  <advance width="552"/>
  <unicode hex="00D6"/>
  <outline>
    <contour>
      <point x="130" y="360" type="curve" name="FullCurve"/>
      <point x="130" y="519"/>
      <point x="141" y="666"/>
      <point x="274" y="666" type="curve" name="FullCurve"/>
      <point x="405" y="666"/>
      <point x="422" y="521"/>
      <point x="422" y="363" type="curve" name="FullCurve"/>
      <point x="422" y="206"/>
      <point x="410" y="56"/>
      <point x="277" y="56" type="curve" name="FullCurve"/>
      <point x="145" y="56"/>
      <point x="130" y="201"/>
      <point x="130" y="360" type="curve" name="FullCurve"/>
      <point x="57" y="360"/>
      <point x="130" y="360"/>
      <point x="57" y="360" type="curve" name="FullCurve"/>
      <point x="57" y="162"/>
      <point x="105" y="-5"/>
      <point x="275" y="-5" type="curve" name="FullCurve"/>
      <point x="447" y="-5"/>
      <point x="495" y="164"/>
      <point x="495" y="363" type="curve" name="FullCurve"/>
      <point x="495" y="559"/>
      <point x="448" y="727"/>
      <point x="277" y="727" type="curve" name="FullCurve"/>
      <point x="106" y="727"/>
      <point x="57" y="558"/>
      <point x="57" y="360" type="curve" name="FullCurve"/>
      <point x="130" y="360"/>
      <point x="57" y="360"/>
    </contour>
    <contour>
      <point x="254" y="841" type="curve"/>
      <point x="254" y="867"/>
      <point x="237" y="880"/>
      <point x="214" y="880" type="curve"/>
      <point x="189" y="880"/>
      <point x="174" y="866"/>
      <point x="174" y="841" type="curve"/>
      <point x="256" y="841"/>
      <point x="172" y="841"/>
      <point x="254" y="841" type="curve"/>
      <point x="254" y="814"/>
      <point x="238" y="801"/>
      <point x="214" y="801" type="curve"/>
      <point x="189" y="801"/>
      <point x="174" y="815"/>
      <point x="174" y="841" type="curve"/>
      <point x="256" y="841"/>
      <point x="172" y="841"/>
    </contour>
    <contour>
      <point x="377" y="841" type="curve"/>
      <point x="377" y="867"/>
      <point x="361" y="880"/>
      <point x="337" y="880" type="curve"/>
      <point x="313" y="880"/>
      <point x="298" y="866"/>
      <point x="298" y="841" type="curve"/>
      <point x="379" y="841"/>
      <point x="296" y="841"/>
      <point x="377" y="841" type="curve"/>
      <point x="377" y="814"/>
      <point x="361" y="801"/>
      <point x="337" y="801" type="curve"/>
      <point x="312" y="801"/>
      <point x="298" y="815"/>
      <point x="298" y="841" type="curve"/>
      <point x="379" y="841"/>
      <point x="296" y="841"/>
    </contour>
  </outline>
</glyph>
<glyph name="multiply" format="1">
  <advance width="532"/>
  <unicode hex="00D7"/>
  <outline>
    <contour>
      <point x="100" y="95" type="line"/>
      <point x="476" y="481" type="line"/>
      <point x="433" y="524" type="line"/>
      <point x="57" y="139" type="line"/>
    </contour>
    <contour>
      <point x="476" y="137" type="line"/>
      <point x="100" y="523" type="line"/>
      <point x="57" y="479" type="line"/>
      <point x="432" y="94" type="line"/>
    </contour>
  </outline>
</glyph>
<glyph name="Ugrave" format="1">
  <advance width="569"/>
  <unicode hex="00D9"/>
  <outline>
    <contour>
      <point x="93" y="721" type="curve"/>
      <point x="93" y="581"/>
      <point x="92" y="412"/>
      <point x="93" y="271" type="curve"/>
      <point x="93" y="106"/>
      <point x="135" y="-5"/>
      <point x="283" y="-5" type="curve"/>
      <point x="431" y="-5"/>
      <point x="477" y="106"/>
      <point x="477" y="272" type="curve"/>
      <point x="477" y="412"/>
      <point x="477" y="581"/>
      <point x="477" y="721" type="curve"/>
      <point x="409" y="721"/>
      <point x="477" y="721"/>
      <point x="410" y="721" type="curve"/>
      <point x="410" y="577"/>
      <point x="410" y="407"/>
      <point x="410" y="263" type="curve"/>
      <point x="410" y="147"/>
      <point x="384" y="60"/>
      <point x="288" y="60" type="curve"/>
      <point x="179" y="60"/>
      <point x="160" y="155"/>
      <point x="160" y="283" type="curve"/>
      <point x="160" y="420"/>
      <point x="160" y="585"/>
      <point x="160" y="721" type="curve"/>
      <point x="92" y="721"/>
      <point x="160" y="721"/>
    </contour>
    <contour>
      <point x="322" y="807" type="line"/>
      <point x="263" y="973" type="line"/>
      <point x="175" y="973" type="line"/>
      <point x="254" y="807" type="line"/>
    </contour>
  </outline>
</glyph>
<glyph name="Ucircumflex" format="1">
  <advance width="569"/>
  <unicode hex="00DB"/>
  <outline>
    <contour>
      <point x="93" y="721" type="curve"/>
      <point x="93" y="581"/>
      <point x="92" y="412"/>
      <point x="93" y="271" type="curve"/>
      <point x="93" y="106"/>
      <point x="135" y="-5"/>
      <point x="283" y="-5" type="curve"/>
      <point x="431" y="-5"/>
      <point x="477" y="106"/>
      <point x="477" y="272" type="curve"/>
      <point x="477" y="412"/>
      <point x="477" y="581"/>
      <point x="477" y="721" type="curve"/>
      <point x="409" y="721"/>
      <point x="477" y="721"/>
      <point x="410" y="721" type="curve"/>
      <point x="410" y="577"/>
      <point x="410" y="407"/>
      <point x="410" y="263" type="curve"/>
      <point x="410" y="147"/>
      <point x="384" y="60"/>
      <point x="288" y="60" type="curve"/>
      <point x="179" y="60"/>
      <point x="160" y="155"/>
      <point x="160" y="283" type="curve"/>
      <point x="160" y="420"/>
      <point x="160" y="585"/>
      <point x="160" y="721" type="curve"/>
      <point x="92" y="721"/>
      <point x="160" y="721"/>
    </contour>
    <contour>
      <point x="238" y="806" type="line"/>
      <point x="317" y="972" type="line"/>
      <point x="229" y="972" type="line"/>
      <point x="169" y="806" type="line"/>
    </contour>
    <contour>
      <point x="405" y="806" type="line"/>
      <point x="346" y="972" type="line"/>
      <point x="258" y="972" type="line"/>
      <point x="337" y="806" type="line"/>
    </contour>
  </outline>
</glyph>
<glyph name="Udieresis" format="1">
  <advance width="569"/>
  <unicode hex="00DC"/>
  <outline>
    <contour>
      <point x="93" y="721" type="curve"/>
      <point x="93" y="581"/>
      <point x="92" y="412"/>
      <point x="93" y="271" type="curve"/>
      <point x="93" y="106"/>
      <point x="135" y="-5"/>
      <point x="283" y="-5" type="curve"/>
      <point x="431" y="-5"/>
      <point x="477" y="106"/>
      <point x="477" y="272" type="curve"/>
      <point x="477" y="412"/>
      <point x="477" y="581"/>
      <point x="477" y="721" type="curve"/>
      <point x="409" y="721"/>
      <point x="477" y="721"/>
      <point x="410" y="721" type="curve"/>
      <point x="410" y="577"/>
      <point x="410" y="407"/>
      <point x="410" y="263" type="curve"/>
      <point x="410" y="147"/>
      <point x="384" y="60"/>
      <point x="288" y="60" type="curve"/>
      <point x="179" y="60"/>
      <point x="160" y="155"/>
      <point x="160" y="283" type="curve"/>
      <point x="160" y="420"/>
      <point x="160" y="585"/>
      <point x="160" y="721" type="curve"/>
      <point x="92" y="721"/>
      <point x="160" y="721"/>
    </contour>
    <contour>
      <point x="266" y="841" type="curve"/>
      <point x="266" y="867"/>
      <point x="249" y="880"/>
      <point x="225" y="880" type="curve"/>
      <point x="201" y="880"/>
      <point x="186" y="866"/>
      <point x="186" y="841" type="curve"/>
      <point x="268" y="841"/>
      <point x="184" y="841"/>
      <point x="266" y="841" type="curve"/>
      <point x="266" y="814"/>
      <point x="249" y="801"/>
      <point x="225" y="801" type="curve"/>
      <point x="201" y="801"/>
      <point x="186" y="815"/>
      <point x="186" y="841" type="curve"/>
      <point x="268" y="841"/>
      <point x="184" y="841"/>
    </contour>
    <contour>
      <point x="389" y="841" type="curve"/>
      <point x="389" y="867"/>
      <point x="372" y="880"/>
      <point x="349" y="880" type="curve"/>
      <point x="324" y="880"/>
      <point x="309" y="866"/>
      <point x="309" y="841" type="curve"/>
      <point x="391" y="841"/>
      <point x="307" y="841"/>
      <point x="389" y="841" type="curve"/>
      <point x="389" y="814"/>
      <point x="373" y="801"/>
      <point x="349" y="801" type="curve"/>
      <point x="324" y="801"/>
      <point x="309" y="815"/>
      <point x="309" y="841" type="curve"/>
      <point x="391" y="841"/>
      <point x="307" y="841"/>
    </contour>
  </outline>
</glyph>
